<?xml version="1.0" encoding="UTF-8" standalone="no"?>
<svg xmlns="http://www.w3.org/2000/svg" xmlns:xlink="http://www.w3.org/1999/xlink" xmlns:xml="http://www.w3.org/XML/1998/namespace" width="300mm" height="99.999986mm">
  <defs>
    <linearGradient id="a">
      <stop offset="0" stop-opacity=".50515461"/>
      <stop offset="1" stop-opacity="0"/>
    </linearGradient>
    <linearGradient xlink:href="#a" id="i" x1="156.33753" x2="264.5692" y1="184.92068" y2="184.92068" gradientTransform="scale(1.19593 .83617)" gradientUnits="userSpaceOnUse"/>
    <linearGradient id="d">
      <stop offset="0" stop-color="#fff"/>
      <stop offset="1" stop-color="#fff" stop-opacity="0"/>
    </linearGradient>
    <linearGradient id="c">
      <stop offset="0" stop-color="#3f3318"/>
      <stop offset="1" stop-color="#815f0e"/>
    </linearGradient>
    <linearGradient id="b">
      <stop offset="0" stop-color="#747474"/>
      <stop offset=".5" stop-color="#bebebe"/>
      <stop offset=".625" stop-color="#d5d5d5"/>
      <stop offset=".75" stop-color="#818181"/>
      <stop offset="1" stop-color="#c3c3c3"/>
    </linearGradient>
    <linearGradient xlink:href="#b" id="f" x1="150.49463" x2="345.53265" y1="42.808048" y2="242.17987" gradientTransform="scale(1.00007 .99993)" gradientUnits="userSpaceOnUse"/>
    <linearGradient xlink:href="#c" id="g" x1="410.07956" x2="330.90302" y1="252.37991" y2="256.31027" gradientTransform="scale(.68845 1.45253)" gradientUnits="userSpaceOnUse"/>
    <radialGradient xlink:href="#d" id="h" cx="212.59842" cy="70.866119" r="35.433071" fx="212.59842" fy="70.866119" gradientUnits="userSpaceOnUse"/>
    <pattern id="e" width="150.41797" height="120.75547" patternTransform="translate(135.4908 26.81216)" patternUnits="userSpaceOnUse">
      <text xml:space="preserve" x="189.69904" y="67.749657" stroke-width="1pt" font-family="Bitstream Vera Sans" font-size="56" font-weight="700" text-anchor="middle" transform="translate(-114.5037 -26.18716)" writing-mode="lr"><tspan x="189.69904" y="67.749657">0010</tspan><tspan x="189.69904" y="106.94966">0100</tspan><tspan x="189.69904" y="146.14966">0111</tspan></text>
    </pattern>
  </defs>
  <g display="block">
    <path fill-rule="evenodd" stroke="#000" stroke-linejoin="round" stroke-opacity=".53503186" stroke-width="15" d="m124.24584 113.79918-17.94662-70.86616 70.86614 17.716535L248.0315 42.93302l70.86614 17.716535 70.86614-17.716535 70.86614 17.716535 70.86615-17.716535 70.86614 17.716535 70.86614-17.716535 70.86614 17.716535 70.86614-17.716535 70.86614 17.716535 70.86615-17.716535 17.71653 70.86615-17.71653 70.86614 17.71653 70.86614-17.71653 70.86614-70.86615 17.71654-70.86614-17.71654-70.86614 17.71654-70.86614-17.71654-70.86614 17.71654-70.86614-17.71654-70.86615 17.71654-70.86614-17.71654-70.86614 17.71654-70.86614-17.71654-70.86614 17.71654-70.86614-17.71654 17.71653-70.86614-17.71653-70.86614 17.94662-70.86613z" opacity=".5999999"/>
    <path fill="#fff" fill-rule="evenodd" d="M115.042454 97.786033 97.095835 26.919876l70.866142 17.716535 70.866143-17.716535 70.86614 17.716535 70.86614-17.716535 70.86614 17.716535 70.86615-17.716535 70.86614 17.716535 70.86614-17.716535 70.86614 17.716535 70.86614-17.716535 70.86614 17.716535 70.86615-17.716535 17.71653 70.866141-17.71653 70.866144 17.71653 70.86614-17.71653 70.86614-70.86615 17.71654-70.86614-17.71654-70.86614 17.71654-70.86614-17.71654-70.86614 17.71654-70.86614-17.71654-70.86615 17.71654-70.86614-17.71654-70.86614 17.71654-70.86614-17.71654-70.866143 17.71654-70.866142-17.71654 17.716536-70.86614-17.716536-70.86614 17.946619-70.866128z"/>
    <path fill="#999" fill-rule="evenodd" d="m185.74626 203.644901 8.12995-17.27618-.67749 17.71654 10.19633-10.60281 17.71653-7.11373-9.62046 17.71654 9.62046-6.53783 8.67195 6.53783h9.04459l-11.07708 17.71654-6.63946 8.26546-8.94296-8.26546-8.77357 8.26546v9.45107h-17.71654l17.71654-17.71653h-17.71654l-6.707219-17.71654 6.774969-.44036z"/>
    <path fill="none" stroke="#000" stroke-dasharray="10 1.25" stroke-width="1.25" d="m115.286616 97.955437 70.391894 17.547144 70.86614-17.716533 70.86615 17.716533 70.86614-17.716533" opacity=".32926825"/>
    <path fill="none" stroke="#000" stroke-dasharray="10 1.25" stroke-width="1.25" d="m166.776353 45.788204 18.902157 69.714377-17.716533 70.86614 17.716533 70.86615-17.716533 70.86614" opacity=".32926825"/>
    <path fill="none" stroke="#000" stroke-dasharray="10 1.25" stroke-width="1.25" d="M237.48625 28.071673 256.3884 97.78605l-17.71653 70.866141 17.71653 70.86615-17.71653 70.86614" opacity=".6"/>
    <path fill="none" stroke="#000" stroke-dasharray="10 1.25" stroke-width="1.25" d="m308.50865 45.788207 18.90215 69.714374-17.71653 70.86614 17.71653 70.86615-17.71653 70.86614" opacity=".32926825"/>
    <path fill="none" stroke="#000" stroke-dasharray="10 1.25" stroke-width="1.25" d="m97.095835 168.977831 70.391894 17.54714 70.866141-17.71653 70.86615 17.71653 70.86614-17.71653m-265.273789 70.70989 70.391889 17.54714 70.86615-17.71653 70.86615 17.71653 70.86614-17.71653m1.09924-140.768535 70.39189 17.547145 70.86614-17.716534 70.86615 17.716534 70.86614-17.716534m-.30151.169389 70.39189 17.547145 70.86614-17.716534 70.86615 17.716534 70.86614-17.716534M381.1854 168.821551l70.39189 17.54714 70.86614-17.71653 70.86615 17.71653 70.86614-17.71653m-.3015.79439 70.39189 17.54714 70.86614-17.71653 70.86615 17.71653 70.86614-17.71653m-547.9626 71.03553 70.39189 17.54714 70.86614-17.71653 70.86615 17.71653 70.86614-17.71653m-.30151.16939 70.39189 17.54714 70.86614-17.71653 70.86615 17.71653 70.86614-17.71653" opacity=".32926825"/>
    <path fill="none" stroke="#000" stroke-dasharray="10 1.25" stroke-width="1.25" d="m452.05154 45.788178 18.90216 69.714373-17.71653 70.86614 17.71653 70.86615-17.71653 70.86614m69.52427-300.029334 18.90215 69.714377-17.71653 70.866137 17.71653 70.86615-17.71653 70.86614m69.83678-264.59627 18.90215 69.71437-17.71653 70.86614 17.71653 70.86615-17.71653 70.86614M733.08048 45.788182l18.90216 69.714369-17.71653 70.86614 17.71653 70.86615-17.71653 70.86614m69.52427-300.02933 18.90215 69.714377-17.71653 70.866133 17.71653 70.86615-17.71653 70.86614m69.83678-264.596266 18.90215 69.714366-17.71653 70.86614 17.71653 70.86615-17.71653 70.86614M664.02497 28.071649l18.90215 69.714377-17.71653 70.866135 17.71653 70.86615-17.71653 70.86614M378.74979 26.919876l18.90215 69.714377-17.71653 70.866138 17.71653 70.86615-17.71653 70.86614" opacity=".32926825"/>
    <path fill="#6aae36" fill-rule="evenodd" d="M274.26119 150.935651v-6.91045c0-9.9373-1.75844-10.80608-11.28033-10.80608-14.71657 0 2.63407 17.71653-15.58242 17.71653-14.82703 0 12.76403-34.66176-54.87722 6.63948-13.554632 8.27636-6.07952-6.63948 2.03249-6.63948 12.29297 0 12.26577-17.71653.6775-17.71653-3.84847 0 8.16384-4.31536 8.16384-8.16382 0-7.7907 28.90582-16.937416 10.80606-16.937416-7.28451 0-10.80606 13.232566-10.80606-4.064979 0-8.114108 16.55681-15.950906 0-17.61491-2.11219-.21228 0-4.245656 0-6.368483 0-3.624609-14.49844 0-10.87383 0 9.94773 0 10.87383-1.698577 10.87383-11.246427 0-5.443473-29.132593-13.77462-10.87383-15.58242 46.12604-4.566939 12.59477-26.32076 46.3069-26.32076 11.33657 0-17.71654 17.694179-17.71654 29.030746 0 15.452644 17.71654-3.402759 17.71654 14.904924 0 19.150103 27.26765 16.937413 45.83263 16.937413h7.31698c5.19414 0 0-10.38828 0-15.58242 0-14.425959 46.12091-23.723476 42.14027-9.857592-1.83619 6.396028-17.33541 7.064172-24.42374 9.180095-12.72176 3.797548 39.94853 54.199719 9.51881 54.199719-15.31872 0-5.45973-10.23021-19.6474-10.23021-8.00013 0 27.84513 17.32179 27.84513 35.43307 0 10.99808-24.69128-6.8367-35.43307-8.94294-4.52732-.88771-6.09094-8.77359-10.70446-8.77359-22.0876 0 10.70446 30.54942 10.70446 35.43307 0 2.30348 4.60696 0 6.91045 0 5.23125 0-24.62699 7.68255-24.62699-9.72207v-7.99447z" opacity=".6"/>
    <path fill="none" stroke="red" stroke-width="3.75" d="m142.386478 41.045728-9.857572 21.307249 17.716536 8.502599v26.930472l-17.716536 24.559263v17.61491l35.433071 19.6474-17.716535 16.93741v9.82369l17.716535 17.71654 17.716533-17.71654 17.71654 17.71654 17.71653 42.24192-17.71653 46.34076h8.09607l1.355 24.11888" opacity=".6"/>
    <path fill="none" stroke="#243eb4" stroke-width="3.75" d="M106.682413 204.085261c11.514541.47152 16.036815 24.53974 25.846493 28.69199 10.662661 4.51329 12.89996 6.74108 28.149978 6.74108 12.399615 0 1.242297-10.80606 16.937414-10.80606 7.615902 0 25.778752-12.90602 25.778752-24.62701 0-3.22494 26.55617 3.45648 28.42097 7.68959 3.1501 7.15075 17.61491 5.05744 17.61491 16.93742 0 14.99684-10.60281 7.71666-10.60281 17.61491 0 12.9999-6.08732 10.90769-17.71654 10.90769-4.84277 0-4.30831 10.04525-8.94296 11.44969-16.17073 4.90022 10.12156 7.43943 15.58242 12.87244 2.82306 2.80866 16.33306 3.80297 19.6474 4.06498 9.30199.73533 10.84732-2.36174 19.6474-4.06498 19.13598-3.70374 15.58242-14.44977 15.58242-31.16484v-28.59036c0-2.52724 16.26024 17.71653 16.93741 17.71653 7.22758 0 18.14182-9.26999 18.96991-17.71653.43551-4.44225 8.87522-5.5634 8.87522-10.02695v-1.35499c0-16.09317-6.50915-41.76767 11.44967-41.76767 7.71746 0 7.18747-17.71654 14.90493-17.71654 5.94424 0 .63652-12.40518-2.03249-17.71653-4.26866-8.49464-15.51394-17.71654 3.38748-17.71654 10.90387 0 10.56994-17.716533.6775-17.716533H334.118c-63.65916 0-31.52037-17.716535-49.45725-17.716535-3.60706 0-10.39956-11.417929-10.39956-17.716536 0-7.270273 35.43307 12.510967 35.43307-17.716535" opacity=".6"/>
    <path fill="#79abae" fill-rule="evenodd" d="M398.27694 274.951371c-54.30276-63.95736-69.68213-53.14961 17.71653-53.14961 26.08814 0 15.3018 53.14961-35.43307 53.14961-2.31954 0 35.43307-24.7391 35.43307-53.14961 0-12.06642 43.10328-53.1496 63.73349-53.1496 23.79234 0 17.37638 95.05612-2.30085 116.65303-10.16138 11.15272-15.05248-26.57708-17.25636 7.36272-.68403 10.534-23.83264 9.58826-35.66316 8.74323-16.16663-1.15476-27.9016-8.74323-50.61867-8.74323-12.06855 0-30.41135 11.29679-37.964 17.71653-12.9764 11.02992 12.9846-48.77972 16.10594-53.1496 8.28618-11.60069 27.01767 15.93669 28.53054 17.71653.18109.21305 16.76207 0 17.71654 0z" opacity=".6"/>
    <path fill="#6aae36" fill-rule="evenodd" d="M530.34563 133.219091c3.8247 4.49963-4.00083-13.37276 0-17.71654 8.76073-9.511692 23.00849 11.81103 34.51273 17.71654 5.35249 2.74761-1.68803-14.58825 3.45127-17.71654 6.52701-3.97298 7.13266 32.3128 7.13266-8.513124 0-7.981067-11.27557-11.393038-17.71653-16.10594-4.55959-3.336285 19.40465-8.797655 9.43345-20.707638-12.38558-14.79381 8.28308-10.22956 8.28308 9.893633 0 14.468842 22.80567 16.615659 10.12371-6.44236-10.28891-18.707027 13.32045-5.912118 18.40679-1.150424 5.78666 5.417325-10.20206 15.364239-18.40679 25.309319-5.96711 7.232815-6.22927-4.304827 14.95551 8.052986 7.02661 4.098858 14.05195-9.779365 17.25637-17.256365 2.76227-6.445326 23.91121 26.919913-6.90252 26.919913-22.81512 0-16.11789 17.71654 8.05294 17.71654 9.27969 0 13.77627-22.26213 18.40679-27.380088 16.0353-17.723265 6.50983 11.791128-1.15042 18.406788-21.65089 18.69846-.38603 12.05528 10.12376 0 14.73115-16.897394 22.27671-21.899604 0-44.176309-5.90551-5.905512-11.81102-11.811024-17.71653-17.716535-8.02957-8.029567-12.31412-22.354309-17.71654-24.388979-3.46898-1.306497-2.1436 40.401162 17.71654 14.955516 8.09166-10.367381 16.56059-9.157083 27.14998-1.150424 4.40555 3.331043 9.43241-7.132649 14.95552-7.132649 24.11724 0-44.43389 10.167129-6.67243 24.389014 4.77382 1.797938 26.83877-12.858627 11.27412 11.044057-.88438 1.358158 10.17029-13.344251 17.25637-17.716535 14.88158-9.182307 6.90258-19.075858 6.90258 7.822902 0 16.928853-40.49628 11.832431 0 27.610168 31.78299 12.382954 29.47663-7.382043 10.35378 17.716534-6.40009 8.40007-40.55823-8.768154-17.25636 7.59282 6.29417 4.41933-17.56835 15.72224-1.15043 27.84025 67.35518 49.71463-27.30231-44.648618 16.10595 0 10.21566 10.50758 9.71071 17.71654-14.95552 17.71654-21.65355 0-20.39834 2.4161-28.53049-11.04406-11.43555-18.92789-7.04339 12.31819 0 19.55721 4.79404 4.92719-26.89926 8.96896-9.43351 26.91992 8.933 9.18117 16.29672 17.71653-8.28303 17.71653-15.49464 0-20.14985-19.63212-28.53055-26.22966-14.93134-11.75442 16.47506.71278 21.85806-26.91994 1.95841-10.05317-23.24996 2.18065-28.76058 10.814-15.2752 23.93129 27.61016 73.81431 27.61016 77.76868 0 1.63734-27.61016 2.23969-27.61016-17.71654 0-6.87907 13.78813-4.93684 17.71654-10.5839 6.74488-9.69571-23.62205 0-35.43307 0-17.38853 0 0 30.40808 0 36.81358 0 7.09433-17.71654.88483-17.71654-17.25636 0-23.67153-22.53609 5.27963 0-17.25637 16.82497-16.82489-2.6217-14.72173 26.22965-27.15002 18.95927-8.16708-2.43352-17.71654-17.25637-17.71654-2.81405 0-25.2891 23.30631-26.68981 24.15892-5.07502 3.08916-6.29974-10.55648-11.27419-13.80509-3.2691-2.13492-47.35913 5.11302-13.80509-17.25636 13.98338-9.32227 25.07928-23.97182 25.07928-1.15043 0 17.8514 17.71653 1.53892 17.71653-18.40679 0-11.15076-39.02917 3.69328-43.94623 8.74322-2.02318 2.07784-8.01293-26.674-16.10595-25.99958-25.39549 2.11629-5.21643-24.15563-2.30084-27.15003 5.75107-5.90653 11.75018 11.58107 17.25636 17.71654zm303.71202 131.37847c6.8-6.98381-22.89349.7477-28.3004-7.36272-11.70033-17.55062-2.05861-.26904-17.71653-17.71654-13.7969-15.37378 11.24695-45.34355-35.43307-17.71654-17.62985 10.43402-72.743 21.87016-7.13267 0 23.60172-7.86725 42.56574-80.10069 42.56574-27.38009 0 23.87853 17.71653-6.36002 17.71653-18.40679 0-18.09518-2.19317 43.56928-7.36275 54.06995-6.70438 13.61819-15.31801-.32236 7.36275 1.15042 8.65136.56178-7.1686 25.99959-25.76954 25.99959-5.04775 0 32.89895-63.93549 61.20261-46.70723.40735.24795-22.62946 35.34856-25.53946 39.11443-8.74393 11.31563-15.97272 29.10879 1.15042 18.40679 10.2097-6.38108 16.98602-29.4106 24.38904-36.81358 6.21988-6.21984 12.99404-12.1362 17.71654-19.55721 16.52764-25.9718-27.92295-24.55792-35.43307-17.25637-12.75014 12.39605-21.72696 8.74623-11.2742-8.05298 8.73719-14.04202 18.40679-9.55298 18.40679 10.35383 0 16.81177 28.2377-20.5801 35.66315-35.66315 5.36132-10.89024-.32821 25.77087-7.36267 35.66315-26.03569 36.61294 93.3806-18.16684 35.43307 34.51273-11.6119 10.55627-23.78871 11.3297-35.43307 0-12.27538-11.94366-24.62616-.99174 17.71653 14.95552 10.53725 3.96857-17.71653 17.5008-17.71653 28.7606 0 8.97332-19.75858 2.96424-24.84921 10.35382-6.86732 9.96863-8.65019-10.35382-28.3004-10.35382-1.24019 0-6.47438-2.89935 8.74319-17.71653 4.99074-4.85944 13.839 3.38482 19.55721 7.36272z" opacity=".6"/>
    <path fill="#979797" fill-rule="evenodd" d="m775.38601 140.351731-5.06183-24.84918 17.71654 17.71654 17.71653-35.433074 88.58268 28.760624-10.81404-28.760624-42.33557 42.565714 8.97327-42.565714-26.6898 35.433074v35.43307h-60.74245l14.95552-11.04406-2.30085-17.25637z" opacity=".6"/>
    <path fill="none" stroke="red" stroke-width="3.75" d="M309.69426 230.084831c14.93123-14.63528 46.96029-32.75313 70.86614-51.7691 15.47236-12.30751 12.99989-6.69943 25.5394 8.05296 9.83141 11.56637 15.20934 6.81006-1.15042 17.71654-15.57296 10.38194-24.38898-8.95133-24.38898 17.71653m33.59238-183.837793-15.87584 51.769094h26.22965v32.211879l17.25637 11.27415v25.53943l36.81358-7.8229 18.40679 17.71654h25.30936l46.01694-6.44237 60.28227 6.44237 25.99956 25.76951 62.58312-8.05298 17.71653-59.82205 35.43307 24.38898h88.58268l35.43307 17.71654 35.43307 35.43307-17.71653 17.71653 17.71653 8.97332 27.38005 44.17629-45.09658 17.71654v25.99959" opacity=".6"/>
    <path fill="#834114" fill-opacity=".86708862" fill-rule="evenodd" d="M469.14308 97.786017c-21.51173 2.071363-17.09179-8.990075-11.27418-17.716535 4.42708-6.64066-9.53835-13.181766-16.10594-17.716535-8.00728-5.528839 22.02523 1.99911 27.38012 10.123751 1.33115 2.019671-5.40268-17.705143 17.71653-20.707638 12.84451-1.668117.14622 28.129835-8.28307 37.964002-6.63461 7.740365 17.45649-10.543003 25.99961-16.10594 7.29234-4.748479-2.75685 19.179736-9.89367 24.158895-4.93432 3.442533 6.78865 12.710494 3.45127 17.716534-7.44185 11.16271-3.93254-27.18954-18.40679-8.513124-12.71482 16.406194-7.44438 11.509904-20.70764-1.150424-7.55274-7.209413-7.59278 13.780728-7.59278-8.052986 0-9.797022 2.48347 0 17.71654 0zm134.82971 205.925964h6.90257c18.16244 0 41.61904-11.04407 6.90252-11.04407-10.11598 0 3.81267-27.26388 18.40679-7.36272 11.61624 15.8404 10.12376-4.28037 10.12376-20.70763 0-13.57831 4.07048 26.93947 17.71654 2.30085 11.33278-20.46189 4.80383-9.66357 25.07922-9.66357 12.32021 0-17.96475-17.09158-25.07922-27.15001-7.05801-9.97861 30.99594-1.95512 35.43307 9.43347 3.15447 8.09642 4.38345-17.1591 9.20336-24.38899 4.52954-6.79433-.73947 16.3739-2.30085 24.38899-2.1645 11.1111 99.41129-20.65959 55.22037 17.71654-16.40483 14.24621-30.92815-14.02335-33.36231-17.71654-5.37482-8.15486.43568 21.01439 6.6725 28.53053.02909.03505 39.15199-15.6844 8.28302 6.90254-7.67299 5.61436-58.27959 1.15241-18.40679 10.35382 17.63087 4.06867 4.75902 15.65224-7.59276 17.25637-6.39165.83008-22.25646-23.59525-25.76955-27.61019-1.4963-1.71006-23.16316 4.26856-27.38006 8.05298-12.00486 10.77363-14.25073 16.54905-28.99073 19.55721-13.8843 2.83352-6.54641 7.82288-24.15888 7.82288-3.20012 0-4.60171-4.4483-6.90257-6.67246z" opacity=".6"/>
    <path fill="none" stroke="#000" stroke-width="10" d="M115.042454 97.786033 97.095835 26.919876l70.866142 17.716535 70.866143-17.716535 70.86614 17.716535 70.86614-17.716535 70.86614 17.716535 70.86615-17.716535 70.86614 17.716535 70.86614-17.716535 70.86614 17.716535 70.86614-17.716535 70.86614 17.716535 70.86615-17.716535 17.71653 70.866141-17.71653 70.866144 17.71653 70.86614-17.71653 70.86614-70.86615 17.71654-70.86614-17.71654-70.86614 17.71654-70.86614-17.71654-70.86614 17.71654-70.86614-17.71654-70.86615 17.71654-70.86614-17.71654-70.86614 17.71654-70.86614-17.71654-70.866143 17.71654-70.866142-17.71654 17.716536-70.86614-17.716536-70.86614 17.946619-70.866128z"/>
  </g>
  <g display="block">
    <path fill="none" d="M335.98918 119.237691a100.89618 100.89618 0 1 1-201.79236 0 100.89618 100.89618 0 1 1 201.79236 0z" opacity=".32926825"/>
    <path fill="url(#e)" d="M325.80811 118.61269a100.89618 100.89618 0 1 1-201.79236 0 100.89618 100.89618 0 1 1 201.79236 0z" opacity=".45975608" transform="translate(10.80607 6.6e-7)"/>
    <path fill="none" d="M183.76682 59.468407h32.232422v37.876175H183.76682z"/>
    <path fill="none" d="M183.76675 59.468407h32.232422v28.276169H183.76675z"/>
    <path fill="none" d="M379.39807 159.44879h74.52462v53.149605h-74.52462zm-42.78389-40.83609934a100.89618 100.89618 0 1 1-201.79236 0 100.89618 100.89618 0 1 1 201.79236 0z" opacity=".35975608"/>
  </g>
  <g display="block">
    <path fill="url(#f)" stroke="#000" stroke-width="7.4999976" d="M248.03125 35.4375c-58.67716 0-106.3125 47.604086-106.3125 106.28125 0 52.62685 38.35814 96.25709 88.59375 104.71875v37.03125H265.75V246.4375c50.23562-8.46166 88.59377-52.0919 88.59375-104.71875 0-58.677164-47.63534-106.28125-106.3125-106.28125zm0 17.71875c48.89764 0 88.59375 39.664861 88.59375 88.5625.00001 48.89764-39.69611 88.59375-88.59375 88.59375-48.89764.00001-88.59375-39.69611-88.59375-88.59375-.00001-48.897639 39.69611-88.5625 88.59375-88.5625z" display="block" transform="rotate(45 268.97410227 117.1283388)"/>
    <rect width="70.866142" height="157.6528" x="212.59842" y="280.64615" fill="url(#g)" stroke="#000" stroke-linejoin="round" stroke-width="7.6124978" display="block" rx="20" ry="20" transform="rotate(45 268.97410227 117.1283388)"/>
    <path fill="url(#h)" d="M248.03149 70.866119a35.433071 35.433071 0 1 1-70.86614 0 35.433071 35.433071 0 1 1 70.86614 0z" display="block" transform="translate(15.92121 6.436221) scale(.93308)"/>
    <path fill="url(#i)" d="M315.0625 109.375c-15.36547 42.0745-55.62842 72.1875-103 72.1875-8.64475 0-17.02349-1.10746-25.09375-3 13.75135 13.16391 32.34998 21.3125 52.875 21.3125 42.25952 0 76.56251-34.30298 76.5625-76.5625 0-4.76122-.51069-9.41608-1.34375-13.9375z" display="block"/>
  </g>
  <g stroke-opacity=".49044582" stroke-width="6.25" display="block" font-family="Verdana" font-size="100" font-style="italic" font-weight="700" writing-mode="lr">
    <text xml:space="preserve" x="377.33917" y="159.90895" transform="matrix(.79162 0 0 1.42771 4.63562 -8.993601)"><tspan x="377.33917" y="159.90895">penStreetMap</tspan></text>
    <text xml:space="preserve" x="377.33917" y="159.90895" stroke="#000" opacity=".69999999" transform="matrix(.79162 0 0 1.42771 6.936464 -4.356031)"><tspan x="377.33917" y="159.90895">penStreetMap</tspan></text>
  </g>
</svg>