<?xml version="1.0" encoding="UTF-8" standalone="no"?>
<svg
   xmlns:dc="http://purl.org/dc/elements/1.1/"
   xmlns:cc="http://creativecommons.org/ns#"
   xmlns:rdf="http://www.w3.org/1999/02/22-rdf-syntax-ns#"
   xmlns:svg="http://www.w3.org/2000/svg"
   xmlns="http://www.w3.org/2000/svg"
   viewBox="0 0 1803.3929 457.64266"
   height="457.64267"
   width="1803.3929"
   xml:space="preserve"
   id="svg92"
   version="1.1"><metadata
     id="metadata98"><rdf:RDF><cc:Work
         rdf:about=""><dc:format>image/svg+xml</dc:format><dc:type
           rdf:resource="http://purl.org/dc/dcmitype/StillImage" /><dc:title></dc:title></cc:Work></rdf:RDF></metadata><defs
     id="defs96"><clipPath
       id="clipPath108"
       clipPathUnits="userSpaceOnUse"><path
         id="path106"
         d="M 0,2000 H 2000 V 0 H 0 Z" /></clipPath><clipPath
       id="clipPath120"
       clipPathUnits="userSpaceOnUse"><path
         id="path118"
         d="m 413.813,993.052 h 135.83 v -79.928 h -135.83 z" /></clipPath></defs><g
     transform="matrix(1.3333333,0,0,-1.3333333,-431.63719,1562.1546)"
     id="g100"><g
       id="g102"><g
         clip-path="url(#clipPath108)"
         id="g104"><g
           transform="translate(630.4209,894.125)"
           id="g110"><path
             id="path112"
             style="fill:#1c4482;fill-opacity:1;fill-rule:nonzero;stroke:none"
             d="m 0,0 c 22.89,29.167 36.538,65.916 36.538,105.875 0,94.801 -76.814,171.616 -171.615,171.616 -94.802,0 -171.616,-76.815 -171.616,-171.616 0,-94.802 76.814,-171.616 171.616,-171.616 40.84,0 78.401,14.284 107.849,38.09 l -55.583,52.127 c -15.058,-9.699 -33.01,-15.342 -52.266,-15.342 -53.433,0 -96.742,43.309 -96.742,96.741 0,53.432 43.309,96.741 96.742,96.741 53.431,0 96.74,-43.309 96.74,-96.741 0,-20.104 -6.137,-38.795 -16.646,-54.278 z" /></g><g
           id="g114"><g
             id="g116" /><g
             id="g128"><g
               id="g126"
               opacity="0.300003"
               clip-path="url(#clipPath120)"><g
                 id="g124"
                 transform="translate(497.7676,913.124)"><path
                   id="path122"
                   style="fill:#1c4482;fill-opacity:1;fill-rule:nonzero;stroke:none"
                   d="m 0,0 c -12.136,0 -24.226,2.612 -34.961,7.56 -16.167,7.37 -29.824,19.723 -38.461,34.786 -6.688,11.543 -10.335,24.755 -10.533,37.582 3.454,-12.581 8.894,-23.937 16.242,-33.875 2.286,-2.994 4.817,-5.987 7.751,-9.16 0.958,-0.895 1.795,-1.714 2.63,-2.533 1.964,-1.925 3.993,-3.912 6.334,-5.573 5.686,-4.844 12.472,-9.043 20.048,-12.38 11.998,-5.444 25.399,-8.325 38.736,-8.325 2.579,0 5.188,0.106 7.754,0.319 l 5.956,0.616 2.339,0.456 c 1.2,0.243 2.402,0.486 3.622,0.685 1.858,0.25 3.66,0.769 5.4,1.268 l 0.64,0.186 c 0.704,0.22 1.378,0.4 2.055,0.576 1.298,0.346 2.64,0.702 3.948,1.264 4.204,1.331 8.262,3.101 12.376,5.164 C 48.349,15.571 44.601,12.903 40.659,10.634 31.704,5.793 24.036,2.928 16.573,1.641 11.139,0.549 5.577,0 0,0" /></g></g></g></g><g
           transform="translate(545.4395,1044.3911)"
           id="g130"><path
             id="path132"
             style="fill:#1fb9ef;fill-opacity:1;fill-rule:nonzero;stroke:none"
             d="m 0,0 h -0.191 c -6.517,0 -9.528,-2.049 -13.342,-4.645 -4.369,-2.972 -9.812,-6.675 -19.932,-6.675 -10.12,0 -15.556,3.703 -19.931,6.675 C -57.211,-2.049 -60.222,0 -66.738,0 c -6.51,0 -9.528,-2.049 -13.343,-4.645 -4.368,-2.972 -9.804,-6.675 -19.925,-6.675 -2.972,0 -5.548,0.317 -7.801,0.85 2.286,3.894 4.955,7.532 7.966,10.859 6.398,0.033 9.396,2.069 13.178,4.645 4.368,2.971 9.804,6.674 19.925,6.674 10.12,0 15.562,-3.703 19.93,-6.674 3.816,-2.596 6.827,-4.645 13.343,-4.645 6.517,0 9.528,2.049 13.343,4.645 2.471,1.68 5.284,3.591 9.086,4.942 C -6.997,7.063 -3.288,3.716 0,0" /></g><g
           transform="translate(561.8125,1007.9219)"
           id="g134"><path
             id="path136"
             style="fill:#1fb9ef;fill-opacity:1;fill-rule:nonzero;stroke:none"
             d="m 0,0 c -1.153,0.698 -2.214,1.417 -3.215,2.102 -3.815,2.596 -6.833,4.645 -13.349,4.645 -6.517,0 -9.528,-2.049 -13.342,-4.645 -4.369,-2.978 -9.812,-6.675 -19.932,-6.675 -10.12,0 -15.557,3.697 -19.932,6.675 -3.814,2.596 -6.825,4.645 -13.341,4.645 -6.51,0 -9.528,-2.049 -13.343,-4.645 -4.368,-2.978 -9.804,-6.675 -19.925,-6.675 -7.702,0 -12.696,2.142 -16.564,4.481 0.481,4.223 1.371,8.335 2.616,12.281 0.204,-0.138 0.408,-0.27 0.606,-0.408 3.815,-2.596 6.826,-4.645 13.342,-4.645 6.51,0 9.527,2.049 13.343,4.645 4.368,2.971 9.804,6.675 19.925,6.675 10.12,0 15.562,-3.704 19.93,-6.675 3.816,-2.596 6.827,-4.645 13.343,-4.645 6.517,0 9.527,2.049 13.343,4.645 4.375,2.971 9.81,6.675 19.931,6.675 5.33,0 9.363,-1.028 12.618,-2.432 C -1.996,10.951 -0.652,5.581 0,0" /></g><g
           transform="translate(561.8193,992.1748)"
           id="g138"><path
             id="path140"
             style="fill:#1fb9ef;fill-opacity:1;fill-rule:nonzero;stroke:none"
             d="m 0,0 c -0.481,-4.224 -1.371,-8.335 -2.616,-12.282 -0.204,0.138 -0.408,0.27 -0.606,0.409 -3.815,2.596 -6.833,4.644 -13.349,4.644 -6.517,0 -9.528,-2.048 -13.342,-4.644 -4.369,-2.979 -9.812,-6.682 -19.932,-6.682 -10.12,0 -15.556,3.703 -19.931,6.682 -3.815,2.596 -6.826,4.644 -13.342,4.644 -6.51,0 -9.528,-2.048 -13.343,-4.644 -4.368,-2.979 -9.804,-6.682 -19.925,-6.682 -5.316,0 -9.349,1.022 -12.604,2.425 -1.95,5.073 -3.301,10.45 -3.953,16.037 1.16,-0.698 2.214,-1.423 3.215,-2.101 3.815,-2.596 6.827,-4.652 13.342,-4.652 6.51,0 9.528,2.056 13.343,4.652 4.368,2.971 9.804,6.674 19.925,6.674 10.12,0 15.562,-3.703 19.93,-6.674 3.816,-2.596 6.827,-4.652 13.343,-4.652 6.517,0 9.528,2.056 13.343,4.652 4.375,2.971 9.811,6.674 19.931,6.674 C -8.862,4.48 -3.868,2.332 0,0" /></g><g
           transform="translate(553.0557,966.0762)"
           id="g142"><path
             id="path144"
             style="fill:#1fb9ef;fill-opacity:1;fill-rule:nonzero;stroke:none"
             d="m 0,0 c -2.286,-3.888 -4.954,-7.524 -7.959,-10.852 -6.411,-0.033 -9.409,-2.076 -13.19,-4.652 -4.37,-2.972 -9.812,-6.674 -19.932,-6.674 -10.12,0 -15.557,3.702 -19.932,6.674 -3.814,2.597 -6.825,4.652 -13.341,4.652 -6.51,0 -9.528,-2.055 -13.343,-4.652 -2.464,-1.68 -5.272,-3.584 -9.073,-4.934 -4.039,2.905 -7.742,6.252 -11.037,9.968 h 0.185 c 6.51,0 9.527,2.049 13.343,4.646 4.368,2.977 9.803,6.674 19.925,6.674 10.12,0 15.562,-3.697 19.93,-6.674 3.816,-2.597 6.826,-4.646 13.343,-4.646 6.517,0 9.527,2.049 13.343,4.646 4.375,2.977 9.81,6.674 19.93,6.674 C -4.829,0.85 -2.26,0.533 0,0" /></g><g
           transform="translate(854.793,1023.6758)"
           id="g146"><path
             id="path148"
             style="fill:#1c4482;fill-opacity:1;fill-rule:nonzero;stroke:none"
             d="m 0,0 c -44.229,10.903 -62.927,18.067 -62.927,41.435 0,21.491 16.204,37.065 49.215,37.065 22.437,0 39.258,-5.602 63.242,-29.285 l 23.985,18.081 c -28.656,33.011 -54.831,40.49 -86.911,40.49 -49.531,0 -79.748,-26.793 -79.748,-67.282 0,-48.284 49.23,-61.064 85.665,-69.775 43.613,-10.588 61.995,-18.382 61.995,-40.805 0,-26.793 -20.56,-44.544 -59.817,-44.544 -43.299,0 -58.872,17.121 -71.953,34.257 l -23.984,-18.067 c 31.463,-39.558 62.296,-46.106 96.252,-46.106 48.914,0 89.718,25.245 89.718,74.46 C 84.732,-21.491 35.202,-8.711 0,0" /></g><g
           transform="translate(1058.2002,1131.4614)"
           id="g150"><path
             id="path152"
             style="fill:#1c4482;fill-opacity:1;fill-rule:nonzero;stroke:none"
             d="m 0,0 v -126.469 c 0,-54.201 -34.257,-95.321 -72.884,-95.321 h -7.794 v -30.532 h 7.794 c 58.242,0 103.102,59.502 103.102,125.853 L 30.218,0 Z" /></g><g
           transform="translate(1287.7705,1131.4614)"
           id="g154"><path
             id="path156"
             style="fill:#1c4482;fill-opacity:1;fill-rule:nonzero;stroke:none"
             d="M 0,0 -69.146,-198.737 -138.618,0 h -32.08 l 87.842,-252.322 h 26.477 L 32.093,0 Z" /></g><g
           transform="translate(1438.292,984.1172)"
           id="g158"><path
             id="path160"
             style="fill:#1fb9ef;fill-opacity:1;fill-rule:nonzero;stroke:none"
             d="m 0,0 h -46.105 c -5.917,0 -10.904,-0.932 -15.259,-2.493 L -21.176,113.388 17.136,3.74 C 15.89,2.493 11.52,0 0,0 M -14.013,139.249 H -28.34 l -85.362,-244.227 h 15.889 l 26.792,76.638 c 0.63,1.246 6.232,13.397 24.614,13.397 h 46.093 c 9.355,0 16.82,1.246 22.436,4.04 l 32.695,-94.075 h 16.204 z" /></g><g
           transform="translate(1544.832,1121.4897)"
           id="g162"><path
             id="path164"
             style="fill:#1fb9ef;fill-opacity:1;fill-rule:nonzero;stroke:none"
             d="m 0,0 c -6.863,0 -12.465,-5.602 -12.465,-12.451 0,-6.862 5.602,-12.465 12.465,-12.465 6.849,0 12.45,5.603 12.45,12.465 C 12.45,-5.602 6.849,0 0,0 M -7.795,-242.35 H 7.779 V -62.296 H -7.795 Z" /></g><g
           transform="translate(1612.0996,990.665)"
           id="g166"><path
             id="path168"
             style="fill:#1fb9ef;fill-opacity:1;fill-rule:nonzero;stroke:none"
             d="M 0,0 V -111.525 H 15.574 V 0 c 0,29.285 21.807,52.955 48.599,52.955 V 68.528 C 28.971,68.528 0,37.38 0,0" /></g></g></g></g></svg>
