<?xml version="1.0" encoding="UTF-8" standalone="no"?>
<svg
   width="270mm"
   height="270mm"
   viewBox="-536.40735 71.053955 270.00026 270.00026"
   version="1.1"
   id="svg126"
   sodipodi:docname="sjvair-app-qr-code.svg"
   inkscape:version="1.4.2 (ebf0e940d0, 2025-05-08)"
   xmlns:inkscape="http://www.inkscape.org/namespaces/inkscape"
   xmlns:sodipodi="http://sodipodi.sourceforge.net/DTD/sodipodi-0.dtd"
   xmlns="http://www.w3.org/2000/svg"
   xmlns:svg="http://www.w3.org/2000/svg">
  <defs
     id="defs126" />
  <sodipodi:namedview
     id="namedview126"
     pagecolor="#ffffff"
     bordercolor="#000000"
     borderopacity="0.25"
     inkscape:showpageshadow="2"
     inkscape:pageopacity="0.0"
     inkscape:pagecheckerboard="true"
     inkscape:deskcolor="#d1d1d1"
     inkscape:document-units="mm"
     showborder="false"
     labelstyle="below"
     inkscape:export-bgcolor="#ffffffff"
     inkscape:zoom="1.1213155"
     inkscape:cx="361.6288"
     inkscape:cy="528.3972"
     inkscape:window-width="2518"
     inkscape:window-height="1508"
     inkscape:window-x="20"
     inkscape:window-y="70"
     inkscape:window-maximized="1"
     inkscape:current-layer="svg126" />
  <path
     id="rect126"
     style="fill:#ffffff;stroke-width:0.291756"
     d="m -536.40735,71.053955 h 270 V 341.05395 h -270 z"
     inkscape:label="bg" />
  <path
     id="path1"
     style="fill:#000000;fill-rule:evenodd;stroke:none;stroke-width:0.873462"
     d="M -526.40735,81.053956 V 91.054153 141.05379 151.054 h 70.00005 V 141.05379 91.054153 81.053956 Z m 89.99998,0 v 10.000197 h 10.00021 V 81.053956 Z m 10.00021,10.000197 v 9.999747 h -20.0004 v 10.0002 h 10.00019 v 9.99975 h 10.00021 v 10.00019 h 9.99974 v -10.00019 h 10.0002 v -9.99975 h -10.0002 v -10.0002 h 10.0002 v 10.0002 h 9.99974 V 101.0539 91.054153 81.053956 h -9.99974 v 10.000197 z m 0,39.999887 h -10.00021 v 9.99975 h 10.00021 z m 0,9.99975 V 151.054 h -10.00021 v -10.00021 h -10.00019 v 10.00021 9.99974 h -39.9999 v 10.0002 h -9.99975 v 10.0002 h 19.99995 v 9.99974 h 19.99996 v -9.99974 h -10.00021 v -10.0002 h 30.00014 v -10.0002 h 10.00021 v 10.0002 10.0002 h 19.99994 v -10.0002 h 9.99974 v 10.0002 9.99974 h -9.99974 v 10.0002 h -10.0002 v 9.99975 h 30.00014 v -9.99975 h 9.99975 v -10.0002 -9.99974 h -9.99975 v -10.0002 -10.0002 -9.99974 h -10.0002 v -10.00021 h -9.99974 v 10.00021 9.99974 h -10.0002 V 151.054 141.05379 Z m 39.99988,10.00021 h 9.99975 v -10.00021 h 10.00021 V 151.054 h 9.99975 v -10.00021 -9.99975 h -9.99975 v -10.00019 h -30.00016 v 10.00019 h 10.0002 v 9.99975 z m 19.99996,0 h -10.00021 v 9.99974 h 10.00021 z m 0,9.99974 v 10.0002 10.0002 9.99974 10.0002 h 9.99975 v -10.0002 h 10.00018 v 10.0002 h -10.00018 v 9.99975 h 10.00018 v 10.0002 h -10.00018 v -10.0002 h -9.99975 v 10.0002 9.99974 h 19.99993 v 10.00021 h -30.00014 v 9.99974 19.99994 h 10.00021 v 10.0002 10.0002 9.99975 19.99994 h -10.00021 v 10.0002 h 19.99996 v -10.0002 -19.99994 h 10.00018 v -9.99975 h 9.99975 v 9.99975 h 10.00021 v 10.00019 9.99975 h 19.99994 V 311.054 h -9.99975 v -10.00019 h 19.99995 v -9.99975 h -10.0002 v -10.0002 -30.00014 -9.99974 h -9.99975 v -10.00021 h -10.00019 v 10.00021 h -10.00021 v -10.00021 h 10.00021 v -9.99974 h -10.00021 v -10.0002 h 10.00021 v -9.99975 h -10.00021 v -10.0002 h 10.00021 v -9.99974 h -10.00021 v -10.0002 -10.0002 z m 39.99989,160.00001 h -10.00021 v 10.0002 h 10.00021 z m -10.00021,0 V 311.054 h -9.99975 v 9.99975 z m -39.99989,0 V 311.054 h -9.99975 v -10.00019 h -10.0002 v 10.00019 9.99975 h -9.99974 v 10.0002 h 19.99994 v -10.0002 z m -29.99969,0 V 311.054 h -10.0002 v -10.00019 -9.99975 -10.0002 h -19.99995 v -19.99995 h 10.00021 v -10.00019 -19.99995 -9.99974 h -10.00021 v -10.0002 h -19.99993 v 10.0002 h 9.99974 v 9.99974 h 10.00019 v 19.99995 h -10.00019 v 10.00019 19.99995 10.0002 h 10.00019 v 9.99975 h -10.00019 v 10.00019 9.99975 10.0002 h 20.0004 v -10.0002 z m -40.00034,-89.99998 h -9.99974 v 10.00021 h 9.99974 z m -9.99974,10.00021 h -19.99996 v 9.99974 h 19.99996 z m -19.99996,0 v -10.00021 h 19.99996 v -9.99974 h -19.99996 v -10.0002 -9.99975 -10.0002 h -30.00014 v 10.0002 h 19.99994 v 9.99975 h -9.99975 v 10.0002 9.99974 h -19.99994 v 10.00021 h 19.99994 v 9.99974 h 9.99975 v -9.99974 z m -39.99989,0 h -10.0002 v 9.99974 h 10.0002 z m 0,-10.00021 v -9.99974 h -10.0002 v 9.99974 z m 0,-9.99974 h 9.99975 v -10.0002 -9.99975 h -19.99995 v 9.99975 h 10.0002 z m 9.99975,-30.00015 v -9.99974 h -9.99975 v -10.0002 h 19.99994 v -10.0002 h -30.00014 v 10.0002 10.0002 9.99974 z m 50.0001,19.99995 v -9.99975 h -10.00021 v 9.99975 z m 0,-9.99975 h 9.99974 v -10.0002 h -9.99974 z m 30.00014,59.99983 v 9.99975 h 9.99974 v -9.99975 z m 9.99974,9.99975 v 10.0002 h 10.0002 v -10.0002 z m 10.0002,0 h 9.99974 v -19.99994 h -9.99974 z m 9.99974,-19.99994 h 10.0002 v -9.99974 h 9.99975 v -10.00021 h -9.99975 v -9.99974 h -19.99994 v 9.99974 h 9.99974 v 10.00021 z m -9.99974,-19.99995 h -10.0002 v 10.00021 h 10.0002 z m 9.99974,39.99989 v 20.0004 h 19.99995 v -20.0004 z m 0,20.0004 h -9.99974 v 9.99975 h 9.99974 z m -29.99968,-109.99992 h -10.00021 v 9.99974 h 10.00021 z m 49.99963,-100.000183 v 10.000197 9.999746 h 10.00021 v 10.0002 h 9.99975 v -10.0002 -9.999747 h -9.99975 V 81.053956 Z m 0,19.999943 h -9.99975 v 10.0002 h 9.99975 z m 30.00014,-19.999943 V 91.054153 141.05379 151.054 h 70.00004 V 141.05379 91.054153 81.053956 Z m -169.99976,10.000197 h 49.99964 v 49.999636 h -49.99964 z m 179.99951,0 h 50.00009 v 49.999636 h -50.00009 z M -506.4074,101.0539 v 30.00014 h 30.00014 V 101.0539 Z m 179.99997,0 v 30.00014 h 30.00014 V 101.0539 Z m 19.99994,59.99984 v 10.0002 h 10.0002 v -10.0002 z m -50.00008,10.0002 h 10.00018 v 10.0002 h -10.00018 z m 70.00002,0 v 10.0002 h -19.99994 v 9.99974 h 10.0002 v 10.0002 9.99975 h 9.99974 v 10.0002 h -19.99994 v 9.99974 h 10.0002 v 10.00021 h 9.99974 v -10.00021 h 10.0002 v -9.99974 -10.0002 -9.99975 h -10.0002 v -10.0002 h 10.0002 v -9.99974 -10.0002 z m -19.99994,50.00009 v -19.99995 h -9.99975 v 19.99995 z m -50.00008,29.99969 h 30.00014 v 30.00014 h -30.00014 v -10.0002 z m 60.00028,0 v 19.99994 h 9.99974 v 10.0002 h 10.0002 v -10.0002 -19.99994 z m -230.00006,10.00019 v 9.99975 50.00009 10.0002 h 70.00005 v -10.0002 -50.00009 -9.99975 z m 179.99996,0 v 9.99975 h 9.99975 v -9.99975 z m -169.99976,9.99975 h 49.99964 v 50.00009 h -49.99964 z m 9.99975,10.0002 V 311.054 h 30.00014 v -30.00014 z m 219.99985,19.99995 V 311.054 h 10.0002 v -10.00019 z m 0,10.00019 h -9.99974 v 9.99975 10.0002 h 19.99994 v -10.0002 h -10.0002 z"
     inkscape:label="qr" />
</svg>
