<?xml version="1.0" encoding="UTF-8" standalone="no"?>
<svg
   version="1.1"
   id="svg92"
   xml:space="preserve"
   width="4.767097in"
   height="4.7671108in"
   viewBox="0 0 457.6413 457.64265"
   sodipodi:docname="sjvair-logo.svg"
   inkscape:export-filename="sjvair-logo.png"
   inkscape:export-xdpi="96"
   inkscape:export-ydpi="96"
   inkscape:version="1.3 (0e150ed, 2023-07-21)"
   xmlns:inkscape="http://www.inkscape.org/namespaces/inkscape"
   xmlns:sodipodi="http://sodipodi.sourceforge.net/DTD/sodipodi-0.dtd"
   xmlns="http://www.w3.org/2000/svg"
   xmlns:svg="http://www.w3.org/2000/svg"
   xmlns:rdf="http://www.w3.org/1999/02/22-rdf-syntax-ns#"
   xmlns:cc="http://creativecommons.org/ns#"
   xmlns:dc="http://purl.org/dc/elements/1.1/"><sodipodi:namedview
     id="namedview1"
     pagecolor="#ffffff"
     bordercolor="#000000"
     borderopacity="0.25"
     inkscape:showpageshadow="2"
     inkscape:pageopacity="0.0"
     inkscape:pagecheckerboard="0"
     inkscape:deskcolor="#d1d1d1"
     inkscape:document-units="in"
     inkscape:zoom="0.42626775"
     inkscape:cx="229.90245"
     inkscape:cy="229.90245"
     inkscape:window-width="1312"
     inkscape:window-height="449"
     inkscape:window-x="0"
     inkscape:window-y="25"
     inkscape:window-maximized="0"
     inkscape:current-layer="svg92" /><metadata
     id="metadata98"><rdf:RDF><cc:Work
         rdf:about=""><dc:format>image/svg+xml</dc:format><dc:type
           rdf:resource="http://purl.org/dc/dcmitype/StillImage" /></cc:Work></rdf:RDF></metadata><defs
     id="defs96"><clipPath
       clipPathUnits="userSpaceOnUse"
       id="clipPath120"><path
         d="m 413.813,993.052 h 135.83 v -79.928 h -135.83 z"
         id="path118" /></clipPath></defs><g
     transform="matrix(1.3333333,0,0,-1.3333333,408.92399,369.98799)"
     id="g110"><path
       id="path112"
       style="fill:#1c4482;fill-opacity:1;fill-rule:nonzero;stroke:none"
       d="m 0,0 c 22.89,29.167 36.538,65.916 36.538,105.875 0,94.801 -76.814,171.616 -171.615,171.616 -94.802,0 -171.616,-76.815 -171.616,-171.616 0,-94.802 76.814,-171.616 171.616,-171.616 40.84,0 78.401,14.284 107.849,38.09 l -55.583,52.127 c -15.058,-9.699 -33.01,-15.342 -52.266,-15.342 -53.433,0 -96.742,43.309 -96.742,96.741 0,53.432 43.309,96.741 96.742,96.741 53.431,0 96.74,-43.309 96.74,-96.741 0,-20.104 -6.137,-38.795 -16.646,-54.278 z" /></g><g
     transform="matrix(1.3333333,0,0,-1.3333333,-431.63719,1562.1546)"
     id="g114"><g
       id="g116" /><g
       id="g128"><g
         id="g126"
         opacity="0.300003"
         clip-path="url(#clipPath120)"><g
           id="g124"
           transform="translate(497.7676,913.124)"><path
             id="path122"
             style="fill:#1c4482;fill-opacity:1;fill-rule:nonzero;stroke:none"
             d="m 0,0 c -12.136,0 -24.226,2.612 -34.961,7.56 -16.167,7.37 -29.824,19.723 -38.461,34.786 -6.688,11.543 -10.335,24.755 -10.533,37.582 3.454,-12.581 8.894,-23.937 16.242,-33.875 2.286,-2.994 4.817,-5.987 7.751,-9.16 0.958,-0.895 1.795,-1.714 2.63,-2.533 1.964,-1.925 3.993,-3.912 6.334,-5.573 5.686,-4.844 12.472,-9.043 20.048,-12.38 11.998,-5.444 25.399,-8.325 38.736,-8.325 2.579,0 5.188,0.106 7.754,0.319 l 5.956,0.616 2.339,0.456 c 1.2,0.243 2.402,0.486 3.622,0.685 1.858,0.25 3.66,0.769 5.4,1.268 l 0.64,0.186 c 0.704,0.22 1.378,0.4 2.055,0.576 1.298,0.346 2.64,0.702 3.948,1.264 4.204,1.331 8.262,3.101 12.376,5.164 C 48.349,15.571 44.601,12.903 40.659,10.634 31.704,5.793 24.036,2.928 16.573,1.641 11.139,0.549 5.577,0 0,0" /></g></g></g></g><g
     transform="matrix(1.3333333,0,0,-1.3333333,295.61546,169.6332)"
     id="g130"><path
       id="path132"
       style="fill:#1fb9ef;fill-opacity:1;fill-rule:nonzero;stroke:none"
       d="m 0,0 h -0.191 c -6.517,0 -9.528,-2.049 -13.342,-4.645 -4.369,-2.972 -9.812,-6.675 -19.932,-6.675 -10.12,0 -15.556,3.703 -19.931,6.675 C -57.211,-2.049 -60.222,0 -66.738,0 c -6.51,0 -9.528,-2.049 -13.343,-4.645 -4.368,-2.972 -9.804,-6.675 -19.925,-6.675 -2.972,0 -5.548,0.317 -7.801,0.85 2.286,3.894 4.955,7.532 7.966,10.859 6.398,0.033 9.396,2.069 13.178,4.645 4.368,2.971 9.804,6.674 19.925,6.674 10.12,0 15.562,-3.703 19.93,-6.674 3.816,-2.596 6.827,-4.645 13.343,-4.645 6.517,0 9.528,2.049 13.343,4.645 2.471,1.68 5.284,3.591 9.086,4.942 C -6.997,7.063 -3.288,3.716 0,0" /></g><g
     transform="matrix(1.3333333,0,0,-1.3333333,317.44612,218.2588)"
     id="g134"><path
       id="path136"
       style="fill:#1fb9ef;fill-opacity:1;fill-rule:nonzero;stroke:none"
       d="m 0,0 c -1.153,0.698 -2.214,1.417 -3.215,2.102 -3.815,2.596 -6.833,4.645 -13.349,4.645 -6.517,0 -9.528,-2.049 -13.342,-4.645 -4.369,-2.978 -9.812,-6.675 -19.932,-6.675 -10.12,0 -15.557,3.697 -19.932,6.675 -3.814,2.596 -6.825,4.645 -13.341,4.645 -6.51,0 -9.528,-2.049 -13.343,-4.645 -4.368,-2.978 -9.804,-6.675 -19.925,-6.675 -7.702,0 -12.696,2.142 -16.564,4.481 0.481,4.223 1.371,8.335 2.616,12.281 0.204,-0.138 0.408,-0.27 0.606,-0.408 3.815,-2.596 6.826,-4.645 13.342,-4.645 6.51,0 9.527,2.049 13.343,4.645 4.368,2.971 9.804,6.675 19.925,6.675 10.12,0 15.562,-3.704 19.93,-6.675 3.816,-2.596 6.827,-4.645 13.343,-4.645 6.517,0 9.527,2.049 13.343,4.645 4.375,2.971 9.81,6.675 19.931,6.675 5.33,0 9.363,-1.028 12.618,-2.432 C -1.996,10.951 -0.652,5.581 0,0" /></g><g
     transform="matrix(1.3333333,0,0,-1.3333333,317.45519,239.25493)"
     id="g138"><path
       id="path140"
       style="fill:#1fb9ef;fill-opacity:1;fill-rule:nonzero;stroke:none"
       d="m 0,0 c -0.481,-4.224 -1.371,-8.335 -2.616,-12.282 -0.204,0.138 -0.408,0.27 -0.606,0.409 -3.815,2.596 -6.833,4.644 -13.349,4.644 -6.517,0 -9.528,-2.048 -13.342,-4.644 -4.369,-2.979 -9.812,-6.682 -19.932,-6.682 -10.12,0 -15.556,3.703 -19.931,6.682 -3.815,2.596 -6.826,4.644 -13.342,4.644 -6.51,0 -9.528,-2.048 -13.343,-4.644 -4.368,-2.979 -9.804,-6.682 -19.925,-6.682 -5.316,0 -9.349,1.022 -12.604,2.425 -1.95,5.073 -3.301,10.45 -3.953,16.037 1.16,-0.698 2.214,-1.423 3.215,-2.101 3.815,-2.596 6.827,-4.652 13.342,-4.652 6.51,0 9.528,2.056 13.343,4.652 4.368,2.971 9.804,6.674 19.925,6.674 10.12,0 15.562,-3.703 19.93,-6.674 3.816,-2.596 6.827,-4.652 13.343,-4.652 6.517,0 9.528,2.056 13.343,4.652 4.375,2.971 9.811,6.674 19.931,6.674 C -8.862,4.48 -3.868,2.332 0,0" /></g><g
     transform="matrix(1.3333333,0,0,-1.3333333,305.77039,274.05306)"
     id="g142"><path
       id="path144"
       style="fill:#1fb9ef;fill-opacity:1;fill-rule:nonzero;stroke:none"
       d="m 0,0 c -2.286,-3.888 -4.954,-7.524 -7.959,-10.852 -6.411,-0.033 -9.409,-2.076 -13.19,-4.652 -4.37,-2.972 -9.812,-6.674 -19.932,-6.674 -10.12,0 -15.557,3.702 -19.932,6.674 -3.814,2.597 -6.825,4.652 -13.341,4.652 -6.51,0 -9.528,-2.055 -13.343,-4.652 -2.464,-1.68 -5.272,-3.584 -9.073,-4.934 -4.039,2.905 -7.742,6.252 -11.037,9.968 h 0.185 c 6.51,0 9.527,2.049 13.343,4.646 4.368,2.977 9.803,6.674 19.925,6.674 10.12,0 15.562,-3.697 19.93,-6.674 3.816,-2.597 6.826,-4.646 13.343,-4.646 6.517,0 9.527,2.049 13.343,4.646 4.375,2.977 9.81,6.674 19.93,6.674 C -4.829,0.85 -2.26,0.533 0,0" /></g></svg>
