<?xml version="1.0" standalone="no"?>
<!DOCTYPE svg PUBLIC "-//W3C//DTD SVG 20010904//EN"
 "http://www.w3.org/TR/2001/REC-SVG-20010904/DTD/svg10.dtd">
<svg version="1.0" xmlns="http://www.w3.org/2000/svg"
 width="554.000000pt" height="554.000000pt" viewBox="0 0 554.000000 554.000000"
 preserveAspectRatio="xMidYMid meet">
<metadata>
Created by potrace 1.11, written by Peter Selinger 2001-2013
</metadata>
<g transform="translate(0.000000,554.000000) scale(0.100000,-0.100000)"
fill="#000000" stroke="none">
<path d="M2545 5050 c-543 -56 -1039 -298 -1421 -692 -335 -347 -545 -772
-620 -1258 -25 -160 -25 -500 0 -660 128 -825 668 -1502 1440 -1805 268 -105
513 -149 826 -149 312 0 560 45 828 149 195 77 458 225 572 324 l35 31 -70 67
c-39 38 -204 193 -368 347 l-298 279 -47 -27 c-123 -70 -259 -122 -402 -153
-119 -25 -381 -25 -500 0 -259 56 -473 171 -661 357 -505 502 -505 1317 0
1820 331 330 799 455 1249 335 407 -109 752 -434 886 -837 117 -350 73 -756
-114 -1064 l-42 -69 54 -49 c29 -27 194 -182 367 -344 l313 -296 19 25 c56 73
157 233 209 332 115 221 196 471 236 727 25 160 25 500 0 660 -156 1006 -928
1781 -1926 1935 -126 19 -440 27 -565 15z"/>
<path d="M2414 3492 c-28 -10 -85 -39 -126 -65 -47 -29 -97 -52 -132 -58 -51
-11 -58 -16 -98 -71 -24 -32 -45 -63 -47 -69 -2 -8 30 -10 105 -7 119 4 94 -5
294 106 109 60 198 52 326 -29 105 -66 163 -82 278 -77 101 5 148 21 251 88
33 21 74 42 90 45 70 16 69 14 48 37 -10 11 -39 38 -65 60 l-47 39 -41 -21
c-23 -12 -65 -36 -95 -55 -107 -69 -211 -70 -317 -4 -128 80 -163 93 -273 96
-77 3 -112 -1 -151 -15z"/>
<path d="M2465 3110 c-62 -13 -93 -27 -184 -83 -81 -50 -88 -52 -165 -55 -73
-3 -87 -1 -139 26 l-57 29 -10 -36 c-5 -20 -12 -54 -16 -77 l-6 -41 53 -22
c33 -15 82 -25 131 -29 104 -7 184 15 285 79 87 55 126 69 194 69 58 0 116
-20 174 -60 98 -68 151 -85 260 -85 116 0 156 12 278 86 133 81 220 80 353 -2
l35 -21 -7 38 c-4 22 -15 67 -26 101 -18 60 -20 63 -61 75 -63 18 -193 15
-254 -6 -28 -9 -80 -36 -115 -58 -88 -57 -118 -68 -191 -68 -78 0 -113 12
-197 66 -36 23 -87 49 -115 59 -60 20 -165 27 -220 15z"/>
<path d="M2433 2705 c-29 -8 -94 -39 -144 -69 -146 -88 -229 -89 -365 -5 l-35
21 7 -38 c4 -22 15 -67 26 -101 18 -60 20 -63 61 -75 63 -18 193 -15 254 6 28
9 80 36 115 58 88 57 118 68 191 68 78 0 113 -12 197 -66 96 -62 149 -78 255
-77 107 0 144 13 263 86 82 50 89 52 166 55 73 3 87 1 139 -26 l57 -29 10 36
c5 20 12 54 16 77 l6 41 -53 22 c-33 15 -82 25 -131 29 -104 7 -184 -15 -285
-79 -87 -55 -126 -69 -194 -69 -58 0 -116 20 -174 60 -87 60 -150 82 -244 86
-56 3 -104 -1 -138 -11z"/>
<path d="M2414 2302 c-28 -10 -84 -39 -125 -64 -41 -26 -88 -49 -104 -53 -71
-16 -69 -14 -48 -37 10 -11 39 -38 65 -60 l47 -39 42 22 c24 12 66 36 93 55
103 68 213 69 318 3 119 -75 166 -92 257 -97 114 -6 174 9 281 74 57 34 111
59 145 66 50 10 57 15 97 70 24 32 45 63 46 68 2 6 -32 10 -85 10 -102 0 -162
-16 -240 -66 -166 -105 -249 -108 -399 -13 -43 27 -101 56 -128 64 -68 20
-198 19 -262 -3z"/>
</g>
</svg>
