<?xml version="1.0" encoding="UTF-8"?>
<!-- Generator: Adobe Illustrator 16.0.0, SVG Export Plug-In . SVG Version: 6.00 Build 0)  -->
<!DOCTYPE svg PUBLIC "-//W3C//DTD SVG 1.1//EN" "http://www.w3.org/Graphics/SVG/1.1/DTD/svg11.dtd">
<svg version="1.1" id="Layer_1" xmlns="http://www.w3.org/2000/svg" xmlns:xlink="http://www.w3.org/1999/xlink" x="0px" y="0px" width="432px" height="108px" viewBox="0 0 432 108" enable-background="new 0 0 432 108" xml:space="preserve">
<g>
	<g>
		<g>
			<path fill="#0066B3" d="M109.502,29.389c-0.251-3.116-1.91-4.021-3.317-4.021c-2.011,0-3.116,1.307-3.116,3.569     c0,6.183,12.667,9.148,12.667,19c0,5.981-4.021,9.3-9.852,9.3c-5.78,0-9.098-4.626-9.35-10.054l5.932-0.854     c0.251,3.669,1.709,5.479,3.72,5.479c2.161,0,3.619-1.156,3.619-3.318c0-7.187-12.667-9.097-12.667-19.502     c0-5.78,3.519-9.047,9.651-9.047c5.077,0,8.093,3.669,8.646,8.796L109.502,29.389z"/>
			<path fill="#0066B3" d="M119.555,37.634c0.301-5.48,3.77-8.445,9.048-8.445c5.228,0,8.193,2.413,8.193,7.338v17.342     c0,0.854,0.201,1.96,0.352,2.864h-5.378c-0.05-0.754-0.251-1.457-0.301-2.11c-2.111,1.709-3.871,2.614-6.585,2.614     c-3.82,0-5.73-2.614-5.73-6.083c0-5.931,3.92-9.198,12.013-12.264v-1.609c0-2.262-0.904-3.469-2.764-3.469     c-2.564,0-3.117,1.508-3.217,3.821H119.555z M131.166,43.011c-5.126,2.916-6.383,4.776-6.383,7.138     c0,1.759,0.905,2.462,2.614,2.462c1.558,0,2.815-1.155,3.77-2.513V43.011z"/>
			<path fill="#0066B3" d="M142.475,56.733V29.691h5.329v2.713c2.362-2.01,3.568-3.216,6.835-3.216c2.966,0,4.725,2.161,4.725,5.68     v21.865h-5.63v-20.96c0-1.357-0.804-1.961-2.01-1.961c-1.207,0-2.313,0.754-3.619,1.709v21.212H142.475z"/>
			<path fill="#0066B3" d="M173.386,51.808h1.307c2.413,0,3.267-1.005,3.267-3.015V20.441h6.233v29.055     c0,4.624-1.86,7.741-8.746,7.741h-2.061V51.808z"/>
			<path fill="#0066B3" d="M189.622,39.242c0-5.931,2.312-10.053,8.746-10.053s8.746,4.122,8.746,10.053v7.942     c0,5.932-2.312,10.054-8.746,10.054s-8.746-4.122-8.746-10.054V39.242z M201.484,38.236c0-3.117-1.105-4.424-3.116-4.424     c-2.011,0-3.116,1.307-3.116,4.424v9.952c0,3.117,1.105,4.423,3.116,4.423c2.011,0,3.116-1.306,3.116-4.423V38.236z"/>
			<path fill="#0066B3" d="M211.638,37.634c0.302-5.48,3.77-8.445,9.046-8.445c5.229,0,8.194,2.413,8.194,7.338v17.342     c0,0.854,0.201,1.96,0.352,2.864h-5.379c-0.05-0.754-0.251-1.457-0.301-2.11c-2.112,1.709-3.871,2.614-6.585,2.614     c-3.822,0-5.731-2.614-5.731-6.083c0-5.931,3.921-9.198,12.013-12.264v-1.609c0-2.262-0.903-3.469-2.764-3.469     c-2.564,0-3.117,1.508-3.217,3.821H211.638z M223.248,43.011c-5.127,2.916-6.383,4.776-6.383,7.138     c0,1.759,0.904,2.462,2.613,2.462c1.558,0,2.814-1.155,3.77-2.513V43.011z"/>
			<path fill="#0066B3" d="M251.445,29.691v35.587h-5.629V54.421c-2.211,1.811-3.368,2.816-5.83,2.816     c-3.519,0-5.73-2.614-5.73-7.541V36.729c0-4.926,2.212-7.54,5.73-7.54c2.814,0,4.172,0.955,6.03,3.317h0.102v-2.815H251.445z      M245.816,35.22c-1.106-0.804-2.11-1.408-3.217-1.408c-1.508,0-2.714,0.805-2.714,4.373v10.054c0,3.568,1.206,4.372,2.714,4.372     c1.106,0,2.11-0.603,3.217-1.406V35.22z"/>
			<path fill="#0066B3" d="M273.764,29.691v27.042h-5.328V54.02c-2.364,2.011-3.568,3.218-6.836,3.218     c-2.967,0-4.726-2.162-4.726-5.681V29.691h5.629v20.96c0,1.357,0.806,1.96,2.011,1.96c1.206,0,2.313-0.753,3.621-1.708V29.691     H273.764z"/>
			<path fill="#0066B3" d="M279.24,25.569v-5.127h5.631v5.127H279.24z M279.24,56.733V29.691h5.631v27.042H279.24z"/>
			<path fill="#0066B3" d="M290.348,56.733V29.691h5.331v2.713c2.361-2.01,3.568-3.216,6.836-3.216c2.964,0,4.724,2.161,4.724,5.68     v21.865h-5.63v-20.96c0-1.357-0.804-1.961-2.01-1.961c-1.207,0-2.313,0.754-3.619,1.709v21.212H290.348z"/>
			<path fill="#0066B3" d="M336.844,20.441h6.132l-7.59,36.292h-6.233l-7.59-36.292h6.132l4.524,25.185h0.1L336.844,20.441z"/>
			<path fill="#0066B3" d="M343.877,37.634c0.302-5.48,3.77-8.445,9.048-8.445c5.228,0,8.193,2.413,8.193,7.338v17.342     c0,0.854,0.2,1.96,0.352,2.864h-5.378c-0.05-0.754-0.251-1.457-0.302-2.11c-2.11,1.709-3.869,2.614-6.584,2.614     c-3.821,0-5.73-2.614-5.73-6.083c0-5.931,3.92-9.198,12.014-12.264v-1.609c0-2.262-0.906-3.469-2.765-3.469     c-2.563,0-3.118,1.508-3.219,3.821H343.877z M355.489,43.011c-5.128,2.916-6.384,4.776-6.384,7.138     c0,1.759,0.904,2.462,2.614,2.462c1.558,0,2.813-1.155,3.77-2.513V43.011z"/>
			<path fill="#0066B3" d="M366.848,56.733V20.441h5.63v36.292H366.848z"/>
			<path fill="#0066B3" d="M378.006,56.733V20.441h5.63v36.292H378.006z"/>
			<path fill="#0066B3" d="M406.305,44.268h-11.863v3.92c0,3.117,1.107,4.423,3.117,4.423c2.011,0,3.116-1.306,3.116-4.423v-0.604     h5.63c-0.101,5.731-2.464,9.652-8.746,9.652c-6.435,0-8.746-4.122-8.746-10.054v-7.942c0-5.931,2.312-10.053,8.746-10.053     c6.434,0,8.746,4.122,8.746,10.053V44.268z M400.675,39.644v-1.407c0-3.117-1.105-4.424-3.116-4.424     c-2.01,0-3.117,1.307-3.117,4.424v1.407H400.675z"/>
			<path fill="#0066B3" d="M422.088,29.691h5.679l-7.087,29.053c-1.206,4.926-3.469,6.485-7.691,6.485h-2.361v-4.624h1.356     c2.814,0,3.72-1.509,3.72-4.374c0-1.106-0.251-2.262-0.604-3.569l-5.881-22.971h5.729l3.621,17.291h0.101L422.088,29.691z"/>
		</g>
		<path fill="#0066B3" d="M98.619,93.772h-3.175l3.519-19.102h4.074l3.519,19.102h-3.175l-0.582-4.232h-3.598L98.619,93.772z     M99.677,86.683h2.646l-1.296-8.202h-0.053L99.677,86.683z"/>
		<path fill="#0066B3" d="M109.043,93.772V74.671h3.281v19.102H109.043z"/>
		<path fill="#0066B3" d="M119.36,93.772h-3.281V74.671h4.604c3.677,0,5.556,1.561,5.556,5.635c0,3.07-1.19,4.313-2.302,4.815    l2.778,8.651h-3.333l-2.328-7.91c-0.423,0.053-1.111,0.079-1.693,0.079V93.772z M119.36,83.243h1.164    c1.773,0,2.434-0.661,2.434-2.938c0-2.274-0.661-2.936-2.434-2.936h-1.164V83.243z"/>
		<path fill="#0066B3" d="M135.445,93.772V74.671h4.709c4.047,0,5.926,1.561,5.926,5.635s-1.879,5.636-5.926,5.636h-1.429v7.831    H135.445z M138.726,83.243h1.271c2.143,0,2.804-0.661,2.804-2.938c0-2.274-0.662-2.936-2.804-2.936h-1.271V83.243z"/>
		<path fill="#0066B3" d="M148.807,79.301c0-2.698,1.587-4.895,5.026-4.895c3.44,0,5.026,2.196,5.026,4.895v9.842    c0,2.699-1.586,4.896-5.026,4.896c-3.439,0-5.026-2.196-5.026-4.896V79.301z M152.086,89.063c0,1.429,0.424,2.116,1.747,2.116    s1.747-0.688,1.747-2.116v-9.683c0-1.429-0.424-2.117-1.747-2.117s-1.747,0.688-1.747,2.117V89.063z"/>
		<path fill="#0066B3" d="M162.008,93.772V74.671h3.281v16.244h5.159v2.857H162.008z"/>
		<path fill="#0066B3" d="M172.432,93.772V74.671h3.281v16.244h5.159v2.857H172.432z"/>
		<path fill="#0066B3" d="M183.015,74.671h3.28V89.09c0,1.402,0.556,2.09,1.747,2.09s1.747-0.688,1.747-2.09V74.671h3.28v14.286    c0,3.28-1.904,5.081-5.026,5.081c-3.122,0-5.026-1.801-5.026-5.081V74.671z"/>
		<path fill="#0066B3" d="M198.279,77.528h-3.174v-2.857h9.63v2.857h-3.174v16.244h-3.281V77.528z"/>
		<path fill="#0066B3" d="M207.248,93.772V74.671h3.281v19.102H207.248z"/>
		<path fill="#0066B3" d="M214.286,79.301c0-2.698,1.588-4.895,5.026-4.895c3.441,0,5.027,2.196,5.027,4.895v9.842    c0,2.699-1.586,4.896-5.027,4.896c-3.438,0-5.026-2.196-5.026-4.896V79.301z M217.566,89.063c0,1.429,0.425,2.116,1.746,2.116    c1.324,0,1.747-0.688,1.747-2.116v-9.683c0-1.429-0.423-2.117-1.747-2.117c-1.321,0-1.746,0.688-1.746,2.117V89.063z"/>
		<path fill="#0066B3" d="M227.647,93.772V74.671h3.042l3.994,10.927h0.055V74.671h2.963v19.102h-2.858l-4.181-11.932h-0.051v11.932    H227.647z"/>
		<path fill="#0066B3" d="M253.628,81.047v-1.482c0-1.612-0.74-2.301-1.587-2.301c-1.324,0-1.747,0.688-1.747,2.117v9.683    c0,1.429,0.423,2.116,1.747,2.116c1.19,0,1.587-0.688,1.587-1.932v-2.301h3.28v2.195c0,2.699-1.588,4.896-4.867,4.896    c-3.44,0-5.027-2.196-5.027-4.896v-9.842c0-2.698,1.587-4.895,5.027-4.895c3.279,0,4.867,2.382,4.867,5.238v1.402H253.628z"/>
		<path fill="#0066B3" d="M260.373,79.301c0-2.698,1.588-4.895,5.027-4.895c3.438,0,5.026,2.196,5.026,4.895v9.842    c0,2.699-1.588,4.896-5.026,4.896c-3.439,0-5.027-2.196-5.027-4.896V79.301z M263.653,89.063c0,1.429,0.425,2.116,1.747,2.116    c1.323,0,1.746-0.688,1.746-2.116v-9.683c0-1.429-0.423-2.117-1.746-2.117c-1.322,0-1.747,0.688-1.747,2.117V89.063z"/>
		<path fill="#0066B3" d="M273.734,93.772V74.671h3.042l3.995,10.927h0.054V74.671h2.963v19.102h-2.858l-4.179-11.932h-0.054v11.932    H273.734z"/>
		<path fill="#0066B3" d="M288.999,77.528h-3.175v-2.857h9.631v2.857h-3.176v16.244h-3.28V77.528z"/>
		<path fill="#0066B3" d="M300.8,93.772h-3.28V74.671h4.603c3.68,0,5.557,1.561,5.557,5.635c0,3.07-1.191,4.313-2.302,4.815    l2.777,8.651h-3.334l-2.327-7.91c-0.423,0.053-1.111,0.079-1.693,0.079V93.772z M300.8,83.243h1.164    c1.773,0,2.435-0.661,2.435-2.938c0-2.274-0.661-2.936-2.435-2.936H300.8V83.243z"/>
		<path fill="#0066B3" d="M310.878,79.301c0-2.698,1.588-4.895,5.026-4.895c3.439,0,5.026,2.196,5.026,4.895v9.842    c0,2.699-1.587,4.896-5.026,4.896c-3.438,0-5.026-2.196-5.026-4.896V79.301z M314.158,89.063c0,1.429,0.425,2.116,1.746,2.116    c1.324,0,1.747-0.688,1.747-2.116v-9.683c0-1.429-0.423-2.117-1.747-2.117c-1.321,0-1.746,0.688-1.746,2.117V89.063z"/>
		<path fill="#0066B3" d="M324.08,93.772V74.671h3.281v16.244h5.158v2.857H324.08z"/>
		<path fill="#0066B3" d="M340.668,74.671h4.868c3.386,0,5.186,1.852,5.186,5.768v7.566c0,3.916-1.8,5.768-5.186,5.768h-4.868    V74.671z M343.948,91.074h1.138c1.746,0,2.355-0.661,2.355-2.673v-8.36c0-2.01-0.609-2.671-2.355-2.671h-1.138V91.074z"/>
		<path fill="#0066B3" d="M354.48,93.772V74.671h3.281v19.102H354.48z"/>
		<path fill="#0066B3" d="M367.497,79.381c-0.133-1.641-1.006-2.117-1.745-2.117c-1.059,0-1.642,0.688-1.642,1.878    c0,3.255,6.667,4.816,6.667,10.001c0,3.148-2.116,4.896-5.185,4.896c-3.042,0-4.788-2.435-4.921-5.291l3.121-0.45    c0.133,1.93,0.9,2.883,1.959,2.883c1.137,0,1.904-0.607,1.904-1.746c0-3.783-6.667-4.788-6.667-10.265    c0-3.043,1.852-4.763,5.08-4.763c2.671,0,4.258,1.931,4.55,4.63L367.497,79.381z"/>
		<path fill="#0066B3" d="M375.301,77.528h-3.175v-2.857h9.631v2.857h-3.176v16.244h-3.28V77.528z"/>
		<path fill="#0066B3" d="M387.1,93.772h-3.279V74.671h4.604c3.678,0,5.557,1.561,5.557,5.635c0,3.07-1.191,4.313-2.302,4.815    l2.777,8.651h-3.334l-2.327-7.91c-0.425,0.053-1.111,0.079-1.695,0.079V93.772z M387.1,83.243h1.166    c1.771,0,2.435-0.661,2.435-2.938c0-2.274-0.663-2.936-2.435-2.936H387.1V83.243z"/>
		<path fill="#0066B3" d="M397.63,93.772V74.671h3.28v19.102H397.63z"/>
		<path fill="#0066B3" d="M411.28,81.047v-1.482c0-1.612-0.741-2.301-1.587-2.301c-1.324,0-1.746,0.688-1.746,2.117v9.683    c0,1.429,0.422,2.116,1.746,2.116c1.191,0,1.587-0.688,1.587-1.932v-2.301h3.28v2.195c0,2.699-1.587,4.896-4.867,4.896    c-3.438,0-5.027-2.196-5.027-4.896v-9.842c0-2.698,1.589-4.895,5.027-4.895c3.28,0,4.867,2.382,4.867,5.238v1.402H411.28z"/>
		<path fill="#0066B3" d="M419.933,77.528h-3.175v-2.857h9.63v2.857h-3.174v16.244h-3.281V77.528z"/>
	</g>
	<g>
		<g>
			<path fill-rule="evenodd" clip-rule="evenodd" fill="#FFFFFF" d="M77.158,88.639c0,3.299-2.673,5.972-5.972,5.972H10.695     c-3.298,0-5.972-2.673-5.972-5.972V25.107c0-3.298,2.674-5.973,5.972-5.973h60.491c3.298,0,5.972,2.675,5.972,5.973V88.639z"/>
			<path fill="#FFFFFF" d="M71.186,95.854H10.695c-3.979,0-7.216-3.237-7.216-7.216V25.107c0-3.979,3.237-7.217,7.216-7.217h60.491     c3.979,0,7.216,3.237,7.216,7.217v63.532C78.402,92.617,75.165,95.854,71.186,95.854z"/>
		</g>
		<g>
			<g>
				<path fill-rule="evenodd" clip-rule="evenodd" fill="#009A65" d="M62.3,48.986l0.494,3.242l2.375-2.856l2.869,4.933l1.759-2.195      l3.479,3.202c0,0,1.494-4.819,1.494-4.937c0.112,0,2.388,2.075,2.388,2.075v36.804c0,0-0.726,5.391-6.324,5.391      c-5.244,0-57.503,0-60.373,0s-5.737-3.006-5.737-5.528c0,0,0-19.437,0-19.941l9.678-11.4L37.244,81.1L62.3,48.986L62.3,48.986"/>
				<path fill-rule="evenodd" clip-rule="evenodd" fill="#0066B3" d="M71.317,19.1c3.56,0,5.84,3.352,5.84,5.736v25.089      L65.521,40.66L36.316,78.134L13.394,54.961l-8.67,10.413c0,0,0-33.021,0-40.502c0-2.039,1.992-5.618,5.633-5.738L71.317,19.1z"/>
				<path fill-rule="evenodd" clip-rule="evenodd" fill="#FFFFFF" d="M24.975,21.917V20.43H16.23c0-0.003,0-0.007,0.001-0.01h-4.37      c-2.8-0.023-6.273,1.013-5.94,7.244c0,0,0.006,0.001,0.008,0.001l-0.097,8.167l1.487,0.018l0.095-8.007      c0.214,0.012,0.448,0.017,0.693,0.017l0.366,5.598l1.485-0.097l-0.367-5.598c0.208-0.027,0.418-0.056,0.632-0.098l2.547,7.373      l1.406-0.485l-2.519-7.292c0.224-0.085,0.446-0.184,0.665-0.292l3.327,4.937l1.233-0.833l-3.307-4.906      c0.195-0.158,0.382-0.333,0.563-0.52l5.906,5.065l0.969-1.13l-5.97-5.119c0.107-0.179,0.209-0.368,0.305-0.566l5.658,2.036      l0.504-1.402l-5.645-2.028c0.053-0.19,0.103-0.383,0.146-0.586H24.975z"/>
			</g>
		</g>
	</g>
</g>
</svg>