<?xml version="1.0" encoding="UTF-8" standalone="no"?>
<!-- Generator: Adobe Illustrator 21.0.0, SVG Export Plug-In . SVG Version: 6.00 Build 0)  -->
<svg xmlns:dc="http://purl.org/dc/elements/1.1/" xmlns:cc="http://creativecommons.org/ns#" xmlns:rdf="http://www.w3.org/1999/02/22-rdf-syntax-ns#" xmlns:svg="http://www.w3.org/2000/svg" xmlns="http://www.w3.org/2000/svg" xmlns:sodipodi="http://sodipodi.sourceforge.net/DTD/sodipodi-0.dtd" xmlns:inkscape="http://www.inkscape.org/namespaces/inkscape" version="1.1" id="Layer_1" x="0px" y="0px" viewBox="0 0 255 145" style="enable-background:new 0 0 255 145;" xml:space="preserve" sodipodi:docname="AirNow_Forum_Logo_Blue.svg" inkscape:version="0.92.2 (5c3e80d, 2017-08-06)">
  <defs id="defs63"/>
  <style type="text/css" id="style2">
	.st0{fill:#FFFFFF;}
	.st1{fill:#FFFF00;}
	.st2{fill:#FF7E00;}
	.st3{fill:#FF0000;}
	.st4{fill:#99004C;}
	.st5{fill:#00E400;}
</style>
  <g id="g14" style="fill:#173bad;fill-opacity:1">
    <g id="g12" style="fill:#173bad;fill-opacity:1">
      <g id="g6" style="fill:#173bad;fill-opacity:1">
        <path class="st0" d="M147.9,45.4h-9.8l-0.1-0.2c-13.3-15.5-36.2-20.1-61.3-12.5l-1,0.3l0.6-1.3l0.2-0.1     c28.5-8.7,55-3.9,70.7,12.9L147.9,45.4z" id="path4" style="fill:#173bad;fill-opacity:1"/>
      </g>
      <g id="g10" style="fill:#173bad;fill-opacity:1">
        <path class="st0" d="M150,103.1l-0.6,0.8C133,124.9,100.7,136,57.7,136c-14.8,0-30.9-1.3-48.1-4c0,0,0,0,0,0h0c0,0,0,0,0,0     l0.1-0.5l0.1-0.5c0.1,0,0.2,0,0.3,0c60,9.3,106.6-0.8,127.7-27.8l0.1-0.2H150z" id="path8" style="fill:#173bad;fill-opacity:1"/>
      </g>
    </g>
  </g>
  <g id="g18" style="fill:#173bad;fill-opacity:1">
    <path class="st0" d="M178.8,14.2l-0.1,0.5l-0.1,0.5c0,0,0,0,0,0c-35.3-5.5-65.3-4.5-89.1,2.9c-20,6.3-34.8,17-43,31   c-9.7,16.5-8.6,36.4,2.6,50.6c13.1,16.6,36.5,21.8,62.5,13.9l1-0.3l-0.6,1.3l-0.2,0.1c-9.3,2.8-18.5,4.3-27.2,4.3   c-6,0-11.8-0.7-17.2-2.1c-12-3.1-22-9.4-29-18.2c-11.7-14.8-13-34.1-3.4-50.5c8.5-14.5,24.4-25.5,46.2-31.8   c25.8-7.5,58.6-8.1,97.4-2.1C178.7,14.2,178.8,14.2,178.8,14.2z" id="path16" style="fill:#173bad;fill-opacity:1"/>
  </g>
  <rect x="160.3" y="99.8" class="st1" width="22.3" height="3.8" id="rect20"/>
  <rect x="182.5" y="99.8" class="st2" width="22.3" height="3.8" id="rect22"/>
  <rect x="204.8" y="99.8" class="st3" width="22.3" height="3.8" id="rect24"/>
  <rect x="227.1" y="99.8" class="st4" width="22.3" height="3.8" id="rect26"/>
  <polygon class="st5" points="160.3,103.5 160.3,99.8 139.8,99.8 137.4,103.5 " id="polygon28"/>
  <g id="g58" style="fill:#173bad;fill-opacity:1">
    <g id="g56" style="fill:#173bad;fill-opacity:1">
      <g id="g32" style="fill:#173bad;fill-opacity:1">
        <path class="st0" d="M85.6,53.9h-6.5L66.2,92h6L76,80.3h12.5l4,11.7h6.1L85.6,53.9z M77.3,75.6l3.4-10.1c0.5-1.6,1-3.2,1.5-5.2     c0.4,1.7,0.9,3.4,1.5,5.2l3.4,10.1H77.3z" id="path30" style="fill:#173bad;fill-opacity:1"/>
      </g>
      <g id="g38" style="fill:#173bad;fill-opacity:1">
        <path class="st0" d="M110.3,57.3c0,0.9-0.3,1.8-0.9,2.4c-0.7,0.7-1.6,1-2.7,1c-1.9,0-3.4-1.5-3.4-3.5c0-2,1.5-3.5,3.5-3.5     S110.3,55.3,110.3,57.3z" id="path34" style="fill:#173bad;fill-opacity:1"/>
        <rect x="104" y="64.3" class="st0" width="5.8" height="27.6" id="rect36" style="fill:#173bad;fill-opacity:1"/>
      </g>
      <g id="g42" style="fill:#173bad;fill-opacity:1">
        <path class="st0" d="M132.3,64v5.5l-0.6-0.1c-0.5-0.1-1-0.2-1.5-0.2c-3.1,0-5.4,2.2-6,5.8c-0.1,0.7-0.2,1.4-0.2,2.2V92h-5.7V73.1     c0-3.5-0.1-6-0.2-8.3l0-0.5h5.2l0.1,4c1.5-2.9,4.2-4.6,7.2-4.6c0.5,0,1,0,1.5,0.2L132.3,64z" id="path40" style="fill:#173bad;fill-opacity:1"/>
      </g>
      <g id="g46" style="fill:#173bad;fill-opacity:1">
        <path class="st0" d="M166.6,53.9V92H161l-11.9-19.1c-2.6-4.2-4.6-7.6-6.1-10.7c0.2,4,0.3,8.1,0.3,13.4V92h-5.5V53.9h6l12,19     c2.2,3.5,4.1,6.9,5.7,10.1c-0.3-4.3-0.4-8.4-0.4-13.1v-16H166.6z" id="path44" style="fill:#173bad;fill-opacity:1"/>
      </g>
      <g id="g50" style="fill:#173bad;fill-opacity:1">
        <path class="st0" d="M187,63.8c-8.2,0-13.7,5.9-13.7,14.6c0,8.4,5.5,14.2,13.3,14.2c6.8,0,13.8-4.5,13.8-14.6     C200.3,69.5,195,63.8,187,63.8z M186.8,88c-4.4,0-7.6-4.1-7.6-9.8c0-4.9,2.4-9.9,7.7-9.9c5.2,0,7.5,5.1,7.5,9.8     C194.4,83.8,191.2,88,186.8,88z" id="path48" style="fill:#173bad;fill-opacity:1"/>
      </g>
      <g id="g54" style="fill:#173bad;fill-opacity:1">
        <path class="st0" d="M243.3,64.3L234.4,92h-5.1l-4.2-13.1c-0.8-2.4-1.4-4.6-2-7c-0.6,2.6-1.3,4.9-2,7l-4.4,13h-5.1l-8.3-27.6h6     l3.6,14c0.6,2.3,1.2,4.5,1.6,6.6c0.6-2.2,1.3-4.5,1.9-6.7l4.5-14h4.8L230,78c0.8,2.6,1.4,4.8,1.9,6.9c0.5-2.3,1.1-4.7,1.7-6.9     l3.9-13.7H243.3z" id="path52" style="fill:#173bad;fill-opacity:1"/>
      </g>
    </g>
  </g>
</svg>