<?xml version="1.0" encoding="UTF-8" standalone="no"?>
<!-- Generator: Adobe Illustrator 26.5.0, SVG Export Plug-In . SVG Version: 6.00 Build 0)  -->

<svg
   version="1.1"
   id="Capa_1"
   x="0px"
   y="0px"
   viewBox="0 0 320 129"
   xml:space="preserve"
   width="320"
   height="129"
   xmlns="http://www.w3.org/2000/svg"
   xmlns:svg="http://www.w3.org/2000/svg"><defs
   id="defs40" />
<style
   type="text/css"
   id="style1">
	.st0{fill:#5C6670;}
</style>
<g
   id="g40"
   style="fill:#0e6cb6;fill-opacity:1"
   transform="translate(0,-35.6)">
	<path
   class="st0"
   d="m 48.6,58.6 c -1.3,1.3 -2.7,1.9 -4.6,1.9 -2,0 -3.3,-0.6 -4.7,-1.9 -1.3,1.3 -2.7,1.9 -4.6,1.9 -1.9,0 -3.3,-0.6 -4.6,-1.9 -1.3,1.3 -2.7,1.9 -4.6,1.9 -2,0 -3.3,-0.6 -4.7,-1.9 -1.3,1.3 -2.7,1.9 -4.6,1.9 -1.7,0 -2.9,-0.4 -4,-1.4 -0.3,-0.3 -0.5,-0.5 -0.5,-0.5 h -0.1 c 2.1,8 9.8,14.4 18.5,14.4 8.6,-0.1 16.4,-6.4 18.5,-14.4 z"
   id="path1"
   style="fill:#0e6cb6;fill-opacity:1" />
	<path
   class="st0"
   d="m 24.7,49.3 c 0,-3 2.5,-5.4 5.4,-5.4 3,0 5.5,2.4 5.5,5.4 0,2.2 -1.4,4.1 -3.3,5 H 48.7 C 48.7,44 40.4,35.6 30.1,35.6 19.8,35.6 11.4,44 11.4,54.3 h 16.8 c -2.1,-0.8 -3.5,-2.7 -3.5,-5 z"
   id="path2"
   style="fill:#0e6cb6;fill-opacity:1" />
	<path
   class="st0"
   d="M 31.3,95.6 C 47.2,94.7 60.1,81.5 60.1,65.4 44,66 31.6,79.7 31.3,95.6 Z"
   id="path3"
   style="fill:#0e6cb6;fill-opacity:1" />
	<path
   class="st0"
   d="M 0,65.4 C 0,81.4 13,94.7 28.9,95.6 28.6,79.7 16.1,66 0,65.4 Z"
   id="path4"
   style="fill:#0e6cb6;fill-opacity:1" />
	<polygon
   class="st0"
   points="77.4,69.9 103.3,69.9 103.3,60.9 77.4,60.9 77.4,45.8 103.3,45.8 103.3,36.9 65.5,36.9 65.5,94.2 103.3,94.2 103.3,85.4 77.4,85.4 "
   id="polygon4"
   style="fill:#0e6cb6;fill-opacity:1" />
	<path
   class="st0"
   d="M 118.2,69.9 H 133 c 8.8,0 15.2,-7.9 15.2,-16.7 -0.1,-8.7 -6.5,-16.3 -15.2,-16.3 h -26.8 v 57.3 h 12 z m 10.9,-24.1 c 3.9,0 6.5,3.6 6.5,7.5 0,3.9 -2.6,7.6 -6.5,7.6 H 118.2 V 45.8 Z"
   id="path5"
   style="fill:#0e6cb6;fill-opacity:1" />
	<path
   class="st0"
   d="m 148.8,94.2 5.6,-15.1 h 22.8 l 5.5,15.1 h 12.8 L 172.6,36.9 H 158.1 L 136,94.2 Z m 17,-46.3 8,21.8 h -16.1 z"
   id="path6"
   style="fill:#0e6cb6;fill-opacity:1" />
	<path
   class="st0"
   d="m 65.5,101.5 v 9.5 c 0,1.1 0.1,2 0.3,2.6 0.2,0.6 0.4,1 0.6,1.4 0.8,1 1.6,1.7 2.7,2 1,0.3 1.9,0.5 2.6,0.5 0.6,0 1.3,-0.1 2.3,-0.4 0.9,-0.3 1.8,-0.9 2.6,-1.8 0.6,-0.8 0.9,-1.6 1.1,-2.3 0.1,-0.4 0.1,-0.7 0.2,-1 0,-0.3 0,-0.6 0,-0.7 v -9.6 h -2 v 9.6 c 0,0.3 0,0.7 -0.1,1.1 -0.1,0.5 -0.2,1 -0.4,1.5 -0.2,0.5 -0.6,0.9 -1.2,1.3 -0.6,0.4 -1.4,0.6 -2.4,0.6 -0.5,0 -1.1,-0.1 -1.8,-0.3 -0.6,-0.2 -1.2,-0.6 -1.7,-1.2 -0.2,-0.2 -0.3,-0.5 -0.4,-1 -0.2,-0.4 -0.2,-1 -0.2,-1.8 v -9.6 h -2.2 z"
   id="path7"
   style="fill:#0e6cb6;fill-opacity:1" />
	<path
   class="st0"
   d="m 91.1,117.2 0.2,-7.3 c 0,-0.8 -0.1,-1.5 -0.4,-2 -0.3,-0.5 -0.6,-0.9 -1,-1.1 -0.4,-0.3 -0.8,-0.4 -1.2,-0.5 -0.4,-0.1 -0.8,-0.1 -1,-0.1 -0.6,0 -1.1,0 -1.5,0.2 -0.4,0.1 -0.8,0.3 -1,0.6 -0.3,0.2 -0.5,0.4 -0.6,0.6 -0.1,0.2 -0.3,0.4 -0.3,0.5 v -1.7 h -2 v 1.3 l -0.2,9.6 h 2 l 0.1,-6.2 c 0,-1.1 0.3,-1.9 0.9,-2.4 0.5,-0.5 1.2,-0.8 1.9,-0.7 0.7,0 1.3,0.3 1.8,0.8 0.2,0.2 0.4,0.5 0.5,0.8 0.1,0.3 0.1,0.7 0.1,1 l -0.2,6.9 z"
   id="path8"
   style="fill:#0e6cb6;fill-opacity:1" />
	<rect
   x="95.300003"
   y="106.2"
   class="st0"
   width="2"
   height="10.8"
   id="rect8"
   style="fill:#0e6cb6;fill-opacity:1" />
	<rect
   x="95.099998"
   y="101.6"
   class="st0"
   width="2.4000001"
   height="2.2"
   id="rect9"
   style="fill:#0e6cb6;fill-opacity:1" />
	<path
   class="st0"
   d="m 103.4,103.3 -1.9,0.7 v 2.3 h -1.8 v 1.5 h 1.8 v 7.2 c 0,0.9 0.2,1.5 0.7,1.8 0.4,0.3 1.1,0.5 2,0.5 0.7,0 1.3,-0.1 1.6,-0.1 v -1.6 c -0.2,0.1 -0.5,0.1 -0.9,0.1 -0.3,0 -0.6,-0.1 -0.8,-0.2 -0.2,-0.1 -0.4,-0.2 -0.4,-0.4 -0.1,-0.2 -0.1,-0.3 -0.2,-0.5 0,-0.2 0,-0.3 0,-0.4 v -6.5 h 2.3 v -1.5 h -2.3 v -2.9 z"
   id="path9"
   style="fill:#0e6cb6;fill-opacity:1" />
	<path
   class="st0"
   d="m 117,113.7 h -2 c -0.1,0.8 -0.4,1.4 -0.8,1.7 -0.4,0.4 -1,0.5 -1.7,0.5 -1.1,0 -1.8,-0.4 -2.3,-1.1 -0.5,-0.7 -0.7,-1.6 -0.7,-2.8 h 7.5 c 0,-0.5 0,-1.1 0,-1.7 0,-0.7 -0.2,-1.3 -0.5,-2 -0.3,-0.7 -0.7,-1.2 -1.3,-1.7 -0.7,-0.4 -1.6,-0.7 -2.7,-0.7 -0.3,0 -0.7,0 -1.3,0.1 -0.5,0.1 -1.1,0.3 -1.6,0.7 -0.8,0.6 -1.3,1.3 -1.6,2.2 -0.3,0.9 -0.4,1.8 -0.4,2.9 0,3.6 1.6,5.5 4.9,5.6 0.5,0 1,-0.1 1.4,-0.2 0.4,-0.1 0.7,-0.2 1,-0.4 0.3,-0.2 0.5,-0.3 0.7,-0.5 0.2,-0.2 0.3,-0.3 0.4,-0.4 0.4,-0.4 0.6,-0.9 0.7,-1.3 0.2,-0.3 0.3,-0.7 0.3,-0.9 z m -7.1,-4.6 c 0.2,-0.4 0.4,-0.8 0.7,-1 0.3,-0.3 0.6,-0.4 0.9,-0.6 0.3,-0.1 0.7,-0.1 1,-0.1 0.6,0 1.1,0.1 1.5,0.3 0.3,0.2 0.6,0.5 0.8,0.9 0.2,0.3 0.3,0.7 0.3,1.1 0,0.2 0,0.3 0,0.5 0,0.2 0,0.3 0,0.5 h -5.5 c 0,-0.7 0.1,-1.2 0.3,-1.6 z"
   id="path10"
   style="fill:#0e6cb6;fill-opacity:1" />
	<path
   class="st0"
   d="m 129.6,115.3 v -13.8 h -2 v 6.1 c -0.1,-0.1 -0.2,-0.3 -0.3,-0.5 -0.1,-0.2 -0.3,-0.4 -0.6,-0.6 -0.3,-0.2 -0.6,-0.4 -0.9,-0.5 -0.4,-0.1 -0.9,-0.2 -1.4,-0.2 -1.3,0 -2.4,0.5 -3.3,1.4 -0.9,1 -1.4,2.5 -1.5,4.5 0,1.2 0.2,2.1 0.5,2.9 0.3,0.7 0.7,1.3 1.2,1.7 0.5,0.4 1,0.6 1.5,0.8 0.3,0.1 0.5,0.1 0.7,0.1 0.2,0 0.4,0.1 0.6,0.1 0.2,0 0.4,0 0.6,-0.1 0.2,0 0.4,-0.1 0.7,-0.1 0.5,-0.1 0.9,-0.3 1.3,-0.6 0.3,-0.2 0.5,-0.4 0.6,-0.6 0.1,-0.2 0.2,-0.4 0.3,-0.5 v 1.7 h 2 c 0,-0.8 0,-1.4 0,-1.8 z m -1.9,-3.8 c 0,0.2 0,0.5 0,1 0,0.5 -0.2,1 -0.3,1.5 -0.2,0.5 -0.5,0.9 -0.9,1.3 -0.4,0.4 -1,0.6 -1.8,0.6 -0.6,0 -1.1,-0.1 -1.4,-0.4 -0.4,-0.2 -0.7,-0.6 -0.9,-1 -0.2,-0.4 -0.4,-0.9 -0.4,-1.3 -0.1,-0.5 -0.1,-1 -0.1,-1.5 0,-0.2 0,-0.6 0.1,-1 0,-0.5 0.1,-0.9 0.3,-1.5 0.2,-0.5 0.5,-1 0.9,-1.3 0.4,-0.4 0.9,-0.5 1.7,-0.6 0.6,0 1,0.1 1.4,0.3 0.4,0.2 0.7,0.5 0.9,0.8 0.2,0.3 0.4,0.6 0.6,1.1 -0.2,0.5 -0.1,1.2 -0.1,2 z"
   id="path11"
   style="fill:#0e6cb6;fill-opacity:1" />
	<path
   class="st0"
   d="m 148.8,116 c 1,-0.9 1.5,-2 1.5,-3.5 0,-0.4 -0.1,-0.8 -0.2,-1.4 -0.1,-0.3 -0.3,-0.6 -0.5,-0.9 -0.2,-0.3 -0.5,-0.5 -0.8,-0.8 -0.2,-0.2 -0.4,-0.3 -0.6,-0.4 -0.2,-0.1 -0.5,-0.2 -0.8,-0.3 -0.6,-0.2 -1.7,-0.5 -3.5,-0.9 -0.9,-0.2 -1.6,-0.5 -2,-0.8 -0.5,-0.3 -0.7,-0.8 -0.7,-1.5 0,-1.6 1.1,-2.5 3.3,-2.5 0.8,0 1.5,0.1 2.1,0.5 0.6,0.3 1,1 1,1.9 h 2.2 c 0,-0.3 0,-0.7 -0.1,-1.2 -0.1,-0.2 -0.1,-0.5 -0.3,-0.7 -0.1,-0.2 -0.3,-0.5 -0.5,-0.7 -0.6,-0.7 -1.4,-1.1 -2.2,-1.3 -0.8,-0.2 -1.5,-0.2 -2.1,-0.2 -1.5,0 -2.8,0.4 -3.9,1.1 -1.2,0.7 -1.8,1.9 -1.8,3.5 0,0.5 0.1,1 0.3,1.6 0.2,0.5 0.6,1 1.2,1.5 0.6,0.4 2,0.9 4.1,1.4 1.1,0.2 1.9,0.5 2.5,0.8 0.3,0.2 0.5,0.4 0.7,0.7 0.1,0.3 0.2,0.7 0.2,1.1 0,0.2 0,0.4 -0.1,0.7 -0.1,0.3 -0.2,0.6 -0.5,0.9 -0.2,0.3 -0.6,0.6 -1.1,0.8 -0.5,0.2 -1.1,0.3 -1.9,0.3 -0.8,0 -1.5,-0.1 -2,-0.3 -0.5,-0.2 -0.9,-0.5 -1.1,-0.8 -0.2,-0.3 -0.4,-0.7 -0.4,-1 -0.1,-0.3 -0.1,-0.6 -0.1,-0.9 h -2.2 c 0,0.4 0,0.8 0.1,1.4 0.1,0.6 0.3,1.2 0.7,1.7 0.3,0.4 0.7,0.7 1.1,0.9 0.4,0.2 0.8,0.4 1.3,0.5 0.9,0.2 1.7,0.3 2.3,0.3 2.3,-0.1 3.8,-0.6 4.8,-1.5 z"
   id="path12"
   style="fill:#0e6cb6;fill-opacity:1" />
	<path
   class="st0"
   d="m 158.4,107.7 v -1.5 H 156 v -2.9 l -1.9,0.7 v 2.3 h -1.8 v 1.5 h 1.8 v 7.2 c 0,0.9 0.2,1.5 0.7,1.8 0.4,0.3 1.1,0.5 2,0.5 0.7,0 1.3,-0.1 1.6,-0.1 v -1.6 c -0.2,0.1 -0.5,0.1 -0.9,0.1 -0.3,0 -0.6,-0.1 -0.8,-0.2 -0.2,-0.1 -0.4,-0.2 -0.4,-0.4 -0.1,-0.2 -0.1,-0.3 -0.2,-0.5 0,-0.2 0,-0.3 0,-0.4 v -6.5 z"
   id="path13"
   style="fill:#0e6cb6;fill-opacity:1" />
	<path
   class="st0"
   d="m 165.6,117.1 c 0.3,-0.1 0.6,-0.3 0.9,-0.6 0.3,-0.3 0.5,-0.6 0.7,-1 0,0.5 0,1.1 0.2,1.6 h 1.8 c -0.1,-1.4 -0.2,-2.3 -0.2,-2.7 l 0.1,-5.2 c 0,-0.3 0,-0.5 0,-0.8 0,-0.3 -0.2,-0.5 -0.3,-0.9 -0.3,-0.6 -0.8,-1 -1.5,-1.2 -0.7,-0.2 -1.4,-0.4 -2.2,-0.4 -0.6,0 -1.2,0.1 -1.8,0.2 -0.3,0.1 -0.6,0.2 -0.9,0.3 -0.3,0.1 -0.5,0.3 -0.7,0.6 -0.3,0.4 -0.5,0.7 -0.6,1.1 -0.1,0.4 -0.2,0.7 -0.2,1 h 2 c 0,-0.1 0,-0.3 0.1,-0.5 0,-0.2 0.1,-0.4 0.2,-0.6 0.1,-0.2 0.4,-0.4 0.7,-0.5 0.3,-0.1 0.7,-0.2 1.1,-0.2 0.3,0 0.6,0.1 1,0.2 0.3,0.1 0.6,0.3 0.8,0.6 0.3,0.4 0.4,1.2 0.4,2.4 -0.5,0 -1,-0.1 -1.4,-0.1 -0.4,0 -1,0 -1.7,0.1 -0.7,0.1 -1.3,0.3 -1.9,0.6 -0.8,0.5 -1.3,1 -1.5,1.6 -0.3,0.6 -0.4,1.1 -0.3,1.6 0,0.9 0.3,1.6 1,2.2 0.6,0.6 1.5,0.9 2.7,0.9 0.4,0 0.9,-0.1 1.5,-0.3 z m -2.9,-2 c -0.2,-0.2 -0.3,-0.4 -0.3,-0.6 -0.1,-0.2 -0.1,-0.4 -0.1,-0.6 0,-0.5 0.2,-1 0.5,-1.3 0.3,-0.3 0.7,-0.5 1.1,-0.6 0.4,-0.1 0.9,-0.2 1.3,-0.2 0.4,0 0.7,0 0.9,0 0.4,0 0.8,0 1.1,0.1 0,0.7 0,1.3 -0.1,1.7 -0.1,0.4 -0.2,0.8 -0.4,1.1 -0.5,0.8 -1.2,1.2 -2.2,1.2 -0.4,0 -0.8,-0.1 -1.1,-0.2 -0.3,-0.2 -0.5,-0.4 -0.7,-0.6 z"
   id="path14"
   style="fill:#0e6cb6;fill-opacity:1" />
	<path
   class="st0"
   d="m 177.5,115.5 c -0.2,0.1 -0.5,0.1 -0.9,0.1 -0.3,0 -0.6,-0.1 -0.8,-0.2 -0.2,-0.1 -0.4,-0.2 -0.4,-0.4 -0.1,-0.2 -0.1,-0.3 -0.2,-0.5 0,-0.2 0,-0.3 0,-0.4 v -6.5 h 2.3 v -1.5 h -2.3 v -2.9 l -1.9,0.7 v 2.3 h -1.8 v 1.5 h 1.8 v 7.2 c 0,0.9 0.2,1.5 0.7,1.8 0.4,0.3 1.1,0.5 2,0.5 0.7,0 1.3,-0.1 1.6,-0.1 v -1.6 z"
   id="path15"
   style="fill:#0e6cb6;fill-opacity:1" />
	<path
   class="st0"
   d="m 187.9,116 c 0.4,-0.4 0.6,-0.9 0.7,-1.3 0.1,-0.4 0.2,-0.7 0.2,-1 h -2 c -0.1,0.8 -0.4,1.4 -0.8,1.7 -0.4,0.4 -1,0.5 -1.7,0.5 -1.1,0 -1.8,-0.4 -2.3,-1.1 -0.5,-0.7 -0.7,-1.6 -0.7,-2.8 h 7.5 c 0,-0.5 0,-1.1 0,-1.7 0,-0.7 -0.2,-1.3 -0.5,-2 -0.3,-0.7 -0.7,-1.2 -1.3,-1.7 -0.7,-0.4 -1.6,-0.7 -2.7,-0.7 -0.3,0 -0.7,0 -1.3,0.1 -0.5,0.1 -1.1,0.3 -1.6,0.7 -0.8,0.6 -1.3,1.3 -1.7,2.2 -0.3,0.9 -0.4,1.8 -0.4,2.9 0,3.6 1.6,5.5 4.9,5.6 0.5,0 1,-0.1 1.4,-0.2 0.4,-0.1 0.7,-0.2 1,-0.4 0.3,-0.2 0.5,-0.3 0.7,-0.5 0.3,-0.1 0.5,-0.2 0.6,-0.3 z m -6.2,-6.9 c 0.2,-0.4 0.4,-0.8 0.7,-1 0.3,-0.3 0.6,-0.4 0.9,-0.6 0.3,-0.1 0.7,-0.1 1,-0.1 0.6,0 1.1,0.1 1.5,0.3 0.3,0.2 0.6,0.5 0.8,0.9 0.2,0.3 0.3,0.7 0.3,1.1 0,0.2 0,0.3 0,0.5 0,0.2 0,0.3 0,0.5 h -5.5 c 0,-0.7 0.1,-1.2 0.3,-1.6 z"
   id="path16"
   style="fill:#0e6cb6;fill-opacity:1" />
	<path
   class="st0"
   d="m 198.4,116.6 c 0.4,-0.3 0.7,-0.6 1,-1.1 0.3,-0.5 0.4,-1 0.4,-1.6 0,-0.4 -0.1,-0.7 -0.2,-1.1 -0.1,-0.4 -0.3,-0.7 -0.6,-1 -0.3,-0.3 -0.7,-0.5 -1.2,-0.7 -0.6,-0.2 -1.5,-0.5 -3,-0.8 -0.3,-0.1 -0.6,-0.2 -0.9,-0.4 -0.4,-0.2 -0.5,-0.5 -0.6,-1 0,-0.4 0.1,-0.7 0.3,-0.9 0.2,-0.2 0.4,-0.4 0.6,-0.5 0.3,-0.1 0.5,-0.2 0.7,-0.2 0.2,0 0.4,0 0.4,0 0.4,0 0.8,0.1 1.3,0.3 0.5,0.2 0.7,0.7 0.7,1.5 h 2 c 0,-0.4 -0.1,-1 -0.3,-1.6 -0.4,-0.6 -0.9,-1.1 -1.6,-1.3 -0.7,-0.2 -1.5,-0.3 -2.2,-0.3 -1.2,0 -2.2,0.3 -2.9,0.9 -0.8,0.6 -1.1,1.4 -1.1,2.4 0,0.5 0.1,1 0.3,1.4 0.2,0.4 0.5,0.7 0.9,0.9 0.4,0.2 0.8,0.4 1.3,0.6 0.5,0.2 1,0.3 1.5,0.4 0.8,0.1 1.4,0.3 1.8,0.5 0.4,0.2 0.5,0.6 0.5,1.1 0,0.4 -0.1,0.7 -0.3,1 -0.2,0.3 -0.5,0.4 -0.7,0.5 -0.3,0.1 -0.7,0.1 -1.1,0.1 -0.5,0 -0.8,-0.1 -1.2,-0.2 -0.3,-0.1 -0.5,-0.3 -0.7,-0.5 -0.2,-0.2 -0.3,-0.4 -0.3,-0.7 -0.1,-0.2 -0.1,-0.4 -0.1,-0.6 h -2 c 0,1.3 0.5,2.2 1.3,2.7 0.8,0.5 1.7,0.8 2.8,0.8 0.6,0 1.1,-0.1 1.6,-0.2 0.6,0.1 1.1,-0.1 1.6,-0.4 z"
   id="path17"
   style="fill:#0e6cb6;fill-opacity:1" />
	<polygon
   class="st0"
   points="67.2,131.5 74.2,131.5 74.2,129.7 67.2,129.7 67.2,124.9 74.6,124.9 74.6,123 65.1,123 65.1,138.6 74.7,138.6 74.7,136.7 67.2,136.7 "
   id="polygon17"
   style="fill:#0e6cb6;fill-opacity:1" />
	<path
   class="st0"
   d="m 80.6,138.6 v -6.2 c 0,-1.1 0.3,-1.9 0.9,-2.5 0.5,-0.5 1.2,-0.8 1.9,-0.8 0.7,0 1.3,0.2 1.8,0.7 0.3,0.2 0.4,0.5 0.5,0.8 0.1,0.3 0.1,0.7 0.1,1 v 6.9 h 2 v -7.3 c 0,-0.8 -0.2,-1.5 -0.4,-2 -0.3,-0.5 -0.7,-0.8 -1.1,-1.1 -0.4,-0.3 -0.8,-0.4 -1.2,-0.5 -0.4,-0.1 -0.8,-0.1 -1,-0.1 -0.6,0 -1.1,0.1 -1.5,0.2 -0.4,0.2 -0.7,0.4 -1,0.6 -0.3,0.2 -0.4,0.4 -0.6,0.6 -0.1,0.2 -0.2,0.4 -0.3,0.5 v -1.7 h -2 v 1.3 9.6 z"
   id="path18"
   style="fill:#0e6cb6;fill-opacity:1" />
	<polygon
   class="st0"
   points="98.4,127.8 95.2,136.3 91.8,127.8 89.6,127.8 94,138.6 96,138.6 100.6,127.8 "
   id="polygon18"
   style="fill:#0e6cb6;fill-opacity:1" />
	<rect
   x="103"
   y="123.1"
   class="st0"
   width="2.4000001"
   height="2.2"
   id="rect18"
   style="fill:#0e6cb6;fill-opacity:1" />
	<rect
   x="103.2"
   y="127.8"
   class="st0"
   width="2"
   height="10.8"
   id="rect19"
   style="fill:#0e6cb6;fill-opacity:1" />
	<path
   class="st0"
   d="m 111.3,138.6 v -5.7 c 0,-0.9 0.2,-1.7 0.6,-2.3 0.2,-0.3 0.5,-0.5 0.9,-0.7 0.4,-0.2 0.8,-0.2 1.4,-0.2 0.2,0 0.4,0 0.6,0 0.1,0 0.3,0 0.4,0.1 v -2 c -0.3,0 -0.8,0 -1.4,0 -0.5,0 -0.9,0.2 -1.4,0.5 -0.5,0.3 -0.9,0.9 -1.1,1.6 v -2.1 h -2 c 0.1,0.7 0.1,1.5 0.1,2.2 v 8.6 z"
   id="path19"
   style="fill:#0e6cb6;fill-opacity:1" />
	<path
   class="st0"
   d="m 127.1,131.3 c -0.2,-0.6 -0.4,-1.3 -0.8,-1.8 -0.4,-0.6 -0.9,-1 -1.5,-1.4 -0.7,-0.4 -1.6,-0.6 -2.6,-0.6 -1,0 -1.9,0.2 -2.5,0.5 -0.7,0.3 -1.2,0.8 -1.7,1.4 -0.4,0.6 -0.7,1.2 -0.9,1.9 -0.2,0.7 -0.3,1.4 -0.3,2 0,1.6 0.4,2.9 1.3,4 0.8,1.1 2.1,1.6 3.9,1.7 1.8,0 3.1,-0.6 4,-1.7 0.9,-1.1 1.3,-2.5 1.3,-4.1 0,-0.3 0,-0.6 0,-0.9 -0.1,-0.4 -0.2,-0.7 -0.2,-1 z m -2.2,3.8 c -0.2,0.6 -0.4,1 -0.8,1.4 -0.3,0.3 -0.6,0.6 -1,0.7 -0.4,0.2 -0.8,0.2 -1.2,0.2 -1.1,0 -1.9,-0.5 -2.4,-1.3 -0.5,-0.8 -0.8,-1.8 -0.8,-3 0,-0.9 0.1,-1.6 0.4,-2.1 0.2,-0.6 0.5,-1 0.8,-1.3 0.3,-0.3 0.7,-0.5 1.1,-0.7 0.4,-0.1 0.7,-0.1 1,-0.1 2,0 3,1.4 3.1,4.1 0.1,0.9 0,1.6 -0.2,2.1 z"
   id="path20"
   style="fill:#0e6cb6;fill-opacity:1" />
	<path
   class="st0"
   d="m 138.4,128.1 c -0.4,-0.3 -0.8,-0.4 -1.2,-0.5 -0.4,-0.1 -0.8,-0.1 -1,-0.1 -0.6,0 -1.1,0.1 -1.5,0.2 -0.4,0.2 -0.7,0.4 -1,0.6 -0.3,0.2 -0.4,0.4 -0.6,0.6 -0.1,0.2 -0.2,0.4 -0.3,0.5 v -1.7 h -2 v 1.3 9.6 h 2 v -6.2 c 0,-1.1 0.3,-1.9 0.9,-2.5 0.5,-0.5 1.2,-0.8 1.9,-0.8 0.7,0 1.3,0.2 1.9,0.7 0.3,0.2 0.4,0.5 0.5,0.8 0.1,0.3 0.1,0.7 0.1,1 v 6.9 h 2 v -7.3 c 0,-0.8 -0.2,-1.5 -0.4,-2 -0.5,-0.5 -0.9,-0.8 -1.3,-1.1 z"
   id="path21"
   style="fill:#0e6cb6;fill-opacity:1" />
	<path
   class="st0"
   d="m 158.7,128.2 c -0.4,-0.3 -0.8,-0.5 -1.3,-0.6 -0.5,-0.1 -0.9,-0.1 -1.3,-0.1 -0.6,0 -1.1,0.1 -1.5,0.2 -0.4,0.2 -0.8,0.3 -1.1,0.6 -0.3,0.2 -0.5,0.4 -0.7,0.7 -0.2,0.2 -0.3,0.4 -0.4,0.6 -0.2,-0.4 -0.5,-0.9 -1,-1.3 -0.3,-0.2 -0.6,-0.4 -1,-0.5 -0.4,-0.1 -1,-0.2 -1.6,-0.2 -0.5,0 -1,0.1 -1.7,0.3 -0.7,0.2 -1.2,0.8 -1.8,1.6 v -1.6 h -2 v 1.4 9.4 h 2 v -6.2 c 0,-0.4 0,-0.7 0.1,-1.1 0.1,-0.4 0.2,-0.8 0.4,-1.1 0.1,-0.2 0.4,-0.4 0.8,-0.7 0.4,-0.3 0.9,-0.4 1.6,-0.5 0.8,0 1.4,0.2 1.8,0.7 0.4,0.5 0.6,1 0.6,1.7 v 7.2 h 2 v -6.1 c 0,-0.3 0,-0.7 0.1,-1.1 0.1,-0.5 0.2,-0.9 0.4,-1.2 0.1,-0.1 0.2,-0.2 0.3,-0.4 0.1,-0.1 0.3,-0.3 0.5,-0.4 0.4,-0.3 0.9,-0.4 1.5,-0.4 0.5,0 1,0.1 1.3,0.3 0.3,0.2 0.6,0.4 0.8,0.7 0.1,0.1 0.2,0.3 0.3,0.6 0.1,0.2 0.1,0.6 0.1,1.1 v 7 h 2 v -7.3 c 0,-0.8 -0.1,-1.4 -0.4,-2 0,-0.7 -0.4,-1.1 -0.8,-1.3 z"
   id="path22"
   style="fill:#0e6cb6;fill-opacity:1" />
	<path
   class="st0"
   d="m 172.4,129.8 c -0.3,-0.7 -0.7,-1.2 -1.3,-1.7 -0.7,-0.4 -1.6,-0.7 -2.7,-0.7 -0.3,0 -0.7,0 -1.3,0.1 -0.5,0.1 -1.1,0.3 -1.6,0.7 -0.8,0.6 -1.3,1.3 -1.6,2.2 -0.3,0.9 -0.4,1.8 -0.4,2.9 0,3.6 1.6,5.5 4.9,5.6 0.5,0 1,-0.1 1.4,-0.2 0.4,-0.1 0.7,-0.2 1,-0.4 0.3,-0.2 0.5,-0.3 0.7,-0.5 0.2,-0.2 0.3,-0.3 0.4,-0.4 0.4,-0.4 0.6,-0.9 0.7,-1.3 0.1,-0.4 0.2,-0.7 0.2,-1 h -2 c -0.1,0.8 -0.4,1.4 -0.8,1.7 -0.4,0.4 -1,0.5 -1.7,0.5 -1.1,0 -1.8,-0.4 -2.3,-1.1 -0.5,-0.7 -0.7,-1.6 -0.7,-2.8 h 7.5 c 0,-0.5 0,-1.1 0,-1.7 0,-0.5 -0.1,-1.2 -0.4,-1.9 z m -1.5,2.3 h -5.5 c 0,-0.6 0.1,-1.1 0.3,-1.6 0.2,-0.4 0.4,-0.8 0.7,-1 0.3,-0.3 0.6,-0.4 0.9,-0.5 0.3,-0.1 0.7,-0.1 1,-0.1 0.6,0 1.1,0.1 1.5,0.3 0.3,0.2 0.6,0.5 0.8,0.9 0.2,0.3 0.3,0.7 0.3,1.1 0,0.2 0,0.3 0,0.5 0,0.2 0,0.3 0,0.4 z"
   id="path23"
   style="fill:#0e6cb6;fill-opacity:1" />
	<path
   class="st0"
   d="m 183.8,128.1 c -0.4,-0.3 -0.8,-0.4 -1.3,-0.5 -0.4,-0.1 -0.8,-0.1 -1,-0.1 -0.6,0 -1.1,0.1 -1.5,0.2 -0.4,0.2 -0.7,0.4 -1,0.6 -0.3,0.2 -0.4,0.4 -0.6,0.6 -0.1,0.2 -0.2,0.4 -0.3,0.5 v -1.7 h -2 v 1.3 9.6 h 2 v -6.2 c 0,-1.1 0.3,-1.9 0.9,-2.5 0.5,-0.5 1.2,-0.8 1.9,-0.8 0.7,0 1.3,0.2 1.8,0.7 0.3,0.2 0.4,0.5 0.5,0.8 0.1,0.3 0.1,0.7 0.1,1 v 6.9 h 2 v -7.3 c 0,-0.8 -0.2,-1.5 -0.4,-2 -0.3,-0.5 -0.7,-0.8 -1.1,-1.1 z"
   id="path24"
   style="fill:#0e6cb6;fill-opacity:1" />
	<path
   class="st0"
   d="m 191.5,124.8 -1.9,0.7 v 2.3 h -1.8 v 1.5 h 1.8 v 7.2 c 0,0.9 0.2,1.5 0.7,1.8 0.4,0.3 1.1,0.5 2,0.5 0.7,0 1.3,-0.1 1.6,-0.1 V 137 c -0.2,0.1 -0.5,0.1 -0.9,0.1 -0.3,0 -0.6,-0.1 -0.8,-0.2 -0.2,-0.1 -0.4,-0.2 -0.4,-0.4 -0.1,-0.2 -0.1,-0.3 -0.2,-0.5 0,-0.2 0,-0.3 0,-0.4 v -6.5 h 2.3 v -1.5 h -2.3 v -2.8 z"
   id="path25"
   style="fill:#0e6cb6;fill-opacity:1" />
	<path
   class="st0"
   d="m 204.4,135.9 0.1,-5.2 c 0,-0.3 0,-0.5 0,-0.8 0,-0.3 -0.2,-0.5 -0.3,-0.9 -0.3,-0.6 -0.8,-1 -1.5,-1.2 -0.7,-0.2 -1.4,-0.4 -2.2,-0.4 -0.6,0 -1.2,0.1 -1.8,0.2 -0.3,0.1 -0.6,0.2 -0.9,0.3 -0.3,0.1 -0.5,0.3 -0.7,0.6 -0.3,0.4 -0.5,0.7 -0.6,1.1 -0.1,0.4 -0.2,0.7 -0.2,1 h 2 c 0,-0.1 0.1,-0.3 0.1,-0.5 0,-0.2 0.1,-0.4 0.2,-0.6 0.1,-0.2 0.4,-0.4 0.7,-0.5 0.3,-0.1 0.7,-0.2 1.1,-0.2 0.3,0 0.6,0.1 1,0.2 0.3,0.1 0.6,0.3 0.8,0.6 0.3,0.4 0.4,1.2 0.4,2.4 -0.5,0 -1,-0.1 -1.4,-0.1 -0.4,0 -1,0 -1.7,0.1 -0.7,0.1 -1.3,0.3 -1.9,0.6 -0.8,0.5 -1.3,1 -1.5,1.6 -0.3,0.6 -0.4,1.1 -0.3,1.6 0,0.9 0.3,1.6 1,2.2 0.6,0.6 1.5,0.9 2.7,0.9 0.5,0 1,-0.1 1.6,-0.3 0.3,-0.1 0.6,-0.3 0.9,-0.6 0.3,-0.3 0.5,-0.6 0.7,-1 0,0.5 0.1,1.1 0.2,1.6 h 1.8 c -0.2,-1.4 -0.3,-2.3 -0.3,-2.7 z m -1.9,-0.9 c -0.1,0.4 -0.2,0.8 -0.4,1.1 -0.5,0.8 -1.2,1.2 -2.2,1.2 -0.4,0 -0.8,-0.1 -1.1,-0.2 -0.3,-0.1 -0.5,-0.3 -0.7,-0.5 -0.2,-0.2 -0.3,-0.4 -0.3,-0.6 -0.1,-0.2 -0.1,-0.4 -0.1,-0.6 0,-0.5 0.2,-1 0.5,-1.3 0.3,-0.3 0.7,-0.5 1.1,-0.6 0.4,-0.1 0.9,-0.2 1.3,-0.2 0.4,0 0.7,0 0.9,0 0.4,0 0.8,0 1.1,0.1 0,0.7 0,1.2 -0.1,1.6 z"
   id="path26"
   style="fill:#0e6cb6;fill-opacity:1" />
	<rect
   x="208.5"
   y="123.1"
   class="st0"
   width="2"
   height="15.5"
   id="rect26"
   style="fill:#0e6cb6;fill-opacity:1" />
	<path
   class="st0"
   d="m 228.7,123.6 c -0.3,-0.2 -0.6,-0.3 -0.9,-0.4 -0.7,-0.1 -1.5,-0.2 -2.4,-0.2 h -5 v 15.6 h 2.1 v -6.9 h 2.4 c 1.3,0 2.3,-0.1 3,-0.4 0.7,-0.2 1.2,-0.6 1.5,-1 0.8,-0.8 1.2,-1.9 1.2,-3 0,-1.2 -0.4,-2.2 -1.1,-3 -0.2,-0.3 -0.5,-0.6 -0.8,-0.7 z m -0.6,5.1 c -0.2,0.4 -0.5,0.6 -0.9,0.8 -0.4,0.2 -0.7,0.3 -1.1,0.3 -0.4,0.1 -0.8,0.1 -1.1,0.1 h -2.5 v -5.1 h 2.9 c 0.6,0 1.3,0.1 1.9,0.3 0.3,0.1 0.6,0.4 0.8,0.7 0.2,0.3 0.3,0.8 0.3,1.4 0,0.6 -0.1,1.1 -0.3,1.5 z"
   id="path27"
   style="fill:#0e6cb6;fill-opacity:1" />
	<path
   class="st0"
   d="m 237.6,127.7 c -0.5,0 -0.9,0.2 -1.4,0.5 -0.5,0.3 -0.9,0.9 -1.1,1.6 v -2.1 h -2 c 0.1,0.7 0.1,1.5 0.1,2.2 v 8.6 h 2 v -5.7 c 0,-0.9 0.2,-1.7 0.6,-2.3 0.2,-0.3 0.5,-0.5 0.9,-0.7 0.4,-0.2 0.8,-0.2 1.4,-0.2 0.2,0 0.4,0 0.6,0 0.1,0 0.3,0 0.4,0.1 v -2 c -0.4,-0.1 -0.9,0 -1.5,0 z"
   id="path28"
   style="fill:#0e6cb6;fill-opacity:1" />
	<path
   class="st0"
   d="m 251,131.3 c -0.2,-0.6 -0.4,-1.3 -0.8,-1.8 -0.4,-0.6 -0.9,-1 -1.5,-1.4 -0.7,-0.4 -1.6,-0.6 -2.6,-0.6 -1,0 -1.9,0.2 -2.5,0.5 -0.7,0.3 -1.2,0.8 -1.7,1.4 -0.4,0.6 -0.7,1.2 -0.9,1.9 -0.2,0.7 -0.3,1.4 -0.3,2 0,1.6 0.4,2.9 1.3,4 0.8,1.1 2.1,1.6 3.9,1.7 1.8,0 3.1,-0.6 4,-1.7 0.9,-1.1 1.3,-2.5 1.3,-4.1 0,-0.3 0,-0.6 0,-0.9 -0.1,-0.4 -0.1,-0.7 -0.2,-1 z m -2.2,3.8 c -0.2,0.6 -0.4,1 -0.8,1.4 -0.3,0.3 -0.6,0.6 -1,0.7 -0.4,0.2 -0.8,0.2 -1.2,0.2 -1.1,0 -1.9,-0.5 -2.4,-1.3 -0.5,-0.8 -0.8,-1.8 -0.8,-3 0,-0.9 0.1,-1.6 0.4,-2.1 0.2,-0.6 0.5,-1 0.8,-1.3 0.3,-0.3 0.7,-0.5 1.1,-0.7 0.4,-0.1 0.7,-0.1 1,-0.1 2,0 3,1.4 3.1,4.1 0.1,0.9 0,1.6 -0.2,2.1 z"
   id="path29"
   style="fill:#0e6cb6;fill-opacity:1" />
	<path
   class="st0"
   d="m 256.8,124.8 -1.9,0.7 v 2.3 H 253 v 1.5 h 1.8 v 7.2 c 0,0.9 0.2,1.5 0.7,1.8 0.4,0.3 1.1,0.5 2,0.5 0.7,0 1.3,-0.1 1.6,-0.1 V 137 c -0.2,0.1 -0.5,0.1 -0.9,0.1 -0.3,0 -0.6,-0.1 -0.8,-0.2 -0.2,-0.1 -0.4,-0.2 -0.4,-0.4 -0.1,-0.2 -0.1,-0.3 -0.2,-0.5 0,-0.2 0,-0.3 0,-0.4 v -6.5 h 2.3 v -1.5 h -2.3 z"
   id="path30"
   style="fill:#0e6cb6;fill-opacity:1" />
	<path
   class="st0"
   d="m 270,129.8 c -0.3,-0.7 -0.7,-1.2 -1.3,-1.7 -0.7,-0.4 -1.6,-0.7 -2.7,-0.7 -0.3,0 -0.7,0 -1.3,0.1 -0.5,0.1 -1.1,0.3 -1.6,0.7 -0.8,0.6 -1.3,1.3 -1.6,2.2 -0.3,0.9 -0.4,1.8 -0.4,2.9 0,3.6 1.6,5.5 4.9,5.6 0.5,0 1,-0.1 1.4,-0.2 0.4,-0.1 0.7,-0.2 1,-0.4 0.3,-0.2 0.5,-0.3 0.7,-0.5 0.2,-0.2 0.3,-0.3 0.4,-0.4 0.4,-0.4 0.6,-0.9 0.7,-1.3 0.1,-0.4 0.2,-0.7 0.2,-1 h -2 c -0.1,0.8 -0.4,1.4 -0.8,1.7 -0.4,0.4 -1,0.5 -1.7,0.5 -1.1,0 -1.8,-0.4 -2.3,-1.1 -0.5,-0.7 -0.7,-1.6 -0.7,-2.8 h 7.5 c 0,-0.5 0,-1.1 0,-1.7 0,-0.5 -0.1,-1.2 -0.4,-1.9 z m -1.5,2.3 H 263 c 0,-0.6 0.1,-1.1 0.3,-1.6 0.2,-0.4 0.4,-0.8 0.7,-1 0.3,-0.3 0.6,-0.4 0.9,-0.5 0.3,-0.1 0.7,-0.1 1,-0.1 0.6,0 1.1,0.1 1.5,0.3 0.3,0.2 0.6,0.5 0.8,0.9 0.2,0.3 0.3,0.7 0.3,1.1 0,0.2 0,0.3 0,0.5 0,0.2 0,0.3 0,0.4 z"
   id="path31"
   style="fill:#0e6cb6;fill-opacity:1" />
	<path
   class="st0"
   d="m 279.3,136.6 c -0.3,0.5 -0.9,0.8 -1.8,0.8 -1,0 -1.7,-0.5 -2.1,-1.3 -0.2,-0.4 -0.3,-0.9 -0.4,-1.4 -0.1,-0.5 -0.1,-1 -0.1,-1.6 0,-0.2 0,-0.6 0.1,-1 0,-0.4 0.1,-0.9 0.3,-1.4 0.1,-0.5 0.4,-0.9 0.8,-1.2 0.4,-0.3 0.9,-0.5 1.5,-0.5 0.5,0 0.9,0.1 1.1,0.3 0.3,0.2 0.5,0.4 0.6,0.7 0.1,0.3 0.2,0.5 0.3,0.8 0,0.2 0.1,0.4 0.1,0.6 h 2 c 0,-0.3 0,-0.7 -0.1,-1.1 -0.1,-0.4 -0.4,-0.9 -0.7,-1.3 -0.2,-0.3 -0.5,-0.5 -0.8,-0.7 -0.3,-0.2 -0.6,-0.3 -0.9,-0.4 -0.3,-0.1 -0.6,-0.2 -0.8,-0.2 -0.3,0 -0.5,0 -0.7,0 -0.5,0 -1.1,0.1 -1.6,0.3 -0.6,0.2 -1.1,0.5 -1.5,0.9 -0.5,0.4 -0.8,1 -1.1,1.8 -0.3,0.8 -0.5,1.7 -0.5,2.8 0,1.1 0.1,2 0.4,2.6 0.3,0.6 0.5,1.2 0.9,1.5 0.3,0.3 0.6,0.5 0.9,0.7 0.3,0.2 0.6,0.3 0.9,0.4 0.7,0.2 1.2,0.2 1.6,0.2 1.3,0 2.3,-0.4 3.1,-1.2 0.7,-0.7 1.1,-1.6 1.2,-2.7 h -2 c -0.2,0.6 -0.3,1.1 -0.7,1.6 z"
   id="path32"
   style="fill:#0e6cb6;fill-opacity:1" />
	<path
   class="st0"
   d="m 286.7,124.8 -1.9,0.7 v 2.3 H 283 v 1.5 h 1.8 v 7.2 c 0,0.9 0.2,1.5 0.7,1.8 0.4,0.3 1.1,0.5 2,0.5 0.7,0 1.3,-0.1 1.6,-0.1 V 137 c -0.2,0.1 -0.5,0.1 -0.9,0.1 -0.3,0 -0.6,-0.1 -0.8,-0.2 -0.2,-0.1 -0.4,-0.2 -0.4,-0.4 -0.1,-0.2 -0.1,-0.3 -0.2,-0.5 0,-0.2 0,-0.3 0,-0.4 v -6.5 h 2.3 v -1.5 h -2.3 v -2.8 z"
   id="path33"
   style="fill:#0e6cb6;fill-opacity:1" />
	<rect
   x="291.5"
   y="123.1"
   class="st0"
   width="2.4000001"
   height="2.2"
   id="rect33"
   style="fill:#0e6cb6;fill-opacity:1" />
	<rect
   x="291.70001"
   y="127.8"
   class="st0"
   width="2"
   height="10.8"
   id="rect34"
   style="fill:#0e6cb6;fill-opacity:1" />
	<path
   class="st0"
   d="m 307.2,131.3 c -0.2,-0.6 -0.4,-1.3 -0.8,-1.8 -0.4,-0.6 -0.9,-1 -1.5,-1.4 -0.7,-0.4 -1.6,-0.6 -2.6,-0.6 -1,0 -1.9,0.2 -2.5,0.5 -0.7,0.3 -1.2,0.8 -1.7,1.4 -0.4,0.6 -0.7,1.2 -0.9,1.9 -0.2,0.7 -0.3,1.4 -0.3,2 0,1.6 0.4,2.9 1.3,4 0.8,1.1 2.1,1.6 3.9,1.7 1.8,0 3.1,-0.6 4,-1.7 0.9,-1.1 1.3,-2.5 1.3,-4.1 0,-0.3 0,-0.6 0,-0.9 -0.1,-0.4 -0.1,-0.7 -0.2,-1 z m -2.2,3.8 c -0.2,0.6 -0.4,1 -0.8,1.4 -0.3,0.3 -0.6,0.6 -1,0.7 -0.4,0.2 -0.8,0.2 -1.2,0.2 -1.1,0 -1.9,-0.5 -2.4,-1.3 -0.5,-0.8 -0.8,-1.8 -0.8,-3 0,-0.9 0.1,-1.6 0.4,-2.1 0.2,-0.6 0.5,-1 0.8,-1.3 0.3,-0.3 0.7,-0.5 1.1,-0.7 0.4,-0.1 0.7,-0.1 1,-0.1 2,0 3,1.4 3.1,4.1 0.1,0.9 0,1.6 -0.2,2.1 z"
   id="path34"
   style="fill:#0e6cb6;fill-opacity:1" />
	<path
   class="st0"
   d="m 319.6,129.2 c -0.3,-0.5 -0.7,-0.8 -1.1,-1.1 -0.4,-0.3 -0.8,-0.4 -1.3,-0.5 -0.4,-0.1 -0.8,-0.1 -1,-0.1 -0.6,0 -1.1,0.1 -1.5,0.2 -0.4,0.2 -0.7,0.4 -1,0.6 -0.3,0.2 -0.4,0.4 -0.6,0.6 -0.1,0.2 -0.2,0.4 -0.3,0.5 v -1.7 h -2 v 1.3 9.6 h 2 v -6.2 c 0,-1.1 0.3,-1.9 0.9,-2.5 0.5,-0.5 1.2,-0.8 1.9,-0.8 0.7,0 1.3,0.2 1.8,0.7 0.3,0.2 0.4,0.5 0.5,0.8 0.1,0.3 0.1,0.7 0.1,1 v 6.9 h 2 v -7.3 c 0,-0.8 -0.2,-1.5 -0.4,-2 z"
   id="path35"
   style="fill:#0e6cb6;fill-opacity:1" />
	<path
   class="st0"
   d="m 70.1,144.5 -6.3,15.6 h 2.1 l 1.6,-4 h 7 l 1.6,4 h 2.3 l -6.1,-15.6 z m -1.9,9.8 2.9,-7.6 2.8,7.6 z"
   id="path36"
   style="fill:#0e6cb6;fill-opacity:1" />
	<path
   class="st0"
   d="m 88.1,150.8 c -0.1,-0.2 -0.2,-0.3 -0.4,-0.5 -0.2,-0.2 -0.4,-0.3 -0.6,-0.5 -0.2,-0.2 -0.5,-0.3 -0.9,-0.4 -0.4,-0.1 -0.8,-0.2 -1.4,-0.2 -1.3,0 -2.4,0.4 -3.3,1.3 -0.9,0.9 -1.4,2.3 -1.4,4.1 0,0.7 0.1,1.4 0.3,2.1 0.2,0.7 0.5,1.3 0.9,1.9 0.5,0.5 1,0.9 1.6,1.1 0.6,0.2 1.1,0.3 1.6,0.3 0.4,0 0.9,-0.1 1.7,-0.3 0.4,-0.1 0.7,-0.3 1,-0.5 0.3,-0.3 0.6,-0.6 0.8,-1 0,0.7 0,1.4 0,2 0,0.6 -0.1,1.1 -0.3,1.6 -0.2,0.4 -0.4,0.8 -0.8,1 -0.4,0.3 -0.9,0.4 -1.6,0.4 -0.9,0 -1.5,-0.2 -1.9,-0.6 -0.2,-0.2 -0.3,-0.4 -0.4,-0.7 -0.1,-0.2 -0.1,-0.5 -0.2,-0.8 h -2.1 c 0,0.4 0.1,0.8 0.2,1.1 0.1,0.4 0.2,0.8 0.5,1.2 0.3,0.3 0.7,0.6 1.3,0.9 0.6,0.2 1.4,0.3 2.4,0.3 0.8,0 1.6,-0.1 2.4,-0.3 0.8,-0.2 1.5,-0.8 2,-1.6 0.2,-0.4 0.3,-0.9 0.4,-1.6 0.1,-0.7 0.1,-1.6 0.1,-2.9 v -6.8 -2 h -1.9 z m -0.2,5.5 c -0.1,0.5 -0.3,0.8 -0.5,1.1 -0.2,0.3 -0.5,0.6 -0.9,0.8 -0.4,0.2 -0.8,0.3 -1.4,0.3 -0.6,0 -1.1,-0.1 -1.4,-0.4 -0.4,-0.2 -0.7,-0.5 -0.9,-0.9 -0.2,-0.4 -0.3,-0.8 -0.4,-1.3 -0.1,-0.4 -0.1,-0.9 -0.1,-1.3 0,-0.4 0,-0.8 0.1,-1.2 0.1,-0.4 0.2,-0.9 0.4,-1.3 0.2,-0.4 0.5,-0.8 0.9,-1.1 0.4,-0.3 0.9,-0.4 1.5,-0.4 0.9,0 1.7,0.3 2.2,0.9 0.3,0.3 0.5,0.6 0.6,1 0.1,0.4 0.2,1 0.2,1.7 -0.1,1 -0.2,1.6 -0.3,2.1 z"
   id="path37"
   style="fill:#0e6cb6;fill-opacity:1" />
	<path
   class="st0"
   d="m 102.3,151.4 c -0.3,-0.7 -0.7,-1.2 -1.3,-1.7 -0.7,-0.4 -1.6,-0.7 -2.7,-0.7 -0.3,0 -0.7,0 -1.3,0.1 -0.5,0.1 -1.1,0.3 -1.6,0.7 -0.8,0.6 -1.3,1.3 -1.7,2.2 -0.3,0.9 -0.4,1.8 -0.4,2.9 0,3.6 1.6,5.5 4.9,5.6 0.5,0 1,-0.1 1.4,-0.2 0.4,-0.1 0.7,-0.2 1,-0.4 0.3,-0.2 0.5,-0.3 0.7,-0.5 0.2,-0.2 0.3,-0.3 0.4,-0.4 0.4,-0.4 0.6,-0.9 0.7,-1.3 0.1,-0.4 0.2,-0.7 0.2,-1 h -2 c -0.1,0.8 -0.4,1.4 -0.8,1.7 -0.4,0.4 -1,0.5 -1.7,0.5 -1.1,0 -1.8,-0.4 -2.3,-1.1 -0.5,-0.7 -0.7,-1.6 -0.7,-2.8 h 7.5 c 0,-0.5 0,-1.1 0,-1.7 0.1,-0.6 0,-1.3 -0.3,-1.9 z m -1.5,2.3 h -5.5 c 0,-0.6 0.1,-1.1 0.3,-1.6 0.2,-0.4 0.4,-0.8 0.7,-1 0.3,-0.3 0.6,-0.4 0.9,-0.6 0.3,-0.1 0.7,-0.1 1,-0.1 0.6,0 1.1,0.1 1.5,0.3 0.3,0.2 0.6,0.5 0.8,0.9 0.2,0.3 0.3,0.7 0.3,1.1 0,0.2 0,0.3 0,0.5 0,0.2 0,0.3 0,0.5 z"
   id="path38"
   style="fill:#0e6cb6;fill-opacity:1" />
	<path
   class="st0"
   d="m 113.7,149.7 c -0.4,-0.3 -0.8,-0.4 -1.3,-0.5 -0.4,-0.1 -0.8,-0.1 -1,-0.1 -0.6,0 -1.1,0.1 -1.5,0.2 -0.4,0.2 -0.7,0.4 -1,0.6 -0.3,0.2 -0.4,0.4 -0.6,0.6 -0.1,0.2 -0.2,0.4 -0.3,0.5 v -1.7 h -2 v 1.3 9.6 h 2 V 154 c 0,-1.1 0.3,-1.9 0.9,-2.5 0.5,-0.5 1.2,-0.8 1.9,-0.8 0.7,0 1.3,0.2 1.8,0.7 0.3,0.2 0.4,0.5 0.5,0.8 0.1,0.3 0.1,0.7 0.1,1 v 6.9 h 2 v -7.3 c 0,-0.8 -0.2,-1.5 -0.4,-2 -0.3,-0.5 -0.7,-0.9 -1.1,-1.1 z"
   id="path39"
   style="fill:#0e6cb6;fill-opacity:1" />
	<path
   class="st0"
   d="m 124.7,158.1 c -0.3,0.5 -0.9,0.8 -1.8,0.8 -1,0 -1.7,-0.5 -2.1,-1.3 -0.2,-0.4 -0.3,-0.9 -0.4,-1.4 -0.1,-0.5 -0.1,-1 -0.1,-1.6 0,-0.2 0,-0.6 0.1,-1 0,-0.4 0.1,-0.9 0.3,-1.4 0.1,-0.5 0.4,-0.9 0.8,-1.2 0.4,-0.3 0.9,-0.5 1.5,-0.5 0.5,0 0.9,0.1 1.1,0.3 0.3,0.2 0.5,0.4 0.6,0.7 0.1,0.3 0.2,0.5 0.3,0.8 0,0.2 0.1,0.4 0.1,0.6 h 2 c 0,-0.3 0,-0.7 -0.1,-1.1 -0.1,-0.4 -0.4,-0.9 -0.7,-1.3 -0.2,-0.3 -0.5,-0.5 -0.8,-0.7 -0.3,-0.2 -0.6,-0.3 -0.9,-0.4 -0.3,-0.1 -0.6,-0.2 -0.8,-0.2 -0.3,0 -0.5,0 -0.7,0 -0.5,0 -1.1,0.1 -1.6,0.3 -0.6,0.2 -1.1,0.5 -1.5,0.9 -0.5,0.5 -0.8,1 -1.1,1.8 -0.3,0.8 -0.5,1.7 -0.5,2.8 0,1.1 0.1,2 0.4,2.6 0.3,0.6 0.5,1.2 0.9,1.5 0.3,0.3 0.6,0.5 0.9,0.7 0.3,0.2 0.6,0.3 0.9,0.4 0.7,0.2 1.2,0.2 1.6,0.2 1.3,0 2.3,-0.4 3.1,-1.2 0.7,-0.7 1.1,-1.6 1.2,-2.7 h -2 c -0.2,0.6 -0.3,1.1 -0.7,1.6 z"
   id="path40"
   style="fill:#0e6cb6;fill-opacity:1" />
	<polygon
   class="st0"
   points="128.4,149.3 132.8,160.1 131.1,164.2 133.1,164.2 134.6,160.2 139.3,149.3 137.2,149.3 133.8,157.8 130.6,149.3 "
   id="polygon40"
   style="fill:#0e6cb6;fill-opacity:1" />
</g>
</svg>
