<?xml version="1.0" encoding="UTF-8" standalone="no"?>
<svg
   height="4in"
   version="1.1"
   width="14.280384in"
   id="svg4606"
   xmlns="http://www.w3.org/2000/svg"
   xmlns:svg="http://www.w3.org/2000/svg"
   xmlns:rdf="http://www.w3.org/1999/02/22-rdf-syntax-ns#"
   xmlns:cc="http://creativecommons.org/ns#"
   xmlns:dc="http://purl.org/dc/elements/1.1/">
  <metadata
     id="metadata4610">
    <rdf:RDF>
      <cc:Work
         rdf:about="">
        <dc:format>image/svg+xml</dc:format>
        <dc:type
           rdf:resource="http://purl.org/dc/dcmitype/StillImage" />
      </cc:Work>
    </rdf:RDF>
  </metadata>
  <defs
     id="defs4584" />
  <path
     id="path2"
     style="font-size:88.5661px;line-height:1;font-family:'Share Tech';-inkscape-font-specification:'Share Tech, Normal';text-align:end;text-anchor:end;fill:#2f4f4f;stroke-width:1.03788;fill-opacity:1"
     d="M 841.28125 194.38086 L 841.28125 202.35156 L 849.69336 202.35156 L 849.69336 194.38086 L 841.28125 194.38086 z M 955 194.38086 L 955 256.37695 L 962.52734 256.37695 L 962.52734 223.3418 C 962.52734 222.21996 963.00061 221.18689 963.94531 220.24219 C 964.94907 219.23843 966.39575 218.73633 968.28516 218.73633 L 972.35742 218.73633 C 974.12874 218.73633 975.51773 219.26924 976.52148 220.33203 C 977.58428 221.33578 978.11523 222.72282 978.11523 224.49414 L 978.11523 256.37695 L 985.64258 256.37695 L 985.64258 226.26562 C 985.64258 221.30593 984.46333 217.70461 982.10156 215.46094 C 979.79884 213.21726 976.25522 212.09375 971.47266 212.09375 L 969.16992 212.09375 C 966.51294 212.09375 964.29867 212.68435 962.52734 213.86523 L 962.52734 194.38086 L 955 194.38086 z M 1076.334 194.38086 L 1076.334 256.37695 L 1083.8633 256.37695 L 1083.8633 237.42383 L 1086.3438 234.50195 L 1098.4766 256.37695 L 1107.2441 256.37695 L 1091.6562 229.1875 L 1106.625 212.09375 L 1097.1484 212.09375 L 1083.8633 227.50586 L 1083.8633 194.38086 L 1076.334 194.38086 z M 863.86523 201.4668 L 863.86523 212.09375 L 858.10742 212.09375 L 858.10742 218.73633 L 863.86523 218.73633 L 863.86523 245.75 C 863.86523 248.93838 864.66167 251.50662 866.25586 253.45508 C 867.85005 255.40353 870.15282 256.37695 873.16406 256.37695 L 881.66602 256.37695 L 881.66602 249.73438 L 875.37891 249.73438 C 874.02089 249.73438 873.01667 249.4689 872.36719 248.9375 C 871.7177 248.40611 871.39258 247.49233 871.39258 246.19336 L 871.39258 218.73633 L 881.66602 218.73633 L 881.66602 212.09375 L 871.39258 212.09375 L 871.39258 201.4668 L 863.86523 201.4668 z M 562.5625 212.09375 C 557.42567 212.09375 553.61853 213.21726 551.13867 215.46094 C 548.71787 217.70461 547.50586 221.30593 547.50586 226.26562 L 547.50586 242.20703 C 547.50586 247.22578 548.71787 250.85789 551.13867 253.10156 C 553.55948 255.28619 557.36662 256.37695 562.5625 256.37695 L 572.2168 256.37695 L 572.2168 249.73438 L 561.67773 249.73438 C 559.4931 249.73437 557.83863 249.23422 556.7168 248.23047 C 555.59496 247.22672 555.03516 245.80888 555.03516 243.97852 L 555.03516 224.49414 C 555.03516 222.66377 555.59496 221.24593 556.7168 220.24219 C 557.83863 219.23843 559.4931 218.73633 561.67773 218.73633 L 572.2168 218.73633 L 572.2168 212.09375 L 562.5625 212.09375 z M 597.01562 212.09375 C 591.87879 212.09375 588.0697 213.21726 585.58984 215.46094 C 583.16904 217.70461 581.95898 221.30593 581.95898 226.26562 L 581.95898 242.20703 C 581.95898 247.16673 583.16904 250.76805 585.58984 253.01172 C 588.0697 255.25539 591.87879 256.37695 597.01562 256.37695 L 598.16602 256.37695 C 603.30285 256.37695 607.0831 255.25539 609.50391 253.01172 C 611.98375 250.76805 613.22266 247.16673 613.22266 242.20703 L 613.22266 226.26562 C 613.22266 221.30592 611.98375 217.70461 609.50391 215.46094 C 607.0831 213.21726 603.30285 212.09375 598.16602 212.09375 L 597.01562 212.09375 z M 626.50781 212.09375 L 626.50781 256.37695 L 634.03516 256.37695 L 634.03516 223.3418 C 634.03516 222.21996 634.50842 221.18689 635.45312 220.24219 C 636.45688 219.23843 637.90356 218.73633 639.79297 218.73633 L 642.0957 218.73633 C 643.86702 218.73633 645.25406 219.26924 646.25781 220.33203 C 647.26156 221.33578 647.76367 222.72282 647.76367 224.49414 L 647.76367 256.37695 L 655.29102 256.37695 L 655.29102 223.87305 C 655.4091 222.63312 655.91121 221.48272 656.79688 220.41992 C 657.74158 219.29808 659.13057 218.73633 660.96094 218.73633 L 663.26367 218.73633 C 665.03499 218.73633 666.42203 219.26924 667.42578 220.33203 C 668.48857 221.33578 669.01953 222.72282 669.01953 224.49414 L 669.01953 256.37695 L 676.54688 256.37695 L 676.54688 226.26562 C 676.54688 221.30592 675.36762 217.70461 673.00586 215.46094 C 670.70314 213.21726 667.15952 212.09375 662.37695 212.09375 L 661.8457 212.09375 C 657.9488 212.09375 654.90729 213.45194 652.72266 216.16797 C 650.41994 213.45194 646.582 212.09375 641.20898 212.09375 L 640.67773 212.09375 C 637.78457 212.09375 635.42411 212.80364 633.59375 214.2207 L 633.59375 212.09375 L 626.50781 212.09375 z M 690.27539 212.09375 L 690.27539 256.37695 L 697.80273 256.37695 L 697.80273 223.3418 C 697.80273 222.21996 698.276 221.18689 699.2207 220.24219 C 700.22445 219.23843 701.67114 218.73633 703.56055 218.73633 L 705.86328 218.73633 C 707.63461 218.73633 709.02164 219.26924 710.02539 220.33203 C 711.02914 221.33578 711.53125 222.72282 711.53125 224.49414 L 711.53125 256.37695 L 719.05859 256.37695 L 719.05859 223.87305 C 719.17668 222.63312 719.67879 221.48272 720.56445 220.41992 C 721.50915 219.29808 722.8962 218.73633 724.72656 218.73633 L 727.0293 218.73633 C 728.80062 218.73633 730.18961 219.26924 731.19336 220.33203 C 732.25615 221.33578 732.78711 222.72282 732.78711 224.49414 L 732.78711 256.37695 L 740.31445 256.37695 L 740.31445 226.26562 C 740.31445 221.30592 739.1352 217.70461 736.77344 215.46094 C 734.47072 213.21726 730.9271 212.09375 726.14453 212.09375 L 725.61328 212.09375 C 721.71637 212.09375 718.67486 213.45194 716.49023 216.16797 C 714.18751 213.45194 710.34958 212.09375 704.97656 212.09375 L 704.44531 212.09375 C 701.55215 212.09375 699.19169 212.80364 697.36133 214.2207 L 697.36133 212.09375 L 690.27539 212.09375 z M 753.59961 212.09375 L 753.59961 242.20703 C 753.59961 247.16673 754.75197 250.76805 757.05469 253.01172 C 759.41645 255.25539 762.98891 256.37695 767.77148 256.37695 L 769.00977 256.37695 C 771.78484 256.37695 774.14725 255.69786 776.0957 254.33984 L 776.0957 256.37695 L 783.18164 256.37695 L 783.18164 212.09375 L 775.65234 212.09375 L 775.65234 245.12891 C 775.53426 246.30979 775.0033 247.37365 774.05859 248.31836 C 773.17293 249.26307 771.7859 249.73438 769.89648 249.73438 L 766.88477 249.73438 C 765.11344 249.73438 763.69561 249.23422 762.63281 248.23047 C 761.62907 247.16768 761.12891 245.74984 761.12891 243.97852 L 761.12891 212.09375 L 753.59961 212.09375 z M 797.35156 212.09375 L 797.35156 256.37695 L 804.87891 256.37695 L 804.87891 223.60742 C 804.87891 222.42654 805.35217 221.33578 806.29688 220.33203 C 807.24158 219.26924 808.68827 218.73633 810.63672 218.73633 L 814.71094 218.73633 C 816.48226 218.73633 817.86929 219.26924 818.87305 220.33203 C 819.93584 221.33578 820.4668 222.72282 820.4668 224.49414 L 820.4668 256.37695 L 827.99609 256.37695 L 827.99609 226.26562 C 827.99609 221.30592 826.81489 217.70461 824.45312 215.46094 C 822.1504 213.21726 818.60679 212.09375 813.82422 212.09375 L 811.52148 212.09375 C 808.62832 212.09375 806.26787 212.80364 804.4375 214.2207 L 804.4375 212.09375 L 797.35156 212.09375 z M 841.72266 212.09375 L 841.72266 256.37695 L 849.25195 256.37695 L 849.25195 212.09375 L 841.72266 212.09375 z M 886.98047 212.09375 L 900.70898 256.37695 L 902.48047 256.37695 L 901.0625 261.24805 C 900.35397 263.90503 899.17276 265.23438 897.51953 265.23438 C 896.10248 265.23438 894.5673 265.11703 892.91406 264.88086 L 892.91406 271.3457 C 895.03965 271.69996 896.72297 271.87695 897.96289 271.87695 C 900.26561 271.87695 902.09511 271.40369 903.45312 270.45898 C 904.87018 269.57332 905.9629 268.30362 906.73047 266.65039 C 907.49804 265.0562 908.23679 262.93238 908.94531 260.27539 L 921.78711 212.09375 L 914.08203 212.09375 L 905.40234 248.67188 L 895.12891 212.09375 L 886.98047 212.09375 z M 999.81445 212.09375 L 999.81445 218.73633 L 1011.7695 218.73633 C 1013.9542 218.73633 1015.6087 219.23843 1016.7305 220.24219 C 1017.8523 221.24593 1018.4121 222.66377 1018.4121 224.49414 L 1018.4121 228.92188 L 1009.2012 228.92188 C 1000.5808 228.92187 996.27148 233.49856 996.27148 242.65039 L 996.27148 244.42188 C 996.27148 248.79113 997.2757 251.89034 999.2832 253.7207 C 1001.3497 255.49202 1004.6259 256.37695 1009.1133 256.37695 L 1015.2246 256.37695 C 1017.4683 256.37695 1019.2689 255.49202 1020.627 253.7207 C 1021.2764 254.54732 1022.044 255.19757 1022.9297 255.66992 C 1023.8744 256.14227 1024.7304 256.37695 1025.498 256.37695 L 1030.3691 256.37695 L 1030.3691 250.17773 C 1028.7749 250.17773 1027.6226 249.97191 1026.9141 249.55859 C 1026.2646 249.08625 1025.9414 248.40715 1025.9414 247.52148 L 1025.9414 226.26562 C 1025.9414 221.30592 1024.7006 217.70461 1022.2207 215.46094 C 1019.7999 213.21726 1016.0216 212.09375 1010.8848 212.09375 L 999.81445 212.09375 z M 1055.168 212.09375 C 1050.0311 212.09375 1046.2221 213.21726 1043.7422 215.46094 C 1041.3214 217.70461 1040.1113 221.30593 1040.1113 226.26562 L 1040.1113 242.20703 C 1040.1113 247.22578 1041.3214 250.85789 1043.7422 253.10156 C 1046.1631 255.28619 1049.9721 256.37695 1055.168 256.37695 L 1064.8223 256.37695 L 1064.8223 249.73438 L 1054.2812 249.73438 C 1052.0967 249.73437 1050.4441 249.23422 1049.3223 248.23047 C 1048.2005 247.22672 1047.6387 245.80888 1047.6387 243.97852 L 1047.6387 224.49414 C 1047.6387 222.66377 1048.2005 221.24593 1049.3223 220.24219 C 1050.4441 219.23843 1052.0966 218.73633 1054.2812 218.73633 L 1064.8223 218.73633 L 1064.8223 212.09375 L 1055.168 212.09375 z M 1129.3867 212.09375 C 1124.3089 212.09375 1120.6769 213.18646 1118.4922 215.37109 C 1116.3076 217.55573 1115.2148 221.18784 1115.2148 226.26562 L 1115.2148 242.20703 C 1115.2148 247.22578 1116.4269 250.85789 1118.8477 253.10156 C 1121.2685 255.28619 1125.0756 256.37695 1130.2715 256.37695 L 1141.6973 256.37695 L 1141.6973 249.73438 L 1129.3867 249.73438 C 1127.2021 249.73437 1125.5476 249.23422 1124.4258 248.23047 C 1123.3039 247.22672 1122.7441 245.80888 1122.7441 243.97852 L 1122.7441 237.33594 L 1144.5312 237.33594 L 1144.5312 225.82227 C 1144.5312 221.33492 1143.4386 217.93944 1141.2539 215.63672 C 1139.1283 213.27495 1135.9694 212.09375 1131.7773 212.09375 L 1129.3867 212.09375 z M 1157.373 212.09375 L 1157.373 256.37695 L 1164.9004 256.37695 L 1164.9004 224.9375 C 1164.9004 223.69757 1165.3737 222.42787 1166.3184 221.12891 C 1167.2631 219.82993 1168.7097 219.17969 1170.6582 219.17969 L 1178.0098 219.17969 L 1178.0098 212.09375 L 1171.543 212.09375 C 1168.7679 212.09375 1166.4075 212.89213 1164.459 214.48633 L 1164.459 212.09375 L 1157.373 212.09375 z M 1197.9355 212.09375 C 1193.5663 212.09375 1190.2612 212.98063 1188.0176 214.75195 C 1185.7739 216.46423 1184.6523 219.29795 1184.6523 223.25391 L 1184.6523 225.82227 C 1184.6523 229.71917 1185.6546 232.5837 1187.6621 234.41406 C 1189.7286 236.18538 1192.8298 237.07031 1196.9629 237.07031 L 1198.4668 237.07031 C 1201.0057 237.07031 1202.2754 238.39965 1202.2754 241.05664 L 1202.2754 245.75 C 1202.2754 247.04897 1201.8618 248.05319 1201.0352 248.76172 C 1200.2086 249.41121 1198.9985 249.73438 1197.4043 249.73438 L 1185.0938 249.73438 L 1185.0938 256.37695 L 1196.5195 256.37695 C 1200.8297 256.37695 1204.1059 255.46317 1206.3496 253.63281 C 1208.6523 251.80245 1209.8047 249.02642 1209.8047 245.30664 L 1209.8047 241.32227 C 1209.8047 237.54345 1208.7716 234.70777 1206.7051 232.81836 C 1204.6385 230.86991 1201.6259 229.89648 1197.6699 229.89648 L 1196.4316 229.89648 C 1195.1917 229.89648 1194.1567 229.57136 1193.3301 228.92188 C 1192.5625 228.2724 1192.1797 227.26817 1192.1797 225.91016 L 1192.1797 222.72266 C 1192.1797 221.42368 1192.6221 220.45027 1193.5078 219.80078 C 1194.3935 219.09225 1195.5747 218.73633 1197.0508 218.73633 L 1208.0332 218.73633 L 1208.0332 212.09375 L 1197.9355 212.09375 z M 1221.7598 212.09375 L 1221.7598 271.43359 L 1229.2891 271.43359 L 1229.2891 256.37695 L 1237.3477 256.37695 C 1242.4845 256.37695 1246.2647 255.25539 1248.6855 253.01172 C 1251.1653 250.76805 1252.4043 247.16673 1252.4043 242.20703 L 1252.4043 226.26562 C 1252.4043 221.24688 1251.1942 217.64556 1248.7734 215.46094 C 1246.3526 213.21726 1242.5435 212.09375 1237.3477 212.09375 L 1235.9316 212.09375 C 1233.0384 212.09375 1230.676 212.80364 1228.8457 214.2207 L 1228.8457 212.09375 L 1221.7598 212.09375 z M 1266.1328 212.09375 L 1266.1328 218.73633 L 1278.0879 218.73633 C 1280.2725 218.73633 1281.927 219.23843 1283.0488 220.24219 C 1284.1706 221.24593 1284.7305 222.66377 1284.7305 224.49414 L 1284.7305 228.92188 L 1275.5195 228.92188 C 1266.8991 228.92187 1262.5898 233.49856 1262.5898 242.65039 L 1262.5898 244.42188 C 1262.5898 248.79113 1263.5941 251.89034 1265.6016 253.7207 C 1267.6682 255.49202 1270.9443 256.37695 1275.4316 256.37695 L 1281.543 256.37695 C 1283.7867 256.37695 1285.5873 255.49202 1286.9453 253.7207 C 1287.5948 254.54732 1288.3624 255.19757 1289.248 255.66992 C 1290.1927 256.14227 1291.0488 256.37695 1291.8164 256.37695 L 1296.6875 256.37695 L 1296.6875 250.17773 C 1295.0934 250.17773 1293.9429 249.97191 1293.2344 249.55859 C 1292.5848 249.08625 1292.2598 248.40715 1292.2598 247.52148 L 1292.2598 226.26562 C 1292.2598 221.30592 1291.0189 217.70461 1288.5391 215.46094 C 1286.1183 213.21726 1282.34 212.09375 1277.2031 212.09375 L 1266.1328 212.09375 z M 1321.4863 212.09375 C 1316.3495 212.09375 1312.5404 213.21726 1310.0605 215.46094 C 1307.6397 217.70461 1306.4297 221.30593 1306.4297 226.26562 L 1306.4297 242.20703 C 1306.4297 247.22578 1307.6397 250.85789 1310.0605 253.10156 C 1312.4813 255.28619 1316.2905 256.37695 1321.4863 256.37695 L 1331.1406 256.37695 L 1331.1406 249.73438 L 1320.5996 249.73438 C 1318.4149 249.73437 1316.7624 249.23422 1315.6406 248.23047 C 1314.5188 247.22672 1313.957 245.80888 1313.957 243.97852 L 1313.957 224.49414 C 1313.957 222.66377 1314.5188 221.24593 1315.6406 220.24219 C 1316.7624 219.23843 1318.4149 218.73633 1320.5996 218.73633 L 1331.1406 218.73633 L 1331.1406 212.09375 L 1321.4863 212.09375 z M 1355.0527 212.09375 C 1349.9749 212.09375 1346.3428 213.18646 1344.1582 215.37109 C 1341.9735 217.55573 1340.8828 221.18784 1340.8828 226.26562 L 1340.8828 242.20703 C 1340.8828 247.22578 1342.0929 250.85789 1344.5137 253.10156 C 1346.9345 255.28619 1350.7416 256.37695 1355.9375 256.37695 L 1367.3633 256.37695 L 1367.3633 249.73438 L 1355.0527 249.73438 C 1352.8681 249.73437 1351.2156 249.23422 1350.0938 248.23047 C 1348.9719 247.22672 1348.4102 245.80888 1348.4102 243.97852 L 1348.4102 237.33594 L 1370.1973 237.33594 L 1370.1973 225.82227 C 1370.1973 221.33492 1369.1045 217.93944 1366.9199 215.63672 C 1364.7943 213.27495 1361.6355 212.09375 1357.4434 212.09375 L 1355.0527 212.09375 z M 596.12891 218.73633 L 599.05273 218.73633 C 601.23736 218.73633 602.88988 219.23843 604.01172 220.24219 C 605.13356 221.24593 605.69531 222.66377 605.69531 224.49414 L 605.69531 243.97852 C 605.69531 245.80888 605.13356 247.22672 604.01172 248.23047 C 602.88988 249.23422 601.23736 249.73437 599.05273 249.73438 L 596.12891 249.73438 C 593.94427 249.73437 592.29176 249.23422 591.16992 248.23047 C 590.04808 247.22672 589.48633 245.80888 589.48633 243.97852 L 589.48633 224.49414 C 589.48633 222.66377 590.04808 221.24593 591.16992 220.24219 C 592.29176 219.23843 593.94427 218.73633 596.12891 218.73633 z M 1128.5 218.73633 L 1131.8652 218.73633 C 1133.4004 218.73633 1134.67 219.23843 1135.6738 220.24219 C 1136.6776 221.24593 1137.1797 222.51563 1137.1797 224.05078 L 1137.1797 230.69336 L 1122.7441 230.69336 L 1122.7441 224.49414 C 1122.7441 222.60473 1123.1578 221.18689 1123.9844 220.24219 C 1124.87 219.23843 1126.3744 218.73633 1128.5 218.73633 z M 1235.0449 218.73633 L 1238.2344 218.73633 C 1240.419 218.73633 1242.0715 219.23843 1243.1934 220.24219 C 1244.3152 221.24593 1244.877 222.66377 1244.877 224.49414 L 1244.877 243.97852 C 1244.877 245.80888 1244.3152 247.22672 1243.1934 248.23047 C 1242.0715 249.23422 1240.419 249.73437 1238.2344 249.73438 L 1229.2891 249.73438 L 1229.2891 223.60742 C 1229.2891 222.42654 1229.7603 221.33578 1230.7051 220.33203 C 1231.6497 219.26924 1233.0965 218.73633 1235.0449 218.73633 z M 1354.166 218.73633 L 1357.5332 218.73633 C 1359.0683 218.73633 1360.3361 219.23843 1361.3398 220.24219 C 1362.3436 221.24593 1362.8457 222.51563 1362.8457 224.05078 L 1362.8457 230.69336 L 1348.4102 230.69336 L 1348.4102 224.49414 C 1348.4102 222.60473 1348.8238 221.18689 1349.6504 220.24219 C 1350.5361 219.23843 1352.0405 218.73633 1354.166 218.73633 z M 1009.1133 235.56445 L 1018.4121 235.56445 L 1018.4121 245.30664 C 1018.4121 246.60561 1018.1774 247.66948 1017.7051 248.49609 C 1017.2327 249.32271 1016.1092 249.73437 1014.3379 249.73438 L 1008.2285 249.73438 C 1006.6934 249.73438 1005.5699 249.38041 1004.8613 248.67188 C 1004.1528 247.96335 1003.7988 246.84179 1003.7988 245.30664 L 1003.7988 240.87891 C 1003.7988 239.34376 1004.301 238.07407 1005.3047 237.07031 C 1006.3084 236.06657 1007.5781 235.56445 1009.1133 235.56445 z M 1275.4316 235.56445 L 1284.7305 235.56445 L 1284.7305 245.30664 C 1284.7305 246.60561 1284.4958 247.66948 1284.0234 248.49609 C 1283.5511 249.32271 1282.4276 249.73437 1280.6562 249.73438 L 1274.5469 249.73438 C 1273.0117 249.73438 1271.8882 249.38041 1271.1797 248.67188 C 1270.4712 247.96335 1270.1172 246.84179 1270.1172 245.30664 L 1270.1172 240.87891 C 1270.1172 239.34376 1270.6193 238.07407 1271.623 237.07031 C 1272.6268 236.06657 1273.8965 235.56445 1275.4316 235.56445 z M 926.21484 282.94727 L 926.21484 300.66016 L 917.71289 300.66016 C 912.57606 300.66016 908.76891 301.78172 906.28906 304.02539 C 903.86826 306.26906 902.65625 309.87233 902.65625 314.83203 L 902.65625 330.77344 C 902.65625 335.79218 903.86826 339.42234 906.28906 341.66602 C 908.70987 343.85065 912.51702 344.94336 917.71289 344.94336 L 919.57227 344.94336 C 922.34734 344.94336 924.70975 344.26426 926.6582 342.90625 L 926.6582 344.94336 L 933.74414 344.94336 L 933.74414 282.94727 L 926.21484 282.94727 z M 1076.334 282.94727 L 1076.334 344.94336 L 1083.8633 344.94336 L 1083.8633 325.99023 L 1086.3438 323.06836 L 1098.4766 344.94336 L 1107.2441 344.94336 L 1091.6562 317.75391 L 1106.625 300.66016 L 1097.1484 300.66016 L 1083.8633 316.07031 L 1083.8633 282.94727 L 1076.334 282.94727 z M 817.98828 300.66016 L 817.98828 307.30273 L 829.94336 307.30273 C 832.12799 307.30273 833.78246 307.80484 834.9043 308.80859 C 836.02613 309.81234 836.58594 311.23018 836.58594 313.06055 L 836.58594 317.48828 L 827.375 317.48828 C 818.75457 317.48828 814.44531 322.06496 814.44531 331.2168 L 814.44531 332.98633 C 814.44531 337.35559 815.44953 340.45674 817.45703 342.28711 C 819.52357 344.05844 822.79976 344.94336 827.28711 344.94336 L 833.39844 344.94336 C 835.64211 344.94336 837.44277 344.05844 838.80078 342.28711 C 839.45026 343.11373 840.21785 343.76202 841.10352 344.23438 C 842.04822 344.70673 842.9043 344.94336 843.67188 344.94336 L 848.54297 344.94336 L 848.54297 338.74414 C 846.94878 338.74414 845.79837 338.53831 845.08984 338.125 C 844.44036 337.65265 844.11523 336.97355 844.11523 336.08789 L 844.11523 314.83203 C 844.11523 309.87233 842.87438 306.26906 840.39453 304.02539 C 837.97372 301.78172 834.19543 300.66016 829.05859 300.66016 L 817.98828 300.66016 z M 859.17188 300.66016 L 859.17188 344.94336 L 866.69922 344.94336 L 866.69922 312.17383 C 866.69922 310.99295 867.17053 309.90024 868.11523 308.89648 C 869.05993 307.83369 870.50662 307.30273 872.45508 307.30273 L 876.5293 307.30273 C 878.30062 307.30273 879.68961 307.83369 880.69336 308.89648 C 881.75615 309.90024 882.28711 311.28923 882.28711 313.06055 L 882.28711 344.94336 L 889.81445 344.94336 L 889.81445 314.83203 C 889.81445 309.87233 888.63324 306.26906 886.27148 304.02539 C 883.96876 301.78172 880.4271 300.66016 875.64453 300.66016 L 873.3418 300.66016 C 870.44864 300.66016 868.08623 301.37006 866.25586 302.78711 L 866.25586 300.66016 L 859.17188 300.66016 z M 970.94141 300.66016 L 970.94141 344.94336 L 978.46875 344.94336 L 978.46875 311.9082 C 978.46875 310.78636 978.94201 309.75329 979.88672 308.80859 C 980.89047 307.80484 982.33715 307.30273 984.22656 307.30273 L 986.5293 307.30273 C 988.30062 307.30273 989.68766 307.83369 990.69141 308.89648 C 991.69515 309.90024 992.19727 311.28923 992.19727 313.06055 L 992.19727 344.94336 L 999.72461 344.94336 L 999.72461 312.43945 C 999.8427 311.19953 1000.3448 310.04912 1001.2305 308.98633 C 1002.1752 307.86449 1003.5622 307.30273 1005.3926 307.30273 L 1007.6973 307.30273 C 1009.4685 307.30273 1010.8556 307.83369 1011.8594 308.89648 C 1012.9222 309.90024 1013.4531 311.28923 1013.4531 313.06055 L 1013.4531 344.94336 L 1020.9805 344.94336 L 1020.9805 314.83203 C 1020.9805 309.87233 1019.8013 306.26906 1017.4395 304.02539 C 1015.1368 301.78172 1011.5931 300.66016 1006.8105 300.66016 L 1006.2793 300.66016 C 1002.3824 300.66016 999.34085 302.01835 997.15625 304.73438 C 994.85353 302.01835 991.01559 300.66016 985.64258 300.66016 L 985.11133 300.66016 C 982.21817 300.66016 979.85771 301.37006 978.02734 302.78711 L 978.02734 300.66016 L 970.94141 300.66016 z M 1035.1523 300.66016 L 1035.1523 307.30273 L 1047.1074 307.30273 C 1049.2921 307.30273 1050.9466 307.80484 1052.0684 308.80859 C 1053.1902 309.81234 1053.75 311.23018 1053.75 313.06055 L 1053.75 317.48828 L 1044.5391 317.48828 C 1035.9186 317.48828 1031.6094 322.06496 1031.6094 331.2168 L 1031.6094 332.98633 C 1031.6094 337.35559 1032.6136 340.45674 1034.6211 342.28711 C 1036.6876 344.05844 1039.9638 344.94336 1044.4512 344.94336 L 1050.5625 344.94336 C 1052.8062 344.94336 1054.6068 344.05844 1055.9648 342.28711 C 1056.6144 343.11373 1057.382 343.76202 1058.2676 344.23438 C 1059.2123 344.70673 1060.0683 344.94336 1060.8359 344.94336 L 1065.707 344.94336 L 1065.707 338.74414 C 1064.1128 338.74414 1062.9605 338.53831 1062.252 338.125 C 1061.6025 337.65265 1061.2793 336.97355 1061.2793 336.08789 L 1061.2793 314.83203 C 1061.2793 309.87233 1060.0385 306.26906 1057.5586 304.02539 C 1055.1378 301.78172 1051.3595 300.66016 1046.2227 300.66016 L 1035.1523 300.66016 z M 1129.3867 300.66016 C 1124.3089 300.66016 1120.6768 301.75287 1118.4922 303.9375 C 1116.3075 306.12213 1115.2148 309.75424 1115.2148 314.83203 L 1115.2148 330.77344 C 1115.2148 335.79218 1116.4269 339.42234 1118.8477 341.66602 C 1121.2685 343.85065 1125.0756 344.94336 1130.2715 344.94336 L 1141.6973 344.94336 L 1141.6973 338.30078 L 1129.3867 338.30078 C 1127.2021 338.30078 1125.5476 337.79868 1124.4258 336.79492 C 1123.3039 335.79118 1122.7441 334.37529 1122.7441 332.54492 L 1122.7441 325.90234 L 1144.5312 325.90234 L 1144.5312 314.38867 C 1144.5312 309.90133 1143.4386 306.50584 1141.2539 304.20312 C 1139.1284 301.84136 1135.9695 300.66016 1131.7773 300.66016 L 1129.3867 300.66016 z M 1157.373 300.66016 L 1157.373 344.94336 L 1164.9004 344.94336 L 1164.9004 313.50195 C 1164.9004 312.26203 1165.3736 310.99428 1166.3184 309.69531 C 1167.2631 308.39634 1168.7098 307.74609 1170.6582 307.74609 L 1178.0098 307.74609 L 1178.0098 300.66016 L 1171.543 300.66016 C 1168.7679 300.66016 1166.4075 301.45855 1164.459 303.05273 L 1164.459 300.66016 L 1157.373 300.66016 z M 1197.9355 300.66016 C 1193.5663 300.66016 1190.2612 301.54704 1188.0176 303.31836 C 1185.7739 305.03064 1184.6523 307.86437 1184.6523 311.82031 L 1184.6523 314.38867 C 1184.6523 318.28558 1185.6546 321.14815 1187.6621 322.97852 C 1189.7286 324.74984 1192.8298 325.63672 1196.9629 325.63672 L 1198.4668 325.63672 C 1201.0057 325.63672 1202.2754 326.96411 1202.2754 329.62109 L 1202.2754 334.31641 C 1202.2754 335.61538 1201.8618 336.61765 1201.0352 337.32617 C 1200.2086 337.97566 1198.9985 338.30078 1197.4043 338.30078 L 1185.0938 338.30078 L 1185.0938 344.94336 L 1196.5195 344.94336 C 1200.8298 344.94336 1204.1059 344.02763 1206.3496 342.19727 C 1208.6523 340.3669 1209.8047 337.59283 1209.8047 333.87305 L 1209.8047 329.88672 C 1209.8047 326.1079 1208.7716 323.27418 1206.7051 321.38477 C 1204.6385 319.43631 1201.6259 318.46289 1197.6699 318.46289 L 1196.4316 318.46289 C 1195.1917 318.46289 1194.1567 318.13777 1193.3301 317.48828 C 1192.5625 316.8388 1192.1797 315.83458 1192.1797 314.47656 L 1192.1797 311.28906 C 1192.1797 309.99009 1192.6221 309.01471 1193.5078 308.36523 C 1194.3935 307.6567 1195.5747 307.30273 1197.0508 307.30273 L 1208.0332 307.30273 L 1208.0332 300.66016 L 1197.9355 300.66016 z M 1221.7598 300.66016 L 1221.7598 360 L 1229.2891 360 L 1229.2891 344.94336 L 1237.3477 344.94336 C 1242.4845 344.94336 1246.2647 343.82181 1248.6855 341.57812 C 1251.1654 339.33445 1252.4043 335.73314 1252.4043 330.77344 L 1252.4043 314.83203 C 1252.4043 309.81328 1251.1942 306.21002 1248.7734 304.02539 C 1246.3526 301.78172 1242.5435 300.66016 1237.3477 300.66016 L 1235.9316 300.66016 C 1233.0384 300.66016 1230.676 301.37006 1228.8457 302.78711 L 1228.8457 300.66016 L 1221.7598 300.66016 z M 1266.1328 300.66016 L 1266.1328 307.30273 L 1278.0879 307.30273 C 1280.2726 307.30273 1281.927 307.80484 1283.0488 308.80859 C 1284.1707 309.81234 1284.7305 311.23018 1284.7305 313.06055 L 1284.7305 317.48828 L 1275.5195 317.48828 C 1266.8991 317.48828 1262.5898 322.06496 1262.5898 331.2168 L 1262.5898 332.98633 C 1262.5898 337.35559 1263.5941 340.45674 1265.6016 342.28711 C 1267.6681 344.05844 1270.9442 344.94336 1275.4316 344.94336 L 1281.543 344.94336 C 1283.7866 344.94336 1285.5872 344.05844 1286.9453 342.28711 C 1287.5948 343.11373 1288.3624 343.76202 1289.248 344.23438 C 1290.1927 344.70673 1291.0488 344.94336 1291.8164 344.94336 L 1296.6875 344.94336 L 1296.6875 338.74414 C 1295.0933 338.74414 1293.9429 338.53831 1293.2344 338.125 C 1292.5849 337.65265 1292.2598 336.97355 1292.2598 336.08789 L 1292.2598 314.83203 C 1292.2598 309.87233 1291.0189 306.26906 1288.5391 304.02539 C 1286.1183 301.78172 1282.3399 300.66016 1277.2031 300.66016 L 1266.1328 300.66016 z M 1321.4863 300.66016 C 1316.3495 300.66016 1312.5404 301.78172 1310.0605 304.02539 C 1307.6397 306.26906 1306.4297 309.87233 1306.4297 314.83203 L 1306.4297 330.77344 C 1306.4297 335.79218 1307.6397 339.42234 1310.0605 341.66602 C 1312.4814 343.85065 1316.2905 344.94336 1321.4863 344.94336 L 1331.1406 344.94336 L 1331.1406 338.30078 L 1320.5996 338.30078 C 1318.415 338.30078 1316.7625 337.79868 1315.6406 336.79492 C 1314.5188 335.79118 1313.957 334.37529 1313.957 332.54492 L 1313.957 313.06055 C 1313.957 311.23018 1314.5188 309.81234 1315.6406 308.80859 C 1316.7625 307.80484 1318.415 307.30273 1320.5996 307.30273 L 1331.1406 307.30273 L 1331.1406 300.66016 L 1321.4863 300.66016 z M 1355.0527 300.66016 C 1349.9749 300.66016 1346.3429 301.75287 1344.1582 303.9375 C 1341.9736 306.12213 1340.8828 309.75424 1340.8828 314.83203 L 1340.8828 330.77344 C 1340.8828 335.79218 1342.0929 339.42234 1344.5137 341.66602 C 1346.9345 343.85065 1350.7416 344.94336 1355.9375 344.94336 L 1367.3633 344.94336 L 1367.3633 338.30078 L 1355.0527 338.30078 C 1352.8681 338.30078 1351.2156 337.79868 1350.0938 336.79492 C 1348.9719 335.79118 1348.4102 334.37529 1348.4102 332.54492 L 1348.4102 325.90234 L 1370.1973 325.90234 L 1370.1973 314.38867 C 1370.1973 309.90133 1369.1046 306.50584 1366.9199 304.20312 C 1364.7943 301.84136 1361.6355 300.66016 1357.4434 300.66016 L 1355.0527 300.66016 z M 916.82812 307.30273 L 926.21484 307.30273 L 926.21484 333.42969 C 926.21484 334.61057 925.74353 335.73213 924.79883 336.79492 C 923.85412 337.79868 922.40744 338.30078 920.45898 338.30078 L 916.82812 338.30078 C 914.6435 338.30078 912.98903 337.79868 911.86719 336.79492 C 910.74535 335.79118 910.18555 334.37529 910.18555 332.54492 L 910.18555 313.06055 C 910.18555 311.23018 910.74535 309.81234 911.86719 308.80859 C 912.98903 307.80484 914.6435 307.30273 916.82812 307.30273 z M 1128.5 307.30273 L 1131.8652 307.30273 C 1133.4004 307.30273 1134.6701 307.80484 1135.6738 308.80859 C 1136.6776 309.81234 1137.1797 311.08204 1137.1797 312.61719 L 1137.1797 319.25977 L 1122.7441 319.25977 L 1122.7441 313.06055 C 1122.7441 311.17113 1123.1578 309.75329 1123.9844 308.80859 C 1124.87 307.80484 1126.3744 307.30273 1128.5 307.30273 z M 1235.0449 307.30273 L 1238.2344 307.30273 C 1240.419 307.30273 1242.0715 307.80484 1243.1934 308.80859 C 1244.3152 309.81234 1244.877 311.23018 1244.877 313.06055 L 1244.877 332.54492 C 1244.877 334.37529 1244.3152 335.79118 1243.1934 336.79492 C 1242.0715 337.79868 1240.419 338.30078 1238.2344 338.30078 L 1229.2891 338.30078 L 1229.2891 312.17383 C 1229.2891 310.99295 1229.7603 309.90024 1230.7051 308.89648 C 1231.6497 307.83369 1233.0965 307.30273 1235.0449 307.30273 z M 1354.166 307.30273 L 1357.5332 307.30273 C 1359.0683 307.30273 1360.3361 307.80484 1361.3398 308.80859 C 1362.3436 309.81234 1362.8457 311.08204 1362.8457 312.61719 L 1362.8457 319.25977 L 1348.4102 319.25977 L 1348.4102 313.06055 C 1348.4102 311.17113 1348.8238 309.75329 1349.6504 308.80859 C 1350.5361 307.80484 1352.0404 307.30273 1354.166 307.30273 z M 827.28711 324.13086 L 836.58594 324.13086 L 836.58594 333.87305 C 836.58594 335.17202 836.35125 336.23393 835.87891 337.06055 C 835.40655 337.88717 834.28305 338.30078 832.51172 338.30078 L 826.40234 338.30078 C 824.8672 338.30078 823.74368 337.94681 823.03516 337.23828 C 822.32663 336.52975 821.97266 335.40819 821.97266 333.87305 L 821.97266 329.44531 C 821.97266 327.91017 822.47477 326.64047 823.47852 325.63672 C 824.48227 324.63297 825.75197 324.13086 827.28711 324.13086 z M 1044.4512 324.13086 L 1053.75 324.13086 L 1053.75 333.87305 C 1053.75 335.17202 1053.5154 336.23393 1053.043 337.06055 C 1052.5706 337.88717 1051.4471 338.30078 1049.6758 338.30078 L 1043.5664 338.30078 C 1042.0313 338.30078 1040.9078 337.94681 1040.1992 337.23828 C 1039.4907 336.52975 1039.1367 335.40819 1039.1367 333.87305 L 1039.1367 329.44531 C 1039.1367 327.91017 1039.6388 326.64047 1040.6426 325.63672 C 1041.6463 324.63297 1042.916 324.13086 1044.4512 324.13086 z M 1275.4316 324.13086 L 1284.7305 324.13086 L 1284.7305 333.87305 C 1284.7305 335.17202 1284.4958 336.23393 1284.0234 337.06055 C 1283.551 337.88717 1282.4275 338.30078 1280.6562 338.30078 L 1274.5469 338.30078 C 1273.0117 338.30078 1271.8882 337.94681 1271.1797 337.23828 C 1270.4712 336.52975 1270.1172 335.40819 1270.1172 333.87305 L 1270.1172 329.44531 C 1270.1172 327.91017 1270.6193 326.64047 1271.623 325.63672 C 1272.6268 324.63297 1273.8964 324.13086 1275.4316 324.13086 z " />
  <path
     id="path4003"
     style="font-style:normal;font-variant:normal;font-weight:normal;font-stretch:normal;font-size:213.333px;line-height:1.25;font-family:'Share Tech';-inkscape-font-specification:'Share Tech';letter-spacing:0px;word-spacing:0px;fill:#15181a;fill-opacity:1;stroke:none;stroke-width:1.03788"
     d="m 721.54297,24 v 26.570308 h -14.39063 v 16.605471 h 14.39063 v 67.531251 c 0,7.97096 1.99304,14.39254 5.97852,19.26367 3.98547,4.87114 9.74336,7.30664 17.27148,7.30664 h 21.25585 v -16.60546 h -15.72069 c -3.39505,0 -5.90559,-0.66565 -7.5293,-1.99414 -1.62372,-1.32849 -2.43555,-3.61587 -2.43555,-6.86328 V 67.175779 h 25.68554 V 50.570308 H 740.36328 V 24 Z M 431.99023,50.570308 V 161.27734 h 18.82032 V 82.675777 c 0,-3.099809 1.1812,-6.274054 3.54296,-9.521482 2.36177,-3.247427 5.97848,-4.871093 10.84961,-4.871093 h 18.37696 V 50.570308 h -16.16211 c -6.93769,0 -12.84175,1.99304 -17.71289,5.978517 v -5.978517 z m 105.91602,0 c -12.84209,0 -22.36286,2.804884 -28.5625,8.414069 -6.05201,5.609186 -9.07812,14.612452 -9.07812,27.011718 v 39.855465 c 0,12.39927 3.02611,21.40253 9.07812,27.01172 6.19964,5.6092 15.72041,8.41406 28.5625,8.41406 h 2.87891 c 12.84209,0 22.28977,-2.80486 28.34179,-8.41406 6.19963,-5.60919 9.29883,-14.61245 9.29883,-27.01172 V 85.996095 c 0,-12.399266 -3.0992,-21.402532 -9.29883,-27.011718 -6.05202,-5.609185 -15.4997,-8.414069 -28.34179,-8.414069 z m 108.97852,0 c -12.84209,0 -22.36288,2.804884 -28.56251,8.414069 -6.05202,5.609186 -9.07811,14.612452 -9.07811,27.011718 v 39.855465 c 0,12.39927 3.02609,21.40253 9.07811,27.01172 6.19963,5.6092 15.72042,8.41406 28.56251,8.41406 h 2.8789 c 12.84209,0 22.28978,-2.80486 28.3418,-8.41406 6.19963,-5.60919 9.29882,-14.61245 9.29882,-27.01172 V 85.996095 c 0,-12.399266 -3.09919,-21.402532 -9.29882,-27.011718 -6.05202,-5.609185 -15.49971,-8.414069 -28.3418,-8.414069 z m 200.93554,0 v 16.605471 h 29.89063 c 5.46158,0 9.59384,1.254304 12.39843,3.763671 2.8046,2.509376 4.20704,6.052995 4.20704,10.628914 v 11.070307 h -23.02734 c -21.55111,0 -32.32618,11.440719 -32.32618,34.320319 v 4.42773 c 0,10.92316 2.5086,18.67213 7.52734,23.24804 5.16637,4.42831 13.35975,6.64258 24.57813,6.64258 h 15.27734 c 5.6092,0 10.11083,-2.21427 13.50586,-6.64258 1.62371,2.06656 3.54366,3.69022 5.75781,4.8711 2.36177,1.18088 4.501,1.77148 6.41993,1.77148 h 12.17773 V 145.7793 c -3.98548,0 -6.86344,-0.51752 -8.63477,-1.55078 -1.6237,-1.18089 -2.43554,-2.87764 -2.43554,-5.0918 V 85.996095 c 0,-12.399266 -3.09919,-21.402532 -9.29883,-27.011718 -6.05202,-5.609185 -15.4997,-8.414069 -28.3418,-8.414069 z m 138.53906,0 c -12.84209,0 -22.36286,2.804884 -28.5625,8.414069 -6.05202,5.609186 -9.07812,14.612452 -9.07812,27.011718 v 39.855465 c 0,12.54688 3.0261,21.62518 9.07812,27.23438 6.05202,5.46158 15.5728,8.1914 28.5625,8.1914 h 24.13473 v -16.60546 h -26.34762 c -5.46158,0 -9.59579,-1.25431 -12.40039,-3.76367 -2.8046,-2.50938 -4.20703,-6.053 -4.20703,-10.62892 V 81.568364 c 0,-4.575919 1.40243,-8.119538 4.20703,-10.628914 2.8046,-2.509367 6.93881,-3.763671 12.40039,-3.763671 h 26.34762 V 50.570308 Z m 86.05853,0 c -12.842,0 -22.3628,2.804884 -28.5624,8.414069 -6.0521,5.609186 -9.0782,14.612452 -9.0782,27.011718 v 39.855465 c 0,12.54688 3.0261,21.62518 9.0782,27.23438 6.052,5.46158 15.5728,8.1914 28.5624,8.1914 h 24.1348 v -16.60546 h -26.3496 c -5.4616,0 -9.5938,-1.25431 -12.3984,-3.76367 -2.8046,-2.50938 -4.207,-6.053 -4.207,-10.62892 V 81.568364 c 0,-4.575919 1.4024,-8.119538 4.207,-10.628914 2.8046,-2.509367 6.9368,-3.763671 12.3984,-3.763671 h 26.3496 V 50.570308 Z m 83.8438,0 c -12.6945,0 -21.7728,2.729834 -27.2343,8.191412 -5.4617,5.461578 -8.1914,14.539893 -8.1914,27.234375 v 39.855465 c 0,12.54688 3.026,21.62518 9.078,27.23438 6.0522,5.46158 15.5729,8.1914 28.5625,8.1914 h 28.5626 v -16.60546 h -30.7774 c -5.4616,0 -9.5958,-1.25431 -12.4004,-3.76367 -2.8045,-2.50938 -4.205,-6.053 -4.205,-10.62892 v -16.60546 h 54.4668 V 84.888672 c 0,-11.218382 -2.7299,-19.706089 -8.1914,-25.462893 -5.314,-5.904401 -13.2111,-8.855471 -23.6915,-8.855471 z m 98.9277,0 c -10.9231,0 -19.1895,2.214276 -24.7988,6.642587 -5.6092,4.280693 -8.414,11.365958 -8.414,21.255858 v 6.419919 c 0,9.742281 2.5104,16.902598 7.5292,21.478518 5.1664,4.42831 12.9154,6.64257 23.2481,6.64257 h 3.7637 c 6.3473,0 9.5215,3.32044 9.5215,9.9629 v 11.73437 c 0,3.24743 -1.033,5.75797 -3.0997,7.5293 -2.0665,1.6237 -5.0926,2.43555 -9.0781,2.43555 h -30.7773 v 16.60546 h 28.5625 c 10.7755,0 18.9689,-2.28736 24.5782,-6.86327 5.7567,-4.57593 8.6346,-11.51307 8.6346,-20.81251 v -9.96484 c 0,-9.44706 -2.5836,-16.53233 -7.75,-21.25586 -5.1662,-4.871137 -12.694,-7.306637 -22.5839,-7.306637 h -3.0997 c -3.0997,0 -5.6833,-0.811833 -7.7499,-2.435552 -1.9189,-1.623719 -2.8789,-4.132307 -2.8789,-7.527342 v -7.970705 c 0,-3.247427 1.1081,-5.684889 3.3222,-7.308597 2.2142,-1.771317 5.1653,-2.656248 8.8555,-2.656248 h 27.455 V 50.570308 Z m 86.0586,0 c -10.9231,0 -19.1896,2.214276 -24.7988,6.642587 -5.6092,4.280693 -8.414,11.365958 -8.414,21.255858 v 6.419919 c 0,9.742281 2.5086,16.902598 7.5273,21.478518 5.1663,4.42831 12.9173,6.64257 23.25,6.64257 h 3.7637 c 6.3472,0 9.5195,3.32044 9.5195,9.9629 v 11.73437 c 0,3.24743 -1.0331,5.75797 -3.0996,7.5293 -2.0666,1.6237 -5.0926,2.43555 -9.0781,2.43555 h -30.7754 v 16.60546 h 28.5625 c 10.7755,0 18.9669,-2.28736 24.5762,-6.86327 5.7567,-4.57593 8.6348,-11.51307 8.6348,-20.81251 v -9.96484 c 0,-9.44706 -2.5818,-16.53233 -7.7482,-21.25586 -5.1663,-4.871137 -12.696,-7.306637 -22.5859,-7.306637 h -3.0995 c -3.0999,0 -5.6816,-0.811833 -7.7481,-2.435552 -1.919,-1.623719 -2.8789,-4.132307 -2.8789,-7.527342 v -7.970705 c 0,-3.247427 1.1061,-5.684889 3.3203,-7.308597 2.2141,-1.771317 5.1671,-2.656248 8.8574,-2.656248 h 27.455 V 50.570308 Z M 535.69336,67.175779 H 543 c 5.46158,0 9.59385,1.254304 12.39844,3.763671 2.8046,2.509376 4.20703,6.052995 4.20703,10.628914 v 48.710926 c 0,4.57592 -1.40243,8.11954 -4.20703,10.62892 -2.80459,2.50936 -6.93686,3.76367 -12.39844,3.76367 h -7.30664 c -5.46158,0 -9.59579,-1.25431 -12.40039,-3.76367 -2.80459,-2.50938 -4.20704,-6.053 -4.20704,-10.62892 V 81.568364 c 0,-4.575919 1.40245,-8.119538 4.20704,-10.628914 2.8046,-2.509367 6.93881,-3.763671 12.40039,-3.763671 z m 108.97656,0 h 7.3086 c 5.46158,0 9.59383,1.254304 12.39843,3.763671 2.8046,2.509376 4.20704,6.052995 4.20704,10.628914 v 48.710926 c 0,4.57592 -1.40244,8.11954 -4.20704,10.62892 -2.8046,2.50936 -6.93685,3.76367 -12.39843,3.76367 h -7.3086 c -5.46158,0 -9.59383,-1.25431 -12.39843,-3.76367 -2.8046,-2.50938 -4.20704,-6.053 -4.20704,-10.62892 V 81.568364 c 0,-4.575919 1.40244,-8.119538 4.20704,-10.628914 2.8046,-2.509367 6.93685,-3.763671 12.39843,-3.763671 z m 509.37688,0 h 8.4142 c 3.8379,0 7.0121,1.254304 9.5214,3.763671 2.5094,2.509376 3.7637,5.683622 3.7637,9.521491 v 16.60546 h -36.0898 V 81.568364 c 0,-4.723527 1.0331,-8.267146 3.0996,-10.628914 2.2141,-2.509367 5.977,-3.763671 11.2909,-3.763671 z M 871.06836,109.24414 h 23.24805 v 24.35742 c 0,3.24743 -0.59061,5.90416 -1.77149,7.97071 -1.18088,2.06654 -3.98575,3.09961 -8.41406,3.09961 h -15.27735 c -3.83786,0 -6.64274,-0.88688 -8.41405,-2.65821 -1.77133,-1.77132 -2.65625,-4.57425 -2.65625,-8.41211 v -11.07227 c 0,-3.83787 1.25429,-7.01015 3.76367,-9.51953 2.50938,-2.50937 5.68362,-3.76562 9.52148,-3.76562 z" />
  <path
     style="color:#000000;font-style:normal;font-variant:normal;font-weight:normal;font-stretch:normal;font-size:medium;line-height:normal;font-family:sans-serif;font-variant-ligatures:normal;font-variant-position:normal;font-variant-caps:normal;font-variant-numeric:normal;font-variant-alternates:normal;font-feature-settings:normal;text-indent:0;text-align:start;text-decoration:none;text-decoration-line:none;text-decoration-style:solid;text-decoration-color:#000000;letter-spacing:normal;word-spacing:normal;text-transform:none;writing-mode:lr-tb;direction:ltr;text-orientation:mixed;dominant-baseline:auto;baseline-shift:baseline;text-anchor:start;white-space:normal;shape-padding:0;clip-rule:nonzero;display:inline;overflow:visible;visibility:visible;opacity:1;isolation:auto;mix-blend-mode:normal;color-interpolation:sRGB;color-interpolation-filters:linearRGB;solid-color:#000000;solid-opacity:1;vector-effect:none;fill:#661399;fill-opacity:1;fill-rule:nonzero;stroke:none;stroke-width:29.5403;stroke-linecap:butt;stroke-linejoin:miter;stroke-miterlimit:4;stroke-dasharray:none;stroke-dashoffset:0;stroke-opacity:1;color-rendering:auto;image-rendering:auto;shape-rendering:auto;text-rendering:auto;enable-background:accumulate"
     d="m 192.00002,0 c -24.47047,-9.9999962e-6 -44.30771,19.837221 -44.30771,44.307691 0.0187,11.45992 4.47691,22.46684 12.43849,30.70961 L 49.75961,295.7625 c -1.8078,-0.23802 -3.62857,-0.36421 -5.45191,-0.37787 C 19.83724,295.38463 10e-6,315.22185 0,339.69231 0,364.16277 19.83723,384 44.3077,384 63.06384,383.9761 79.77295,372.14503 86.025,354.46155 h 64.25194 c 6.25275,17.68548 22.96482,29.51702 41.72308,29.53845 18.75614,-0.0239 35.46525,-11.85497 41.71729,-29.53845 h 64.25193 c 6.25276,17.68548 22.96482,29.51702 41.72308,29.53845 24.47049,0 44.30769,-19.83723 44.30769,-44.30769 -0.024,-18.75614 -11.855,-35.46525 -29.53845,-41.71729 v -64.25193 c 17.68545,-6.25276 29.51705,-22.96482 29.53845,-41.72308 0,-24.47047 -19.8372,-44.30771 -44.30769,-44.30771 -6.59894,0.0144 -13.11134,1.50251 -19.06154,4.35578 L 231.95194,63.369221 c 2.85327,-5.9502 4.34143,-12.4626 4.35577,-19.06153 C 236.30771,19.837231 216.47049,0 192.00002,0 Z m -5.44328,88.225951 c 1.8047,0.24154 3.62257,0.3716 5.44328,0.38944 1.82335,-0.0137 3.64412,-0.13987 5.45191,-0.3779 L 307.8231,308.9827 c -4.3815,4.55066 -7.73926,9.98564 -9.84807,15.94039 H 233.7231 c -6.25276,-17.68548 -22.96482,-29.51703 -41.72308,-29.53846 -18.75615,0.0239 -35.46527,11.85497 -41.71731,29.53846 H 86.03077 C 83.93136,318.95521 80.5783,313.5061 76.19711,308.94231 Z m 59.3625,30.891349 53.8327,53.8327 c -2.85558,5.94577 -4.34764,12.45409 -4.3673,19.05001 0.0239,18.75614 11.85498,35.46526 29.53846,41.71729 v 43.40771 z"
     id="line4594" />
</svg>
