<?xml version="1.0" encoding="UTF-8" standalone="no"?>
<svg xmlns:dc="http://purl.org/dc/elements/1.1/" xmlns:cc="http://creativecommons.org/ns#" xmlns:rdf="http://www.w3.org/1999/02/22-rdf-syntax-ns#" xmlns:svg="http://www.w3.org/2000/svg" xmlns="http://www.w3.org/2000/svg" height="3.2083333in" version="1.1" width="13.696566in" id="svg4606">
  <metadata id="metadata4610">
    <rdf:RDF>
      <cc:Work rdf:about="">
        <dc:format>image/svg+xml</dc:format>
        <dc:type rdf:resource="http://purl.org/dc/dcmitype/StillImage"/>
        <dc:title/>
      </cc:Work>
    </rdf:RDF>
  </metadata>
  <defs id="defs4584"/>
  <path style="color:#000000;font-style:normal;font-variant:normal;font-weight:normal;font-stretch:normal;font-size:medium;line-height:normal;font-family:sans-serif;font-variant-ligatures:normal;font-variant-position:normal;font-variant-caps:normal;font-variant-numeric:normal;font-variant-alternates:normal;font-feature-settings:normal;text-indent:0;text-align:start;text-decoration:none;text-decoration-line:none;text-decoration-style:solid;text-decoration-color:#000000;letter-spacing:normal;word-spacing:normal;text-transform:none;writing-mode:lr-tb;direction:ltr;text-orientation:mixed;dominant-baseline:auto;baseline-shift:baseline;text-anchor:start;white-space:normal;shape-padding:0;clip-rule:nonzero;display:inline;overflow:visible;visibility:visible;opacity:1;isolation:auto;mix-blend-mode:normal;color-interpolation:sRGB;color-interpolation-filters:linearRGB;solid-color:#000000;solid-opacity:1;vector-effect:none;fill:#661399;fill-opacity:1;fill-rule:nonzero;stroke:none;stroke-width:20.00126076;stroke-linecap:butt;stroke-linejoin:miter;stroke-miterlimit:4;stroke-dasharray:none;stroke-dashoffset:0;stroke-opacity:1;color-rendering:auto;image-rendering:auto;shape-rendering:auto;text-rendering:auto;enable-background:accumulate" d="m 154,24 a 30,30 0 0 0 -30,30 30,30 0 0 0 8.42188,20.792969 L 57.691406,224.25586 A 30,30 0 0 0 54,224 30,30 0 0 0 24,254 30,30 0 0 0 54,284 30,30 0 0 0 82.246094,264 H 125.75 A 30,30 0 0 0 154,284 30,30 0 0 0 182.24609,264 H 225.75 A 30,30 0 0 0 254,284 30,30 0 0 0 284,254 30,30 0 0 0 264,225.75391 V 182.25 A 30,30 0 0 0 284,154 30,30 0 0 0 254,124 30,30 0 0 0 241.09375,126.94922 L 181.05078,66.90625 A 30,30 0 0 0 184,54 30,30 0 0 0 154,24 Z m -3.68555,59.736328 A 30,30 0 0 0 154,84 30,30 0 0 0 157.69141,83.744141 L 232.42188,233.20703 A 30,30 0 0 0 225.75391,244 H 182.25 A 30,30 0 0 0 154,224 30,30 0 0 0 125.75391,244 H 82.25 a 30,30 0 0 0 -6.658203,-10.82031 z m 40.19336,20.916012 36.44922,36.44922 A 30,30 0 0 0 224,154 a 30,30 0 0 0 20,28.24609 v 29.39063 z" id="line4594"/>
  <g id="text3881" style="font-style:normal;font-weight:normal;font-size:40px;line-height:1.25;font-family:sans-serif;letter-spacing:0px;word-spacing:0px;fill:#333333;fill-opacity:1;stroke:none" aria-label="root access">
    <path id="path4003" style="font-style:normal;font-variant:normal;font-weight:normal;font-stretch:normal;font-size:213.33332825px;font-family:'Share Tech';-inkscape-font-specification:'Share Tech';fill:#333333;fill-opacity:1" d="m 386.21697,113.46667 h 17.06666 v 5.76 q 7.04,-5.76 17.06667,-5.76 h 15.57333 v 17.06666 h -17.70667 q -7.04,0 -10.45333,4.69334 Q 404.3503,139.92 404.3503,144.4 v 75.73333 h -18.13333 z"/>
    <path id="path4005" style="font-style:normal;font-variant:normal;font-weight:normal;font-stretch:normal;font-size:213.33332825px;font-family:'Share Tech';-inkscape-font-specification:'Share Tech';fill:#333333;fill-opacity:1" d="m 527.30696,186 q 0,17.92 -8.96,26.02666 -8.74667,8.10667 -27.30666,8.10667 h -2.77334 q -18.56,0 -27.52,-8.10667 Q 452.0003,203.92 452.0003,186 v -38.4 q 0,-17.92 8.74666,-26.02667 8.96,-8.10666 27.52,-8.10666 h 2.77334 q 18.55999,0 27.30666,8.10666 8.96,8.10667 8.96,26.02667 z m -18.13333,-42.66667 q 0,-6.61333 -4.05334,-10.24 -4.05333,-3.62666 -11.94666,-3.62666 h -7.04 q -7.89333,0 -11.94667,3.62666 -4.05333,3.62667 -4.05333,10.24 v 46.93334 q 0,6.61333 4.05333,10.24 4.05334,3.62666 11.94667,3.62666 h 7.04 q 7.89333,0 11.94666,-3.62666 4.05334,-3.62667 4.05334,-10.24 z"/>
    <path id="path4007" style="font-style:normal;font-variant:normal;font-weight:normal;font-stretch:normal;font-size:213.33332825px;font-family:'Share Tech';-inkscape-font-specification:'Share Tech';fill:#333333;fill-opacity:1" d="m 632.30695,186 q 0,17.92 -8.96,26.02666 -8.74666,8.10667 -27.30666,8.10667 h -2.77334 q -18.56,0 -27.51999,-8.10667 Q 557.00029,203.92 557.00029,186 v -38.4 q 0,-17.92 8.74667,-26.02667 8.95999,-8.10666 27.51999,-8.10666 h 2.77334 q 18.56,0 27.30666,8.10666 8.96,8.10667 8.96,26.02667 z m -18.13333,-42.66667 q 0,-6.61333 -4.05333,-10.24 -4.05334,-3.62666 -11.94667,-3.62666 h -7.04 q -7.89333,0 -11.94667,3.62666 -4.05333,3.62667 -4.05333,10.24 v 46.93334 q 0,6.61333 4.05333,10.24 4.05334,3.62666 11.94667,3.62666 h 7.04 q 7.89333,0 11.94667,-3.62666 4.05333,-3.62667 4.05333,-10.24 z"/>
    <path id="path4009" style="font-style:normal;font-variant:normal;font-weight:normal;font-stretch:normal;font-size:213.33332825px;font-family:'Share Tech';-inkscape-font-specification:'Share Tech';fill:#333333;fill-opacity:1" d="m 687.60029,220.13333 q -10.88,0 -16.64,-7.04 -5.76,-7.04 -5.76,-18.56 v -65.06666 h -13.86667 v -16 h 13.86667 V 87.866668 h 18.13333 v 25.600002 h 24.74667 v 16 H 683.33362 V 195.6 q 0,4.69333 2.34667,6.61333 2.34666,1.92 7.25333,1.92 h 15.14667 v 16 z"/>
    <path id="path4011" style="font-style:normal;font-variant:normal;font-weight:normal;font-stretch:normal;font-size:213.33332825px;font-family:'Share Tech';-inkscape-font-specification:'Share Tech';fill:#333333;fill-opacity:1" d="m 848.73361,220.13333 q -2.77333,0 -6.18667,-1.70667 -3.2,-1.70666 -5.54666,-4.69333 -4.90667,6.4 -13.01334,6.4 h -14.72 q -16.21333,0 -23.68,-6.4 -7.25333,-6.61333 -7.25333,-22.4 v -4.26666 Q 778.33361,154 809.48028,154 h 22.18666 v -10.66667 q 0,-6.61333 -4.05333,-10.24 -4.05333,-3.62666 -11.94667,-3.62666 h -28.8 v -16 h 26.66667 q 18.56,0 27.30667,8.10666 8.96,8.10667 8.96,26.02667 v 51.2 q 0,3.2 2.34666,4.90667 2.56,1.49333 8.32,1.49333 v 14.93333 z m -26.88,-16 q 6.4,0 8.10667,-2.98666 1.70666,-2.98667 1.70666,-7.68 V 170 h -22.4 q -5.54666,0 -9.17333,3.62667 -3.62667,3.62666 -3.62667,9.17333 v 10.66667 q 0,5.54666 2.56,8.10666 2.56,2.56 8.10667,2.56 z"/>
    <path id="path4013" style="font-style:normal;font-variant:normal;font-weight:normal;font-stretch:normal;font-size:213.33332825px;font-family:'Share Tech';-inkscape-font-specification:'Share Tech';fill:#333333;fill-opacity:1" d="m 920.3503,220.13333 q -18.77334,0 -27.52,-7.89333 -8.74667,-8.10667 -8.74667,-26.24 v -38.4 q 0,-17.92 8.74667,-26.02667 8.96,-8.10666 27.52,-8.10666 h 23.25333 v 16 h -25.38667 q -7.89333,0 -11.94666,3.62666 -4.05334,3.62667 -4.05334,10.24 v 46.93334 q 0,6.61333 4.05334,10.24 4.05333,3.62666 11.94666,3.62666 h 25.38667 v 16 z"/>
    <path id="path4015" style="font-style:normal;font-variant:normal;font-weight:normal;font-stretch:normal;font-size:213.33332825px;font-family:'Share Tech';-inkscape-font-specification:'Share Tech';fill:#333333;fill-opacity:1" d="m 1003.2669,220.13333 q -18.77331,0 -27.51998,-7.89333 -8.74666,-8.10667 -8.74666,-26.24 v -38.4 q 0,-17.92 8.74666,-26.02667 8.96,-8.10666 27.51998,-8.10666 h 23.2534 v 16 h -25.3867 q -7.89334,0 -11.94668,3.62666 -4.05333,3.62667 -4.05333,10.24 v 46.93334 q 0,6.61333 4.05333,10.24 4.05334,3.62666 11.94668,3.62666 h 25.3867 v 16 z"/>
    <path id="path4017" style="font-style:normal;font-variant:normal;font-weight:normal;font-stretch:normal;font-size:213.33332825px;font-family:'Share Tech';-inkscape-font-specification:'Share Tech';fill:#333333;fill-opacity:1" d="m 1086.1836,220.13333 q -18.7733,0 -27.52,-7.89333 -8.7467,-8.10667 -8.7467,-26.24 v -38.4 q 0,-18.34667 7.8934,-26.24 7.8933,-7.89333 26.24,-7.89333 h 5.76 q 15.1466,0 22.8266,8.53333 7.8934,8.32 7.8934,24.53333 v 27.73334 h -52.48 v 16 q 0,6.61333 4.0533,10.24 4.0533,3.62666 11.9467,3.62666 h 29.6533 v 16 z m 16.64,-61.86666 v -16 q 0,-5.54667 -3.6267,-9.17334 -3.6266,-3.62666 -9.1733,-3.62666 h -8.1067 q -7.68,0 -10.88,3.62666 -2.9866,3.41334 -2.9866,10.24 v 14.93334 z"/>
    <path id="path4019" style="font-style:normal;font-variant:normal;font-weight:normal;font-stretch:normal;font-size:213.33332825px;font-family:'Share Tech';-inkscape-font-specification:'Share Tech';fill:#333333;fill-opacity:1" d="m 1207.9536,193.46667 q 0,13.43999 -8.32,20.05333 -8.1067,6.61333 -23.68,6.61333 h -27.52 v -16 h 29.6533 q 5.76,0 8.7467,-2.34666 2.9867,-2.56 2.9867,-7.25334 v -11.30666 q 0,-9.6 -9.1734,-9.6 h -3.6266 q -14.9334,0 -22.4,-6.4 -7.2534,-6.61334 -7.2534,-20.69334 v -6.18666 q 0,-14.29334 8.1067,-20.48 8.1067,-6.4 23.8933,-6.4 h 24.32 v 16 h -26.4533 q -5.3333,0 -8.5333,2.56 -3.2,2.34666 -3.2,7.04 v 7.68 q 0,4.90666 2.7733,7.25333 2.9867,2.34667 7.4667,2.34667 h 2.9866 q 14.2934,0 21.76,7.04 7.4667,6.82666 7.4667,20.48 z"/>
    <path id="path4021" style="font-style:normal;font-variant:normal;font-weight:normal;font-stretch:normal;font-size:213.33332825px;font-family:'Share Tech';-inkscape-font-specification:'Share Tech';fill:#333333;fill-opacity:1" d="m 1290.8703,193.46667 q 0,13.43999 -8.32,20.05333 -8.1067,6.61333 -23.68,6.61333 h -27.52 v -16 h 29.6533 q 5.76,0 8.7467,-2.34666 2.9866,-2.56 2.9866,-7.25334 v -11.30666 q 0,-9.6 -9.1733,-9.6 h -3.6267 q -14.9333,0 -22.4,-6.4 -7.2533,-6.61334 -7.2533,-20.69334 v -6.18666 q 0,-14.29334 8.1067,-20.48 8.1066,-6.4 23.8933,-6.4 h 24.32 v 16 h -26.4533 q -5.3334,0 -8.5334,2.56 -3.2,2.34666 -3.2,7.04 v 7.68 q 0,4.90666 2.7734,7.25333 2.9866,2.34667 7.4666,2.34667 h 2.9867 q 14.2933,0 21.76,7.04 7.4667,6.82666 7.4667,20.48 z"/>
  </g>
</svg>