<?xml version="1.0" encoding="UTF-8" standalone="no"?>
<svg
   xmlns:dc="http://purl.org/dc/elements/1.1/"
   xmlns:cc="http://creativecommons.org/ns#"
   xmlns:rdf="http://www.w3.org/1999/02/22-rdf-syntax-ns#"
   xmlns:svg="http://www.w3.org/2000/svg"
   xmlns="http://www.w3.org/2000/svg"
   xmlns:sodipodi="http://sodipodi.sourceforge.net/DTD/sodipodi-0.dtd"
   xmlns:inkscape="http://www.inkscape.org/namespaces/inkscape"
   inkscape:version="1.0 (4035a4f, 2020-05-01)"
   sodipodi:docname="esp32.svg"
   id="图层_1"
   data-name="图层 1"
   viewBox="0 0 79.205035 21.002021"
   version="1.1"
   width="79.205032"
   height="21.002022">
  <sodipodi:namedview
     inkscape:current-layer="图层_1"
     inkscape:window-maximized="1"
     inkscape:window-y="23"
     inkscape:window-x="0"
     inkscape:cy="10.501011"
     inkscape:cx="39.602516"
     inkscape:zoom="10.201372"
     showgrid="false"
     id="namedview22"
     inkscape:window-height="873"
     inkscape:window-width="1536"
     inkscape:pageshadow="2"
     inkscape:pageopacity="0"
     guidetolerance="10"
     gridtolerance="10"
     objecttolerance="10"
     borderopacity="1"
     bordercolor="#666666"
     pagecolor="#ffffff" />
  <metadata
     id="metadata47">
    <rdf:RDF>
      <cc:Work
         rdf:about="">
        <dc:format>image/svg+xml</dc:format>
        <dc:type
           rdf:resource="http://purl.org/dc/dcmitype/StillImage" />
        <dc:title>导航栏-菜单-logo</dc:title>
      </cc:Work>
    </rdf:RDF>
  </metadata>
  <defs
     id="defs12">
    <style
       id="style10">.cls-1{fill:#e7352c;}.cls-2{fill:#333;}</style>
  </defs>
  <title
     id="title14">导航栏-菜单-logo</title>
  <g
     style="font-style:normal;font-variant:normal;font-weight:normal;font-stretch:normal;font-size:21.3333px;line-height:1.25;font-family:FutureBuglerUpright;-inkscape-font-specification:FutureBuglerUpright;letter-spacing:0.11px;fill:#333333;fill-opacity:1;stroke:none"
     id="text51"
     aria-label="ESP32">
    <path
       id="path25"
       style="font-style:normal;font-variant:normal;font-weight:normal;font-stretch:normal;font-size:21.3333px;font-family:FutureBuglerUpright;-inkscape-font-specification:FutureBuglerUpright;fill:#333333;fill-opacity:1"
       d="m 28.41578,5.7737816 q 0,-0.9599985 0.448,-1.6853307 0.447999,-0.7466655 1.386664,-0.9599985 0.426666,-0.1066665 1.045332,-0.1066665 0.639999,-0.021333 1.215998,-0.021333 h 4.01066 V 5.2191158 H 32.55444 q -0.191999,0 -0.426666,0 -0.213333,0 -0.426666,0.021333 -0.895998,0.064 -0.895998,1.0453317 v 3.0719951 h 5.674658 V 11.512439 H 30.80511 v 3.157329 q 0,0.981331 0.895998,1.045331 0.213333,0.02133 0.426666,0.02133 0.234667,0 0.426666,0 h 4.010661 v 2.239996 h -4.053327 q -0.575999,0 -1.215998,0 -0.618666,-0.02133 -1.045332,-0.128 -0.938665,-0.213333 -1.386664,-0.938665 -0.448,-0.746665 -0.448,-1.706664 z" />
    <path
       id="path27"
       style="font-style:normal;font-variant:normal;font-weight:normal;font-stretch:normal;font-size:21.3333px;font-family:FutureBuglerUpright;-inkscape-font-specification:FutureBuglerUpright;fill:#333333;fill-opacity:1"
       d="m 47.055084,15.309767 q -0.02133,0.874665 -0.490666,1.599997 -0.469332,0.725332 -1.429331,0.917332 -0.490666,0.106666 -1.066665,0.128 -0.575999,0.02133 -1.237331,0.02133 h -3.903994 l -0.02133,-2.218663 h 3.775994 q 0.255999,0 0.554666,0 0.298666,0 0.469332,-0.02133 0.895999,-0.064 0.959999,-1.066665 0.02133,-0.170667 0.02133,-0.490666 0,-0.32 0,-0.618666 0,-0.277333 0,-0.597332 0,-0.341333 -0.04267,-0.533333 -0.064,-0.426666 -0.362666,-0.661332 -0.277333,-0.256 -0.810665,-0.256 h -1.514664 q -0.554666,0 -1.002665,-0.04267 -0.448,-0.04267 -0.831999,-0.149334 -0.810666,-0.234666 -1.258665,-0.853331 -0.426666,-0.6399995 -0.469332,-1.4506649 -0.02133,-0.426666 -0.02133,-0.9386651 0,-0.5119992 0,-0.9386652 0,-0.4479993 0,-0.8959986 0,-0.4479993 0.04267,-0.9386652 0.064,-0.8959986 0.597332,-1.4506644 0.533333,-0.5759991 1.215998,-0.7253322 0.426666,-0.1066665 0.959999,-0.1066665 0.554666,-0.021333 1.023998,-0.021333 h 4.010661 v 2.2186632 h -3.690661 q -0.192,0 -0.426666,0 -0.213333,0 -0.384,0.021333 -0.426666,0.042667 -0.661332,0.2986662 -0.234666,0.2346663 -0.277333,0.6613323 -0.02133,0.2346663 -0.02133,0.5546658 0,0.2986662 0,0.639999 0,0.3199995 0,0.5759991 0,0.2346663 0.02133,0.4479992 0.04267,0.426666 0.277333,0.6613323 0.234666,0.213333 0.618666,0.2559996 0.170666,0.021333 0.362666,0.021333 0.213333,0 0.447999,0 h 1.194665 q 0.426666,0 0.831999,0.042667 0.405332,0.021333 0.746665,0.1279998 0.746666,0.213333 1.215998,0.7893317 0.469333,0.554666 0.533333,1.343998 0.04267,0.362666 0.04267,0.810666 0.02133,0.447999 0.02133,0.767998 0,0.362667 0,0.895999 0,0.511999 -0.02133,1.173332 z" />
    <path
       id="path29"
       style="font-style:normal;font-variant:normal;font-weight:normal;font-stretch:normal;font-size:21.3333px;font-family:FutureBuglerUpright;-inkscape-font-specification:FutureBuglerUpright;fill:#333333;fill-opacity:1"
       d="m 49.22408,5.731115 q 0,-1.0026651 0.448,-1.706664 0.469332,-0.7039989 1.429331,-0.8746653 0.575999,-0.1066665 1.301331,-0.1279998 0.725332,-0.042667 1.493331,-0.042667 0.789332,0 1.514664,0.042667 0.746666,0.042667 1.237332,0.1493331 0.853331,0.1706664 1.301331,0.7679988 0.469332,0.5973324 0.575999,1.3866645 0.04267,0.3413328 0.04267,1.0026651 0.02133,0.6613323 0.02133,1.2373314 0,0.4906659 0,1.1519981 0,0.639999 -0.04267,1.1946648 -0.04267,0.9386653 -0.490666,1.5786643 -0.447999,0.639999 -1.365331,0.874665 -0.447999,0.106667 -1.109331,0.128 -0.639999,0.02133 -1.407998,0.02133 H 51.61341 v 5.461325 h -2.38933 z m 5.119992,4.629326 q 0.192,0 0.405333,0 0.213333,0 0.405333,-0.02133 0.383999,-0.04267 0.661332,-0.277333 0.298666,-0.2559998 0.341333,-0.7466657 0.04267,-0.3199995 0.04267,-0.7893321 0,-0.4693325 0,-0.8106653 0,-0.3626661 -0.02133,-0.7679988 0,-0.426666 -0.04267,-0.8106654 -0.04267,-0.426666 -0.319999,-0.639999 -0.277333,-0.213333 -0.639999,-0.2559996 -0.234666,-0.042667 -0.575999,-0.042667 -0.341333,-0.021333 -0.746666,-0.021333 -0.426666,0 -0.746665,0 -0.298666,0 -0.554666,0.042667 -0.426666,0.042667 -0.682666,0.3199995 -0.255999,0.2559996 -0.255999,0.7466655 v 4.0746602 z" />
    <path
       id="path31"
       style="font-style:normal;font-variant:normal;font-weight:normal;font-stretch:normal;font-size:21.3333px;font-family:FutureBuglerUpright;-inkscape-font-specification:FutureBuglerUpright;fill:#333333;fill-opacity:1"
       d="M 60.092397,5.1977825 V 3.0004526 h 3.583995 q 0.789332,0 1.429331,0.021333 0.661332,0.021333 1.151998,0.1706664 0.746665,0.2346663 1.237331,0.8319987 0.511999,0.5759991 0.575999,1.3866645 0.04267,0.426666 0.04267,0.8319987 0,0.3839994 0,0.8319987 0,0.3839994 -0.02133,0.7679988 0,0.3626661 -0.02133,0.7253321 -0.04267,0.6186657 -0.426666,1.1093316 -0.362666,0.4693326 -1.023998,0.6399986 v 0.04267 q 0.789332,0.234666 1.173331,0.831999 0.384,0.597332 0.448,1.279998 0.04267,0.362666 0.04267,0.789332 0,0.405332 0,0.725332 0,0.298666 -0.02133,0.661332 0,0.362666 -0.02133,0.661333 -0.04267,0.917331 -0.512,1.62133 -0.447999,0.703999 -1.386664,0.917332 -0.426666,0.106667 -1.066665,0.128 -0.639999,0 -1.407998,0 h -3.775994 v -2.19733 h 3.989327 q 0.192,0 0.405333,0 0.234666,0 0.405333,-0.02133 0.490666,-0.04267 0.703999,-0.32 0.234666,-0.277333 0.255999,-0.725332 0.02133,-0.341333 0.02133,-0.597332 0,-0.277333 0,-0.511999 0,-0.256 0,-0.533333 0,-0.277333 -0.04267,-0.618666 -0.04267,-0.362666 -0.256,-0.618665 -0.213333,-0.277333 -0.639999,-0.32 -0.170666,-0.02133 -0.362666,-0.02133 -0.192,0 -0.426666,0 H 60.348397 V 9.3577759 h 3.135995 q 0.192,0 0.575999,0 0.405333,0 0.639999,-0.021333 0.426666,-0.042667 0.682666,-0.2986662 0.277332,-0.2773329 0.319999,-0.7679987 0.02133,-0.2559996 0.02133,-0.5333325 0,-0.2986662 0,-0.5546658 0,-0.2346663 0,-0.4906659 0,-0.2559996 -0.04267,-0.5333325 -0.04267,-0.426666 -0.298666,-0.639999 -0.256,-0.2346663 -0.618666,-0.2773329 -0.106667,0 -0.32,0 -0.191999,-0.021333 -0.447999,-0.021333 -0.256,-0.021333 -0.533332,-0.021333 -0.277333,0 -0.490666,0 z" />
    <path
       id="path33"
       style="font-style:normal;font-variant:normal;font-weight:normal;font-stretch:normal;font-size:21.3333px;font-family:FutureBuglerUpright;-inkscape-font-specification:FutureBuglerUpright;fill:#333333;fill-opacity:1"
       d="m 74.917042,2.9791193 q 0.234666,0 0.554666,0.021333 0.319999,0 0.661332,0.021333 0.341333,0 0.661332,0.042667 0.32,0.021333 0.533333,0.064 0.725332,0.1706664 1.215998,0.7253322 0.490666,0.5546658 0.597332,1.4506644 0.04267,0.4693326 0.04267,0.9386652 0.02133,0.4479993 0.02133,0.8959986 0,0.426666 0,0.9386652 0,0.5119991 -0.04267,0.9386651 -0.064,0.8106654 -0.490665,1.4506649 -0.426666,0.618665 -1.237332,0.853331 -0.383999,0.106667 -0.831999,0.149334 -0.447999,0.04267 -1.002665,0.04267 h -1.578664 q -0.554666,0 -0.895998,0.256 -0.32,0.234666 -0.362666,0.703999 -0.064,0.511999 -0.064,1.087998 0,0.298666 0,0.597332 0,0.277333 0.04267,0.533333 0.128,0.981332 0.959999,1.045332 0.170666,0.02133 0.469332,0.02133 0.298667,0 0.554666,0 h 3.967994 v 2.218663 h -4.52266 q -0.533332,0 -0.981331,-0.02133 -0.426666,-0.02133 -0.917332,-0.128 -0.959999,-0.192 -1.429331,-0.874665 -0.448,-0.703999 -0.490666,-1.663998 -0.04267,-0.575999 -0.04267,-1.045331 0,-0.469333 0,-0.831999 0,-0.362666 0,-0.874665 0.02133,-0.512 0.08533,-0.959999 0.106667,-0.767999 0.554666,-1.301331 0.447999,-0.5333327 1.194665,-0.7466657 0.341333,-0.1066665 0.746665,-0.1279998 0.405333,-0.042667 0.831999,-0.042667 h 1.343998 q 0.234666,0 0.426666,0 0.213333,0 0.383999,-0.021333 0.767999,-0.1066665 0.895999,-0.9173319 0.04267,-0.2133329 0.04267,-0.4906658 0,-0.2773329 0,-0.5973324 0,-0.3413328 0,-0.6186657 0,-0.2773329 -0.04267,-0.5119992 -0.08533,-0.8319987 -0.981332,-0.9599985 -0.213333,-0.042667 -0.469333,-0.042667 -0.234666,0 -0.469332,0 -0.213333,0 -0.447999,0 -0.234667,0 -0.533333,0.042667 -0.426666,0.042667 -0.682665,0.3199995 -0.256,0.2559996 -0.256,0.7466655 v 0.3626661 h -2.38933 V 5.6671151 q 0,-0.9173319 0.448,-1.6213308 0.469332,-0.7039989 1.407997,-0.9173319 0.213333,-0.042667 0.512,-0.064 0.319999,-0.042667 0.661332,-0.042667 0.341333,-0.021333 0.682666,-0.021333 0.362666,-0.021333 0.661332,-0.021333 z" />
  </g>
  <path
     class="cls-1"
     d="m 6.9300525,15.65013 a 1.48,1.48 0 1 1 -1.48,-1.48 1.48,1.48 0 0 1 1.48,1.48"
     id="path16" />
  <path
     class="cls-1"
     d="M 19.840053,14.11013 A 15.34,15.34 0 0 0 6.8400525,1.1101299 a 9.73,9.73 0 0 0 -2.15,1.55 v 1.43 A 12.18,12.18 0 0 1 16.860053,16.25013 h 1.43 a 10.25,10.25 0 0 0 1.55,-2.14"
     id="path18" />
  <path
     class="cls-1"
     d="m 21.000053,9.6201299 a 9.62,9.62 0 0 0 -9.67,-9.61999996149 c -0.34,0 -0.67,0 -1,0.0500000015 l -0.22,0.64 a 16.55,16.55 0 0 1 10.14,10.13000006 l 0.64,-0.23 c 0,-0.32 0.06,-0.6400001 0.06,-1.0000001"
     id="path20" />
  <path
     class="cls-1"
     d="M 11.440053,21.00013 A 11.44,11.44 0 0 1 5.2527238e-5,9.6101299 11.36,11.36 0 0 1 3.3500525,1.5201299 l 0.65,0.61 a 10.56,10.56 0 0 0 0,15.0000001 10.56,10.56 0 0 0 15.0000005,0 l 0.61,0.61 a 11.35,11.35 0 0 1 -8.17,3.26"
     id="path22" />
  <path
     class="cls-1"
     d="m 11.310053,16.91013 a 6.65,6.65 0 0 0 -2.6100005,-5.91 6.51,6.51 0 0 0 -3.35,-1.3600001 0.61,0.61 0 0 1 -0.53,-0.64 0.59,0.59 0 0 1 0.65,-0.54 7.85,7.85 0 0 1 7.0000005,8.5800001 6.85,6.85 0 0 1 -0.26,1.35 l 1.74,0.49 a 9.66,9.66 0 0 0 1.5,-0.57 10.64,10.64 0 0 0 0.19,-2.05 11,11 0 0 0 -9.3300005,-10.8600001 4.84,4.84 0 0 0 -1.75,0 3.81,3.81 0 0 0 -1.89,1.17 3.74,3.74 0 0 0 1.67,6.0000001 8.66,8.66 0 0 0 0.94,0.17 v 0 a 3.51,3.51 0 0 1 2.92,3.46 3.47,3.47 0 0 1 -0.56,1.89 l 1.2,0.77 a 8.91,8.91 0 0 0 1.8000005,0.3 6.58,6.58 0 0 0 0.66,-2.3"
     id="path24" />
</svg>
